G75*
%MOIN*%
%OFA0B0*%
%FSLAX25Y25*%
%IPPOS*%
%LPD*%
%AMOC8*
5,1,8,0,0,1.08239X$1,22.5*
%
%ADD10C,0.13786*%
%ADD11R,0.05124X0.03550*%
%ADD12R,0.05900X0.05900*%
%ADD13R,0.05912X0.05124*%
%ADD14R,0.05912X0.04337*%
%ADD15C,0.07800*%
%ADD16OC8,0.07800*%
%ADD17R,0.04337X0.05912*%
%ADD18R,0.06306X0.01975*%
%ADD19R,0.06306X0.01502*%
%ADD20R,0.01975X0.06306*%
%ADD21R,0.01502X0.06306*%
%ADD22R,0.05912X0.10833*%
%ADD23C,0.04400*%
%ADD24C,0.06000*%
%ADD25C,0.07000*%
D10*
X0017650Y0017394D03*
X0143635Y0017394D03*
X0143635Y0143378D03*
X0017650Y0143378D03*
D11*
X0027769Y0117591D03*
X0027769Y0110504D03*
X0030564Y0096409D03*
X0030564Y0089323D03*
X0062808Y0122827D03*
X0062808Y0129913D03*
X0069934Y0129953D03*
X0069934Y0122866D03*
X0096154Y0135937D03*
X0096154Y0143024D03*
X0116942Y0140661D03*
X0116942Y0133575D03*
X0126863Y0136488D03*
X0126863Y0143575D03*
X0111036Y0045228D03*
X0111036Y0038142D03*
X0129776Y0040307D03*
X0129776Y0033220D03*
X0062611Y0020150D03*
X0062611Y0013063D03*
D12*
X0097686Y0149795D03*
X0110686Y0149795D03*
D13*
X0087808Y0150110D03*
X0087808Y0138299D03*
X0070682Y0022118D03*
X0070682Y0010307D03*
D14*
X0077217Y0121488D03*
X0077217Y0128969D03*
X0085879Y0125228D03*
D15*
X0096076Y0121882D03*
X0106076Y0121882D03*
X0105209Y0109598D03*
X0095209Y0109598D03*
X0073320Y0112669D03*
X0063320Y0112669D03*
X0031312Y0124717D03*
X0012926Y0085504D03*
X0012926Y0075504D03*
X0012926Y0065504D03*
X0012926Y0055504D03*
X0012926Y0045504D03*
X0012926Y0035504D03*
X0053517Y0018929D03*
D16*
X0084265Y0022394D03*
X0094265Y0022394D03*
X0104265Y0022394D03*
X0114265Y0022394D03*
X0124265Y0022394D03*
X0124265Y0012394D03*
X0114265Y0012394D03*
X0104265Y0012394D03*
X0094265Y0012394D03*
X0084265Y0012394D03*
X0138635Y0042669D03*
X0148635Y0042669D03*
X0148635Y0052669D03*
X0148635Y0062669D03*
X0138635Y0062669D03*
X0138635Y0052669D03*
X0138635Y0072669D03*
X0148635Y0072669D03*
X0148635Y0082669D03*
X0138635Y0082669D03*
X0077020Y0138378D03*
X0077020Y0148378D03*
X0067020Y0148378D03*
X0057020Y0148378D03*
X0047020Y0148378D03*
X0037020Y0148378D03*
X0037020Y0138378D03*
X0047020Y0138378D03*
X0057020Y0138378D03*
X0067020Y0138378D03*
D17*
X0102965Y0140976D03*
X0110446Y0140976D03*
X0106706Y0132315D03*
D18*
X0113831Y0085425D03*
X0113831Y0055425D03*
X0067375Y0055425D03*
X0067375Y0085425D03*
D19*
X0067375Y0083220D03*
X0067375Y0081252D03*
X0067375Y0079283D03*
X0067375Y0077315D03*
X0067375Y0075346D03*
X0067375Y0073378D03*
X0067375Y0071409D03*
X0067375Y0069441D03*
X0067375Y0067472D03*
X0067375Y0065504D03*
X0067375Y0063535D03*
X0067375Y0061567D03*
X0067375Y0059598D03*
X0067375Y0057630D03*
X0113831Y0057630D03*
X0113831Y0059598D03*
X0113831Y0061567D03*
X0113831Y0063535D03*
X0113831Y0065504D03*
X0113831Y0067472D03*
X0113831Y0069441D03*
X0113831Y0071409D03*
X0113831Y0073378D03*
X0113831Y0075346D03*
X0113831Y0077315D03*
X0113831Y0079283D03*
X0113831Y0081252D03*
X0113831Y0083220D03*
D20*
X0105603Y0093654D03*
X0075603Y0093654D03*
X0075603Y0047197D03*
X0105603Y0047197D03*
D21*
X0103398Y0047197D03*
X0101430Y0047197D03*
X0099461Y0047197D03*
X0097493Y0047197D03*
X0095524Y0047197D03*
X0093556Y0047197D03*
X0091587Y0047197D03*
X0089619Y0047197D03*
X0087650Y0047197D03*
X0085682Y0047197D03*
X0083713Y0047197D03*
X0081745Y0047197D03*
X0079776Y0047197D03*
X0077808Y0047197D03*
X0077808Y0093654D03*
X0079776Y0093654D03*
X0081745Y0093654D03*
X0083713Y0093654D03*
X0085682Y0093654D03*
X0087650Y0093654D03*
X0089619Y0093654D03*
X0091587Y0093654D03*
X0093556Y0093654D03*
X0095524Y0093654D03*
X0097493Y0093654D03*
X0099461Y0093654D03*
X0101430Y0093654D03*
X0103398Y0093654D03*
D22*
X0147572Y0098791D03*
X0147572Y0124972D03*
X0013713Y0124972D03*
X0013713Y0098791D03*
D23*
X0138969Y0102594D03*
X0138969Y0119594D03*
D24*
X0046233Y0077917D03*
X0046233Y0058917D03*
D25*
X0042887Y0098102D03*
X0052887Y0098102D03*
M02*
