G75*
%MOIN*%
%OFA0B0*%
%FSLAX25Y25*%
%IPPOS*%
%LPD*%
%AMOC8*
5,1,8,0,0,1.08239X$1,22.5*
%
%ADD10R,0.03150X0.04724*%
%ADD11R,0.04724X0.03150*%
%ADD12R,0.05500X0.05500*%
%ADD13R,0.05512X0.04724*%
%ADD14R,0.03937X0.05512*%
%ADD15C,0.04400*%
%ADD16C,0.07400*%
%ADD17OC8,0.07400*%
%ADD18R,0.04500X0.04000*%
%ADD19R,0.05906X0.01575*%
%ADD20R,0.05906X0.01102*%
%ADD21R,0.01575X0.05906*%
%ADD22R,0.01102X0.05906*%
%ADD23R,0.04331X0.07480*%
%ADD24R,0.05512X0.10433*%
%ADD25C,0.00787*%
%ADD26OC8,0.03962*%
%ADD27C,0.02362*%
%ADD28C,0.01575*%
D10*
X0021272Y0050571D03*
X0028359Y0050571D03*
X0066942Y0030571D03*
X0074028Y0030571D03*
X0075288Y0042421D03*
X0068202Y0042421D03*
X0098241Y0037815D03*
X0105328Y0037815D03*
X0109619Y0037894D03*
X0106272Y0043957D03*
X0113359Y0043957D03*
X0116706Y0037894D03*
X0116666Y0099154D03*
X0109580Y0099154D03*
X0098477Y0109311D03*
X0091391Y0109311D03*
X0105013Y0139311D03*
X0112099Y0139311D03*
X0116824Y0139075D03*
X0123910Y0139075D03*
X0039422Y0119469D03*
X0032335Y0119469D03*
D11*
X0045367Y0109626D03*
X0045367Y0102539D03*
X0045485Y0098406D03*
X0045485Y0091319D03*
X0044973Y0086122D03*
X0044973Y0079035D03*
X0045052Y0074508D03*
X0045052Y0067421D03*
X0044028Y0052736D03*
X0044028Y0045650D03*
X0051391Y0045768D03*
X0051391Y0052854D03*
X0056627Y0098642D03*
X0056627Y0105728D03*
X0063713Y0105610D03*
X0063713Y0098524D03*
X0066587Y0122618D03*
X0073831Y0122618D03*
X0073831Y0129705D03*
X0066587Y0129705D03*
X0103162Y0125492D03*
X0103162Y0118406D03*
D12*
X0096741Y0132972D03*
X0109741Y0132972D03*
D13*
X0087808Y0138799D03*
X0087808Y0150610D03*
X0070682Y0022618D03*
X0070682Y0010807D03*
D14*
X0088044Y0116516D03*
X0095524Y0116516D03*
X0091784Y0125177D03*
X0110524Y0124941D03*
X0118005Y0124941D03*
X0114265Y0116280D03*
D15*
X0122650Y0100413D03*
X0122650Y0095413D03*
X0122650Y0090413D03*
X0122650Y0085413D03*
X0122650Y0080413D03*
X0075800Y0117382D03*
X0070800Y0117382D03*
X0065800Y0117382D03*
X0060800Y0117382D03*
X0055800Y0117382D03*
D16*
X0057060Y0125492D03*
X0012926Y0086004D03*
X0012926Y0076004D03*
X0012926Y0066004D03*
X0012926Y0056004D03*
X0012926Y0046004D03*
X0012926Y0036004D03*
X0044265Y0012657D03*
X0054265Y0012657D03*
X0060367Y0025571D03*
X0107020Y0148878D03*
X0117020Y0148878D03*
D17*
X0077020Y0148878D03*
X0067020Y0148878D03*
X0057020Y0148878D03*
X0047020Y0148878D03*
X0037020Y0148878D03*
X0037020Y0138878D03*
X0047020Y0138878D03*
X0057020Y0138878D03*
X0067020Y0138878D03*
X0077020Y0138878D03*
X0138635Y0083169D03*
X0148635Y0083169D03*
X0148635Y0073169D03*
X0148635Y0063169D03*
X0138635Y0063169D03*
X0138635Y0073169D03*
X0138635Y0053169D03*
X0148635Y0053169D03*
X0148635Y0043169D03*
X0138635Y0043169D03*
X0124265Y0022894D03*
X0114265Y0022894D03*
X0114265Y0012894D03*
X0124265Y0012894D03*
X0104265Y0012894D03*
X0094265Y0012894D03*
X0084265Y0012894D03*
X0084265Y0022894D03*
X0094265Y0022894D03*
X0104265Y0022894D03*
D18*
X0045312Y0037618D03*
X0037312Y0034118D03*
X0037312Y0041118D03*
D19*
X0064068Y0058996D03*
X0064068Y0088996D03*
X0110524Y0088996D03*
X0110524Y0058996D03*
D20*
X0110524Y0061201D03*
X0110524Y0063169D03*
X0110524Y0065138D03*
X0110524Y0067106D03*
X0110524Y0069075D03*
X0110524Y0071043D03*
X0110524Y0073012D03*
X0110524Y0074980D03*
X0110524Y0076949D03*
X0110524Y0078917D03*
X0110524Y0080886D03*
X0110524Y0082854D03*
X0110524Y0084823D03*
X0110524Y0086791D03*
X0064068Y0086791D03*
X0064068Y0084823D03*
X0064068Y0082854D03*
X0064068Y0080886D03*
X0064068Y0078917D03*
X0064068Y0076949D03*
X0064068Y0074980D03*
X0064068Y0073012D03*
X0064068Y0071043D03*
X0064068Y0069075D03*
X0064068Y0067106D03*
X0064068Y0065138D03*
X0064068Y0063169D03*
X0064068Y0061201D03*
D21*
X0072296Y0050768D03*
X0102296Y0050768D03*
X0102296Y0097224D03*
X0072296Y0097224D03*
D22*
X0074501Y0097224D03*
X0076469Y0097224D03*
X0078438Y0097224D03*
X0080406Y0097224D03*
X0082375Y0097224D03*
X0084343Y0097224D03*
X0086312Y0097224D03*
X0088280Y0097224D03*
X0090249Y0097224D03*
X0092217Y0097224D03*
X0094186Y0097224D03*
X0096154Y0097224D03*
X0098123Y0097224D03*
X0100091Y0097224D03*
X0100091Y0050768D03*
X0098123Y0050768D03*
X0096154Y0050768D03*
X0094186Y0050768D03*
X0092217Y0050768D03*
X0090249Y0050768D03*
X0088280Y0050768D03*
X0086312Y0050768D03*
X0084343Y0050768D03*
X0082375Y0050768D03*
X0080406Y0050768D03*
X0078438Y0050768D03*
X0076469Y0050768D03*
X0074501Y0050768D03*
D23*
X0039225Y0069547D03*
X0030170Y0069547D03*
X0030170Y0084114D03*
X0039225Y0084114D03*
X0039343Y0094154D03*
X0030288Y0094154D03*
X0030288Y0108720D03*
X0039343Y0108720D03*
D24*
X0013713Y0099291D03*
X0013713Y0125472D03*
X0147572Y0125472D03*
X0147572Y0099291D03*
D25*
X0028068Y0008433D02*
X0007772Y0008433D01*
X0006986Y0009219D02*
X0028068Y0009219D01*
X0028068Y0010005D02*
X0019736Y0010005D01*
X0019259Y0009807D02*
X0022231Y0011038D01*
X0024506Y0013313D01*
X0025737Y0016285D01*
X0025737Y0019502D01*
X0024506Y0022474D01*
X0022231Y0024749D01*
X0019259Y0025980D01*
X0016042Y0025980D01*
X0013070Y0024749D01*
X0010795Y0022474D01*
X0009564Y0019502D01*
X0009564Y0016285D01*
X0010795Y0013313D01*
X0013070Y0011038D01*
X0016042Y0009807D01*
X0019259Y0009807D01*
X0021634Y0010791D02*
X0028068Y0010791D01*
X0028068Y0011577D02*
X0022770Y0011577D01*
X0023555Y0012363D02*
X0028068Y0012363D01*
X0028068Y0012889D02*
X0028068Y0004508D01*
X0028048Y0004359D01*
X0027899Y0004101D01*
X0027642Y0003953D01*
X0027493Y0003933D01*
X0018044Y0003933D01*
X0016170Y0004056D01*
X0012551Y0005026D01*
X0009306Y0006899D01*
X0006656Y0009549D01*
X0004782Y0012794D01*
X0003813Y0016414D01*
X0003690Y0018287D01*
X0003690Y0034153D01*
X0003735Y0034108D01*
X0005035Y0031207D01*
X0004449Y0030621D01*
X0004449Y0028001D01*
X0006301Y0026149D01*
X0008921Y0026149D01*
X0010773Y0028001D01*
X0010773Y0028917D01*
X0024282Y0028917D01*
X0029658Y0023541D01*
X0030581Y0022618D01*
X0049328Y0022618D01*
X0049965Y0022606D01*
X0049978Y0022618D01*
X0049996Y0022618D01*
X0050446Y0023069D01*
X0065529Y0037579D01*
X0065547Y0037579D01*
X0065997Y0038029D01*
X0066456Y0038471D01*
X0066457Y0038489D01*
X0066469Y0038501D01*
X0066469Y0038665D01*
X0067021Y0038665D01*
X0065669Y0037314D01*
X0065669Y0034694D01*
X0066249Y0034114D01*
X0064878Y0034114D01*
X0064186Y0033422D01*
X0064186Y0028655D01*
X0063132Y0029709D01*
X0061338Y0030452D01*
X0059396Y0030452D01*
X0057602Y0029709D01*
X0056229Y0028336D01*
X0055486Y0026542D01*
X0055486Y0024600D01*
X0056229Y0022806D01*
X0057602Y0021433D01*
X0059396Y0020690D01*
X0061338Y0020690D01*
X0062206Y0021049D01*
X0065091Y0017875D01*
X0065091Y0017832D01*
X0065526Y0017397D01*
X0065940Y0016942D01*
X0065983Y0016940D01*
X0066014Y0016909D01*
X0066629Y0016909D01*
X0067243Y0016880D01*
X0067275Y0016909D01*
X0075192Y0016909D01*
X0076863Y0018580D01*
X0076863Y0010330D01*
X0076809Y0009754D01*
X0076863Y0009689D01*
X0076863Y0009604D01*
X0077272Y0009195D01*
X0080173Y0005689D01*
X0069484Y0005689D01*
X0068122Y0007051D01*
X0070288Y0007051D01*
X0070288Y0010413D01*
X0071076Y0010413D01*
X0071076Y0011201D01*
X0074831Y0011201D01*
X0074831Y0013353D01*
X0074737Y0013707D01*
X0074553Y0014025D01*
X0074294Y0014285D01*
X0073976Y0014468D01*
X0073621Y0014563D01*
X0071076Y0014563D01*
X0071076Y0011201D01*
X0070288Y0011201D01*
X0070288Y0014563D01*
X0067742Y0014563D01*
X0067388Y0014468D01*
X0067070Y0014285D01*
X0066811Y0014025D01*
X0066627Y0013707D01*
X0066532Y0013353D01*
X0066532Y0011201D01*
X0070288Y0011201D01*
X0070288Y0010413D01*
X0066532Y0010413D01*
X0066532Y0009606D01*
X0065678Y0011208D01*
X0065676Y0011474D01*
X0065383Y0011762D01*
X0065190Y0012124D01*
X0064935Y0012201D01*
X0056443Y0020533D01*
X0056443Y0022353D01*
X0054590Y0024205D01*
X0051970Y0024205D01*
X0050118Y0022353D01*
X0050118Y0019733D01*
X0051970Y0017881D01*
X0054590Y0017881D01*
X0054619Y0017910D01*
X0054998Y0017539D01*
X0053294Y0017539D01*
X0051500Y0016795D01*
X0050127Y0015422D01*
X0049383Y0013628D01*
X0049383Y0011687D01*
X0050127Y0009893D01*
X0051500Y0008519D01*
X0053294Y0007776D01*
X0055235Y0007776D01*
X0057029Y0008519D01*
X0058403Y0009893D01*
X0059146Y0011687D01*
X0059146Y0013469D01*
X0062831Y0009852D01*
X0064107Y0007461D01*
X0064107Y0006611D01*
X0065030Y0005689D01*
X0066786Y0003933D01*
X0040485Y0003933D01*
X0040336Y0003953D01*
X0040079Y0004101D01*
X0039930Y0004359D01*
X0039910Y0004508D01*
X0039910Y0009985D01*
X0040379Y0009339D01*
X0040946Y0008772D01*
X0041595Y0008301D01*
X0042309Y0007937D01*
X0043072Y0007689D01*
X0043864Y0007564D01*
X0043871Y0007564D01*
X0043871Y0012264D01*
X0044658Y0012264D01*
X0044658Y0007564D01*
X0044665Y0007564D01*
X0045457Y0007689D01*
X0046220Y0007937D01*
X0046934Y0008301D01*
X0047583Y0008772D01*
X0048150Y0009339D01*
X0048621Y0009988D01*
X0048985Y0010702D01*
X0049233Y0011465D01*
X0049358Y0012257D01*
X0049358Y0012264D01*
X0044658Y0012264D01*
X0044658Y0013051D01*
X0043871Y0013051D01*
X0043871Y0017751D01*
X0043864Y0017751D01*
X0043072Y0017626D01*
X0042309Y0017378D01*
X0041595Y0017014D01*
X0040946Y0016543D01*
X0040379Y0015976D01*
X0039908Y0015327D01*
X0039544Y0014613D01*
X0039318Y0013916D01*
X0039009Y0014449D01*
X0037449Y0015350D01*
X0030529Y0015350D01*
X0028969Y0014449D01*
X0028068Y0012889D01*
X0028217Y0013148D02*
X0024341Y0013148D01*
X0024763Y0013934D02*
X0028671Y0013934D01*
X0028969Y0014449D02*
X0028969Y0014449D01*
X0028969Y0014449D01*
X0029438Y0014720D02*
X0025089Y0014720D01*
X0025414Y0015506D02*
X0040038Y0015506D01*
X0039599Y0014720D02*
X0038540Y0014720D01*
X0039009Y0014449D02*
X0039009Y0014449D01*
X0039009Y0014449D01*
X0039307Y0013934D02*
X0039324Y0013934D01*
X0040696Y0016292D02*
X0025737Y0016292D01*
X0025737Y0017078D02*
X0041721Y0017078D01*
X0043871Y0017078D02*
X0044658Y0017078D01*
X0044265Y0016555D02*
X0055446Y0027539D01*
X0055446Y0023484D01*
X0059698Y0019075D01*
X0063123Y0016319D01*
X0061566Y0015506D02*
X0076863Y0015506D01*
X0076863Y0014720D02*
X0062367Y0014720D01*
X0063168Y0013934D02*
X0066758Y0013934D01*
X0066532Y0013148D02*
X0063969Y0013148D01*
X0064770Y0012363D02*
X0066532Y0012363D01*
X0066532Y0011577D02*
X0065571Y0011577D01*
X0065901Y0010791D02*
X0070288Y0010791D01*
X0070682Y0010807D02*
X0055446Y0023484D01*
X0055430Y0023365D02*
X0055997Y0023365D01*
X0056216Y0022579D02*
X0056455Y0022579D01*
X0056443Y0021793D02*
X0057241Y0021793D01*
X0056443Y0021008D02*
X0058629Y0021008D01*
X0057561Y0019436D02*
X0063673Y0019436D01*
X0062958Y0020222D02*
X0056760Y0020222D01*
X0058362Y0018650D02*
X0064387Y0018650D01*
X0065091Y0017864D02*
X0059163Y0017864D01*
X0059964Y0017078D02*
X0065816Y0017078D01*
X0066666Y0018484D02*
X0074540Y0018484D01*
X0076902Y0020846D01*
X0076902Y0027697D01*
X0074028Y0030571D01*
X0074816Y0030965D01*
X0074540Y0030886D01*
X0074540Y0036004D01*
X0071170Y0040807D02*
X0071170Y0042028D01*
X0068595Y0042028D01*
X0068595Y0042815D01*
X0067808Y0042815D01*
X0067808Y0046177D01*
X0066469Y0046177D01*
X0066469Y0046888D01*
X0068232Y0049193D01*
X0070328Y0049193D01*
X0070328Y0047326D01*
X0071019Y0046634D01*
X0073208Y0046634D01*
X0073412Y0046516D01*
X0073766Y0046421D01*
X0074501Y0046421D01*
X0074894Y0046421D01*
X0074894Y0046404D01*
X0074756Y0045965D01*
X0073224Y0045965D01*
X0072532Y0045273D01*
X0072532Y0042045D01*
X0071170Y0040807D01*
X0071170Y0041441D02*
X0071868Y0041441D01*
X0072532Y0042227D02*
X0068595Y0042227D01*
X0068595Y0042028D02*
X0068595Y0039166D01*
X0067808Y0039166D01*
X0067808Y0042028D01*
X0068595Y0042028D01*
X0068202Y0042421D02*
X0068005Y0040295D01*
X0055446Y0027539D01*
X0055798Y0027295D02*
X0054839Y0027295D01*
X0055486Y0026509D02*
X0054022Y0026509D01*
X0053205Y0025723D02*
X0055486Y0025723D01*
X0055486Y0024937D02*
X0052388Y0024937D01*
X0051916Y0024151D02*
X0051571Y0024151D01*
X0051130Y0023365D02*
X0050755Y0023365D01*
X0050344Y0022579D02*
X0024401Y0022579D01*
X0024788Y0021793D02*
X0050118Y0021793D01*
X0050118Y0021008D02*
X0025113Y0021008D01*
X0025439Y0020222D02*
X0050118Y0020222D01*
X0050416Y0019436D02*
X0025737Y0019436D01*
X0025737Y0018650D02*
X0051202Y0018650D01*
X0052182Y0017078D02*
X0046809Y0017078D01*
X0046934Y0017014D02*
X0046220Y0017378D01*
X0045457Y0017626D01*
X0044665Y0017751D01*
X0044658Y0017751D01*
X0044658Y0013051D01*
X0049358Y0013051D01*
X0049358Y0013058D01*
X0049233Y0013850D01*
X0048985Y0014613D01*
X0048621Y0015327D01*
X0048150Y0015976D01*
X0047583Y0016543D01*
X0046934Y0017014D01*
X0047834Y0016292D02*
X0050996Y0016292D01*
X0050210Y0015506D02*
X0048491Y0015506D01*
X0048930Y0014720D02*
X0049836Y0014720D01*
X0049510Y0013934D02*
X0049206Y0013934D01*
X0049344Y0013148D02*
X0049383Y0013148D01*
X0049383Y0012363D02*
X0044658Y0012363D01*
X0044265Y0012657D02*
X0044265Y0016555D01*
X0044658Y0016292D02*
X0043871Y0016292D01*
X0043871Y0015506D02*
X0044658Y0015506D01*
X0044658Y0014720D02*
X0043871Y0014720D01*
X0043871Y0013934D02*
X0044658Y0013934D01*
X0044658Y0013148D02*
X0043871Y0013148D01*
X0043871Y0011577D02*
X0044658Y0011577D01*
X0044658Y0010791D02*
X0043871Y0010791D01*
X0043871Y0010005D02*
X0044658Y0010005D01*
X0044658Y0009219D02*
X0043871Y0009219D01*
X0043871Y0008433D02*
X0044658Y0008433D01*
X0044658Y0007647D02*
X0043871Y0007647D01*
X0043338Y0007647D02*
X0039910Y0007647D01*
X0039910Y0006861D02*
X0064107Y0006861D01*
X0064008Y0007647D02*
X0045191Y0007647D01*
X0047116Y0008433D02*
X0051708Y0008433D01*
X0050800Y0009219D02*
X0048030Y0009219D01*
X0048630Y0010005D02*
X0050080Y0010005D01*
X0049755Y0010791D02*
X0049014Y0010791D01*
X0049251Y0011577D02*
X0049429Y0011577D01*
X0054666Y0017864D02*
X0025737Y0017864D01*
X0023615Y0023365D02*
X0029834Y0023365D01*
X0029048Y0024151D02*
X0022829Y0024151D01*
X0021777Y0024937D02*
X0028262Y0024937D01*
X0027476Y0025723D02*
X0019880Y0025723D01*
X0015421Y0025723D02*
X0003690Y0025723D01*
X0003690Y0024937D02*
X0013523Y0024937D01*
X0012472Y0024151D02*
X0003690Y0024151D01*
X0003690Y0023365D02*
X0011686Y0023365D01*
X0010900Y0022579D02*
X0003690Y0022579D01*
X0003690Y0021793D02*
X0010513Y0021793D01*
X0010187Y0021008D02*
X0003690Y0021008D01*
X0003690Y0020222D02*
X0009862Y0020222D01*
X0009564Y0019436D02*
X0003690Y0019436D01*
X0003690Y0018650D02*
X0009564Y0018650D01*
X0009564Y0017864D02*
X0003718Y0017864D01*
X0003769Y0017078D02*
X0009564Y0017078D01*
X0009564Y0016292D02*
X0003845Y0016292D01*
X0004056Y0015506D02*
X0009886Y0015506D01*
X0010212Y0014720D02*
X0004266Y0014720D01*
X0004477Y0013934D02*
X0010538Y0013934D01*
X0010959Y0013148D02*
X0004688Y0013148D01*
X0005032Y0012363D02*
X0011745Y0012363D01*
X0012531Y0011577D02*
X0005485Y0011577D01*
X0005939Y0010791D02*
X0013667Y0010791D01*
X0015565Y0010005D02*
X0006393Y0010005D01*
X0008558Y0007647D02*
X0028068Y0007647D01*
X0028068Y0006861D02*
X0009372Y0006861D01*
X0010733Y0006075D02*
X0028068Y0006075D01*
X0028068Y0005289D02*
X0012094Y0005289D01*
X0014500Y0004503D02*
X0028067Y0004503D01*
X0039911Y0004503D02*
X0066215Y0004503D01*
X0065429Y0005289D02*
X0039910Y0005289D01*
X0039910Y0006075D02*
X0064643Y0006075D01*
X0065682Y0007264D02*
X0065682Y0007854D01*
X0064107Y0010807D01*
X0053674Y0021043D01*
X0053280Y0021043D01*
X0054644Y0024151D02*
X0055672Y0024151D01*
X0055656Y0028081D02*
X0056123Y0028081D01*
X0056473Y0028867D02*
X0056760Y0028867D01*
X0057290Y0029653D02*
X0057546Y0029653D01*
X0058107Y0030439D02*
X0059364Y0030439D01*
X0058924Y0031224D02*
X0064186Y0031224D01*
X0064186Y0030439D02*
X0061370Y0030439D01*
X0063188Y0029653D02*
X0064186Y0029653D01*
X0064186Y0028867D02*
X0063974Y0028867D01*
X0064186Y0032010D02*
X0059741Y0032010D01*
X0060558Y0032796D02*
X0064186Y0032796D01*
X0064346Y0033582D02*
X0061375Y0033582D01*
X0062192Y0034368D02*
X0065995Y0034368D01*
X0065669Y0035154D02*
X0063009Y0035154D01*
X0063825Y0035940D02*
X0065669Y0035940D01*
X0065669Y0036726D02*
X0064642Y0036726D01*
X0065459Y0037512D02*
X0065867Y0037512D01*
X0066276Y0038298D02*
X0066653Y0038298D01*
X0067808Y0039869D02*
X0068595Y0039869D01*
X0068595Y0040655D02*
X0067808Y0040655D01*
X0067808Y0041441D02*
X0068595Y0041441D01*
X0068202Y0042421D02*
X0068005Y0042461D01*
X0071587Y0046043D01*
X0073556Y0046043D01*
X0074343Y0046831D01*
X0074343Y0050610D01*
X0074501Y0050768D01*
X0074501Y0050768D01*
X0074501Y0055114D01*
X0075235Y0055114D01*
X0075590Y0055019D01*
X0075794Y0054902D01*
X0098798Y0054902D01*
X0099002Y0055019D01*
X0099357Y0055114D01*
X0100091Y0055114D01*
X0100091Y0050768D01*
X0100091Y0050768D01*
X0100091Y0055114D01*
X0100826Y0055114D01*
X0101180Y0055019D01*
X0101384Y0054902D01*
X0103573Y0054902D01*
X0104265Y0054210D01*
X0104265Y0052343D01*
X0107587Y0052343D01*
X0107680Y0052414D01*
X0108225Y0052343D01*
X0108775Y0052343D01*
X0108858Y0052260D01*
X0108974Y0052245D01*
X0109309Y0051809D01*
X0109698Y0051420D01*
X0109698Y0051303D01*
X0112621Y0047500D01*
X0115423Y0047500D01*
X0116115Y0046808D01*
X0116115Y0046224D01*
X0116931Y0047040D01*
X0119551Y0047040D01*
X0121403Y0045188D01*
X0121403Y0042568D01*
X0119551Y0040716D01*
X0119461Y0040716D01*
X0119461Y0036892D01*
X0121587Y0039018D01*
X0121587Y0049642D01*
X0120000Y0051230D01*
X0120000Y0053849D01*
X0120659Y0054508D01*
X0120148Y0054508D01*
X0119225Y0055430D01*
X0117234Y0057421D01*
X0114360Y0057421D01*
X0113966Y0057028D01*
X0107082Y0057028D01*
X0106391Y0057719D01*
X0106391Y0085498D01*
X0106273Y0085702D01*
X0106178Y0086057D01*
X0106178Y0086791D01*
X0110524Y0086791D01*
X0110524Y0086791D01*
X0106178Y0086791D01*
X0106178Y0087526D01*
X0106273Y0087880D01*
X0106391Y0088084D01*
X0106391Y0090273D01*
X0107082Y0090965D01*
X0109141Y0090965D01*
X0109289Y0092427D01*
X0108667Y0095610D01*
X0107515Y0095610D01*
X0106824Y0096302D01*
X0106824Y0100509D01*
X0105301Y0098986D01*
X0104265Y0097374D01*
X0104265Y0093782D01*
X0103573Y0093091D01*
X0075794Y0093091D01*
X0075590Y0092973D01*
X0075235Y0092878D01*
X0074501Y0092878D01*
X0074501Y0097224D01*
X0074501Y0097224D01*
X0074501Y0092878D01*
X0073766Y0092878D01*
X0073412Y0092973D01*
X0073208Y0093091D01*
X0071019Y0093091D01*
X0070328Y0093782D01*
X0070328Y0096949D01*
X0067257Y0096949D01*
X0067257Y0096460D01*
X0066565Y0095768D01*
X0061995Y0095768D01*
X0066068Y0091949D01*
X0066098Y0091949D01*
X0066541Y0091505D01*
X0066999Y0091077D01*
X0067000Y0091047D01*
X0067020Y0091026D01*
X0067020Y0090965D01*
X0067510Y0090965D01*
X0068202Y0090273D01*
X0068202Y0068399D01*
X0068319Y0068195D01*
X0068414Y0067841D01*
X0068414Y0067106D01*
X0064068Y0067106D01*
X0064068Y0067106D01*
X0068414Y0067106D01*
X0068414Y0066372D01*
X0068319Y0066017D01*
X0068202Y0065813D01*
X0068202Y0057719D01*
X0067510Y0057028D01*
X0065643Y0057028D01*
X0065643Y0056966D01*
X0064720Y0056043D01*
X0064304Y0055627D01*
X0064304Y0049241D01*
X0065879Y0051301D01*
X0065879Y0051420D01*
X0066266Y0051807D01*
X0066599Y0052242D01*
X0066717Y0052258D01*
X0066801Y0052343D01*
X0067349Y0052343D01*
X0067892Y0052415D01*
X0067987Y0052343D01*
X0070328Y0052343D01*
X0070328Y0054210D01*
X0071019Y0054902D01*
X0073208Y0054902D01*
X0073412Y0055019D01*
X0073766Y0055114D01*
X0074501Y0055114D01*
X0074501Y0050768D01*
X0074501Y0046421D01*
X0074501Y0050768D01*
X0074501Y0050768D01*
X0074501Y0050872D02*
X0074501Y0050872D01*
X0074501Y0050086D02*
X0074501Y0050086D01*
X0074501Y0049300D02*
X0074501Y0049300D01*
X0074501Y0048515D02*
X0074501Y0048515D01*
X0074501Y0047729D02*
X0074501Y0047729D01*
X0074501Y0046943D02*
X0074501Y0046943D01*
X0074816Y0046157D02*
X0070036Y0046157D01*
X0069960Y0046177D02*
X0068595Y0046177D01*
X0068595Y0042815D01*
X0071170Y0042815D01*
X0071170Y0044967D01*
X0071075Y0045321D01*
X0070892Y0045639D01*
X0070632Y0045899D01*
X0070314Y0046082D01*
X0069960Y0046177D01*
X0070711Y0046943D02*
X0066511Y0046943D01*
X0067112Y0047729D02*
X0070328Y0047729D01*
X0070328Y0048515D02*
X0067713Y0048515D01*
X0067454Y0050768D02*
X0072296Y0050768D01*
X0070328Y0052444D02*
X0064304Y0052444D01*
X0064304Y0051658D02*
X0066117Y0051658D01*
X0065551Y0050872D02*
X0064304Y0050872D01*
X0064304Y0050086D02*
X0064950Y0050086D01*
X0064349Y0049300D02*
X0064304Y0049300D01*
X0064894Y0047421D02*
X0067454Y0050768D01*
X0070328Y0053230D02*
X0064304Y0053230D01*
X0064304Y0054016D02*
X0070328Y0054016D01*
X0070920Y0054802D02*
X0064304Y0054802D01*
X0064304Y0055588D02*
X0119068Y0055588D01*
X0118282Y0056374D02*
X0065050Y0056374D01*
X0064068Y0057618D02*
X0064068Y0058996D01*
X0064068Y0057618D02*
X0062729Y0056280D01*
X0062729Y0040138D01*
X0048950Y0026752D01*
X0031391Y0026752D01*
X0012926Y0046004D01*
X0017847Y0043681D02*
X0032414Y0029114D01*
X0047572Y0029114D01*
X0050918Y0032461D01*
X0050918Y0033248D01*
X0059973Y0043878D01*
X0059973Y0060217D01*
X0060957Y0061201D01*
X0064068Y0061201D01*
X0064068Y0063169D02*
X0060367Y0063169D01*
X0058398Y0061201D01*
X0058398Y0046043D01*
X0050430Y0037484D01*
X0045312Y0037618D01*
X0041272Y0037579D02*
X0041272Y0042894D01*
X0044028Y0045650D01*
X0044934Y0045374D01*
X0044028Y0045650D02*
X0051154Y0044862D01*
X0051391Y0045768D01*
X0054737Y0045925D01*
X0056824Y0047815D01*
X0056824Y0063169D01*
X0058595Y0065138D01*
X0064068Y0065138D01*
X0064068Y0067106D02*
X0059721Y0067106D01*
X0059721Y0066713D01*
X0059200Y0066713D01*
X0059164Y0066745D01*
X0058554Y0066713D01*
X0057943Y0066713D01*
X0057909Y0066679D01*
X0057861Y0066676D01*
X0057453Y0066222D01*
X0057020Y0065790D01*
X0057020Y0065742D01*
X0055681Y0064254D01*
X0055249Y0063822D01*
X0055249Y0063774D01*
X0055249Y0063774D01*
X0055249Y0065549D01*
X0057758Y0067500D01*
X0059721Y0067500D01*
X0059721Y0067106D01*
X0064068Y0067106D01*
X0057611Y0067106D01*
X0055249Y0065138D01*
X0055249Y0057854D01*
X0053083Y0054114D01*
X0052690Y0054114D01*
X0051312Y0052736D01*
X0051272Y0052736D02*
X0051391Y0052854D01*
X0051824Y0052854D01*
X0053083Y0054114D01*
X0051784Y0053248D02*
X0055146Y0053248D01*
X0055146Y0054613D01*
X0055051Y0054967D01*
X0054868Y0055285D01*
X0054609Y0055544D01*
X0054291Y0055728D01*
X0053936Y0055823D01*
X0053674Y0055823D01*
X0053674Y0055834D01*
X0054918Y0057856D01*
X0055249Y0058186D01*
X0055249Y0058393D01*
X0055249Y0048513D01*
X0054726Y0048040D01*
X0054242Y0048524D01*
X0048539Y0048524D01*
X0047847Y0047832D01*
X0047847Y0046812D01*
X0047572Y0046842D01*
X0047572Y0047714D01*
X0046880Y0048405D01*
X0041177Y0048405D01*
X0040485Y0047714D01*
X0040485Y0044333D01*
X0040251Y0044099D01*
X0040051Y0044299D01*
X0034573Y0044299D01*
X0033881Y0043607D01*
X0033881Y0042693D01*
X0032466Y0042693D01*
X0030950Y0047554D01*
X0031115Y0047719D01*
X0031115Y0053422D01*
X0030423Y0054114D01*
X0026509Y0054114D01*
X0026509Y0054199D01*
X0026585Y0054734D01*
X0026509Y0054836D01*
X0026509Y0054963D01*
X0026127Y0055345D01*
X0025962Y0055565D01*
X0025966Y0055619D01*
X0025575Y0056081D01*
X0025316Y0056426D01*
X0027037Y0054705D01*
X0028342Y0054705D01*
X0040329Y0054705D01*
X0040272Y0054495D01*
X0040272Y0053130D01*
X0043635Y0053130D01*
X0043635Y0052343D01*
X0040272Y0052343D01*
X0040272Y0050978D01*
X0040367Y0050623D01*
X0040551Y0050306D01*
X0040810Y0050046D01*
X0041128Y0049863D01*
X0041483Y0049768D01*
X0043635Y0049768D01*
X0043635Y0052342D01*
X0044422Y0052342D01*
X0044422Y0049768D01*
X0046574Y0049768D01*
X0046928Y0049863D01*
X0047246Y0050046D01*
X0047506Y0050306D01*
X0047689Y0050623D01*
X0047725Y0050758D01*
X0047730Y0050742D01*
X0047913Y0050424D01*
X0048173Y0050164D01*
X0048490Y0049981D01*
X0048845Y0049886D01*
X0050997Y0049886D01*
X0050997Y0052461D01*
X0047635Y0052461D01*
X0047635Y0052343D01*
X0044422Y0052343D01*
X0044422Y0053130D01*
X0047784Y0053130D01*
X0047784Y0053248D01*
X0050997Y0053248D01*
X0050997Y0052461D01*
X0051784Y0052461D01*
X0051784Y0053248D01*
X0051784Y0053230D02*
X0055249Y0053230D01*
X0055146Y0052461D02*
X0051784Y0052461D01*
X0051784Y0049886D01*
X0053936Y0049886D01*
X0054291Y0049981D01*
X0054609Y0050164D01*
X0054868Y0050424D01*
X0055051Y0050742D01*
X0055146Y0051096D01*
X0055146Y0052461D01*
X0055146Y0052444D02*
X0055249Y0052444D01*
X0055249Y0051658D02*
X0055146Y0051658D01*
X0055086Y0050872D02*
X0055249Y0050872D01*
X0055249Y0050086D02*
X0054474Y0050086D01*
X0055249Y0049300D02*
X0031115Y0049300D01*
X0031115Y0048515D02*
X0048530Y0048515D01*
X0047847Y0047729D02*
X0047557Y0047729D01*
X0047572Y0046943D02*
X0047847Y0046943D01*
X0048308Y0050086D02*
X0047286Y0050086D01*
X0047635Y0052444D02*
X0044422Y0052444D01*
X0044028Y0052736D02*
X0038320Y0052736D01*
X0037926Y0052343D01*
X0040272Y0051658D02*
X0031115Y0051658D01*
X0031115Y0050872D02*
X0040301Y0050872D01*
X0040770Y0050086D02*
X0031115Y0050086D01*
X0031115Y0052444D02*
X0043635Y0052444D01*
X0044028Y0052736D02*
X0051272Y0052736D01*
X0050997Y0052444D02*
X0051784Y0052444D01*
X0051784Y0051658D02*
X0050997Y0051658D01*
X0050997Y0050872D02*
X0051784Y0050872D01*
X0051784Y0050086D02*
X0050997Y0050086D01*
X0050997Y0053230D02*
X0047784Y0053230D01*
X0044422Y0051658D02*
X0043635Y0051658D01*
X0043635Y0050872D02*
X0044422Y0050872D01*
X0044422Y0050086D02*
X0043635Y0050086D01*
X0040500Y0047729D02*
X0031115Y0047729D01*
X0031141Y0046943D02*
X0040485Y0046943D01*
X0040485Y0046157D02*
X0031386Y0046157D01*
X0031631Y0045371D02*
X0040485Y0045371D01*
X0040485Y0044585D02*
X0031876Y0044585D01*
X0032121Y0043799D02*
X0034072Y0043799D01*
X0033881Y0043013D02*
X0032366Y0043013D01*
X0031308Y0041118D02*
X0037312Y0041118D01*
X0041272Y0037579D02*
X0037812Y0034118D01*
X0037312Y0034118D01*
X0032528Y0034118D01*
X0024934Y0042894D01*
X0024934Y0054311D01*
X0024343Y0055098D01*
X0017769Y0062854D01*
X0012926Y0066004D01*
X0017315Y0068162D02*
X0018438Y0068162D01*
X0018438Y0067376D02*
X0017641Y0067376D01*
X0017807Y0066975D02*
X0017064Y0068769D01*
X0015691Y0070142D01*
X0013897Y0070885D01*
X0011955Y0070885D01*
X0010161Y0070142D01*
X0009383Y0069364D01*
X0009383Y0072344D01*
X0009608Y0072119D01*
X0010256Y0071647D01*
X0010971Y0071283D01*
X0011733Y0071036D01*
X0012525Y0070910D01*
X0012532Y0070910D01*
X0012532Y0075610D01*
X0013320Y0075610D01*
X0013320Y0076398D01*
X0012532Y0076398D01*
X0012532Y0081098D01*
X0012532Y0085610D01*
X0013320Y0085610D01*
X0013320Y0086398D01*
X0017786Y0086398D01*
X0018438Y0085745D01*
X0018438Y0064379D01*
X0018294Y0064391D01*
X0017701Y0064777D01*
X0017807Y0065033D01*
X0017807Y0066975D01*
X0017807Y0066591D02*
X0018438Y0066591D01*
X0018438Y0065805D02*
X0017807Y0065805D01*
X0017801Y0065019D02*
X0018438Y0065019D01*
X0020013Y0063957D02*
X0020013Y0086398D01*
X0015485Y0090925D01*
X0008595Y0090925D01*
X0007414Y0092106D01*
X0007414Y0105492D01*
X0031036Y0127933D01*
X0039107Y0127933D01*
X0041863Y0130886D01*
X0042060Y0131083D01*
X0042060Y0141516D01*
X0044225Y0143681D01*
X0051902Y0143681D01*
X0057020Y0148799D01*
X0057020Y0148878D01*
X0060498Y0145453D02*
X0061902Y0146856D01*
X0061902Y0150900D01*
X0059042Y0153759D01*
X0054999Y0153759D01*
X0052139Y0150900D01*
X0052139Y0146856D01*
X0052495Y0146501D01*
X0051250Y0145256D01*
X0050301Y0145256D01*
X0051902Y0146856D01*
X0051902Y0150900D01*
X0049042Y0153759D01*
X0044999Y0153759D01*
X0042139Y0150900D01*
X0042139Y0146856D01*
X0042402Y0146594D01*
X0041225Y0145453D01*
X0040498Y0145453D01*
X0041902Y0146856D01*
X0041902Y0150900D01*
X0039042Y0153759D01*
X0034999Y0153759D01*
X0032139Y0150900D01*
X0032139Y0146856D01*
X0032455Y0146540D01*
X0029793Y0143878D01*
X0028871Y0142955D01*
X0028871Y0132326D01*
X0028569Y0132024D01*
X0017863Y0122217D01*
X0017863Y0125079D01*
X0014107Y0125079D01*
X0014107Y0125866D01*
X0017863Y0125866D01*
X0017863Y0130872D01*
X0017768Y0131227D01*
X0017585Y0131545D01*
X0017325Y0131804D01*
X0017007Y0131988D01*
X0016653Y0132083D01*
X0014107Y0132083D01*
X0014107Y0125866D01*
X0013320Y0125866D01*
X0013320Y0132083D01*
X0010774Y0132083D01*
X0010420Y0131988D01*
X0010102Y0131804D01*
X0009842Y0131545D01*
X0009659Y0131227D01*
X0009564Y0130872D01*
X0009564Y0125866D01*
X0013320Y0125866D01*
X0013320Y0125079D01*
X0014107Y0125079D01*
X0014107Y0118862D01*
X0014201Y0118862D01*
X0003690Y0109234D01*
X0003690Y0142907D01*
X0003690Y0143484D01*
X0003813Y0145358D01*
X0004782Y0148977D01*
X0006656Y0152223D01*
X0009306Y0154872D01*
X0012551Y0156746D01*
X0016170Y0157716D01*
X0018044Y0157839D01*
X0143241Y0157839D01*
X0145115Y0157716D01*
X0148734Y0156746D01*
X0151979Y0154872D01*
X0154629Y0152223D01*
X0156503Y0148977D01*
X0157472Y0145358D01*
X0157595Y0143484D01*
X0157595Y0107930D01*
X0157472Y0108053D01*
X0157431Y0108053D01*
X0145306Y0119075D01*
X0150817Y0119075D01*
X0151509Y0119767D01*
X0151509Y0131178D01*
X0150817Y0131870D01*
X0144327Y0131870D01*
X0143635Y0131178D01*
X0143635Y0130492D01*
X0140036Y0130492D01*
X0138448Y0132080D01*
X0135829Y0132080D01*
X0133976Y0130227D01*
X0133976Y0129375D01*
X0132414Y0130795D01*
X0132414Y0149452D01*
X0125524Y0156341D01*
X0124602Y0157264D01*
X0103122Y0157264D01*
X0102510Y0157294D01*
X0102476Y0157264D01*
X0102431Y0157264D01*
X0101997Y0156830D01*
X0092043Y0147815D01*
X0091891Y0147815D01*
X0091957Y0148065D01*
X0091957Y0150217D01*
X0088202Y0150217D01*
X0088202Y0151004D01*
X0091957Y0151004D01*
X0091957Y0153156D01*
X0091862Y0153510D01*
X0091679Y0153828D01*
X0091420Y0154088D01*
X0091102Y0154271D01*
X0090747Y0154366D01*
X0088202Y0154366D01*
X0088202Y0151004D01*
X0087414Y0151004D01*
X0087414Y0150217D01*
X0083658Y0150217D01*
X0083658Y0148065D01*
X0083725Y0147815D01*
X0083140Y0147815D01*
X0080778Y0145453D01*
X0080498Y0145453D01*
X0081902Y0146856D01*
X0081902Y0150900D01*
X0079042Y0153759D01*
X0074999Y0153759D01*
X0072139Y0150900D01*
X0072139Y0146856D01*
X0073543Y0145453D01*
X0072510Y0145453D01*
X0071587Y0144530D01*
X0071095Y0144038D01*
X0070089Y0145044D01*
X0071902Y0146856D01*
X0071902Y0150900D01*
X0069042Y0153759D01*
X0064999Y0153759D01*
X0062139Y0150900D01*
X0062139Y0147090D01*
X0060502Y0145453D01*
X0060498Y0145453D01*
X0061013Y0145968D02*
X0061017Y0145968D01*
X0061799Y0146754D02*
X0061803Y0146754D01*
X0061902Y0147540D02*
X0062139Y0147540D01*
X0062139Y0148325D02*
X0061902Y0148325D01*
X0061902Y0149111D02*
X0062139Y0149111D01*
X0062139Y0149897D02*
X0061902Y0149897D01*
X0061902Y0150683D02*
X0062139Y0150683D01*
X0062709Y0151469D02*
X0061332Y0151469D01*
X0060546Y0152255D02*
X0063495Y0152255D01*
X0064281Y0153041D02*
X0059760Y0153041D01*
X0054281Y0153041D02*
X0049760Y0153041D01*
X0050546Y0152255D02*
X0053495Y0152255D01*
X0052709Y0151469D02*
X0051332Y0151469D01*
X0051902Y0150683D02*
X0052139Y0150683D01*
X0052139Y0149897D02*
X0051902Y0149897D01*
X0051902Y0149111D02*
X0052139Y0149111D01*
X0052139Y0148325D02*
X0051902Y0148325D01*
X0051902Y0147540D02*
X0052139Y0147540D01*
X0052242Y0146754D02*
X0051799Y0146754D01*
X0051962Y0145968D02*
X0051013Y0145968D01*
X0054265Y0143878D02*
X0061154Y0143878D01*
X0066154Y0148878D01*
X0067020Y0148878D01*
X0070546Y0152255D02*
X0073495Y0152255D01*
X0074281Y0153041D02*
X0069760Y0153041D01*
X0071332Y0151469D02*
X0072709Y0151469D01*
X0072139Y0150683D02*
X0071902Y0150683D01*
X0071902Y0149897D02*
X0072139Y0149897D01*
X0072139Y0149111D02*
X0071902Y0149111D01*
X0071902Y0148325D02*
X0072139Y0148325D01*
X0072139Y0147540D02*
X0071902Y0147540D01*
X0071799Y0146754D02*
X0072242Y0146754D01*
X0073028Y0145968D02*
X0071013Y0145968D01*
X0070227Y0145182D02*
X0072239Y0145182D01*
X0071587Y0144530D02*
X0071587Y0144530D01*
X0071453Y0144396D02*
X0070737Y0144396D01*
X0069028Y0143878D02*
X0071095Y0141811D01*
X0073162Y0143878D01*
X0081430Y0143878D01*
X0083792Y0146240D01*
X0092650Y0146240D01*
X0103083Y0155689D01*
X0123950Y0155689D01*
X0130839Y0148799D01*
X0130839Y0130098D01*
X0156824Y0106476D01*
X0157020Y0036004D01*
X0151706Y0031083D01*
X0137729Y0031083D01*
X0130249Y0023602D01*
X0130249Y0020846D01*
X0127099Y0017697D01*
X0109461Y0017697D01*
X0104265Y0022894D01*
X0099146Y0025374D02*
X0096784Y0027736D01*
X0090485Y0027736D01*
X0084343Y0033878D01*
X0084343Y0050768D01*
X0082375Y0050768D02*
X0082375Y0032697D01*
X0089304Y0025768D01*
X0089304Y0017854D01*
X0094265Y0012894D01*
X0099146Y0010020D02*
X0096784Y0007657D01*
X0089501Y0007657D01*
X0084265Y0012894D01*
X0079203Y0006861D02*
X0068312Y0006861D01*
X0069098Y0006075D02*
X0079854Y0006075D01*
X0078553Y0007647D02*
X0074586Y0007647D01*
X0074553Y0007589D02*
X0074737Y0007907D01*
X0074831Y0008261D01*
X0074831Y0010413D01*
X0071076Y0010413D01*
X0071076Y0007051D01*
X0073621Y0007051D01*
X0073976Y0007146D01*
X0074294Y0007330D01*
X0074553Y0007589D01*
X0074831Y0008433D02*
X0077902Y0008433D01*
X0077248Y0009219D02*
X0074831Y0009219D01*
X0074831Y0010005D02*
X0076832Y0010005D01*
X0076863Y0010791D02*
X0071076Y0010791D01*
X0071076Y0011577D02*
X0070288Y0011577D01*
X0070288Y0012363D02*
X0071076Y0012363D01*
X0071076Y0013148D02*
X0070288Y0013148D01*
X0070288Y0013934D02*
X0071076Y0013934D01*
X0074605Y0013934D02*
X0076863Y0013934D01*
X0076863Y0013148D02*
X0074831Y0013148D01*
X0074831Y0012363D02*
X0076863Y0012363D01*
X0076863Y0011577D02*
X0074831Y0011577D01*
X0078438Y0010256D02*
X0078438Y0050768D01*
X0076469Y0050768D02*
X0076469Y0046161D01*
X0075288Y0042421D01*
X0068831Y0036555D01*
X0068831Y0036004D01*
X0064894Y0039154D02*
X0064894Y0047421D01*
X0067808Y0046157D02*
X0068595Y0046157D01*
X0068595Y0045371D02*
X0067808Y0045371D01*
X0067808Y0044585D02*
X0068595Y0044585D01*
X0068595Y0043799D02*
X0067808Y0043799D01*
X0067808Y0043013D02*
X0068595Y0043013D01*
X0071170Y0043013D02*
X0072532Y0043013D01*
X0072532Y0043799D02*
X0071170Y0043799D01*
X0071170Y0044585D02*
X0072532Y0044585D01*
X0072630Y0045371D02*
X0071047Y0045371D01*
X0074501Y0051658D02*
X0074501Y0051658D01*
X0074501Y0052444D02*
X0074501Y0052444D01*
X0074501Y0053230D02*
X0074501Y0053230D01*
X0074501Y0054016D02*
X0074501Y0054016D01*
X0074501Y0054802D02*
X0074501Y0054802D01*
X0068202Y0057945D02*
X0106391Y0057945D01*
X0106391Y0058731D02*
X0068202Y0058731D01*
X0068202Y0059517D02*
X0106391Y0059517D01*
X0106391Y0060303D02*
X0068202Y0060303D01*
X0068202Y0061089D02*
X0106391Y0061089D01*
X0106391Y0061875D02*
X0068202Y0061875D01*
X0068202Y0062661D02*
X0106391Y0062661D01*
X0106391Y0063447D02*
X0068202Y0063447D01*
X0068202Y0064233D02*
X0106391Y0064233D01*
X0106391Y0065019D02*
X0068202Y0065019D01*
X0068202Y0065805D02*
X0106391Y0065805D01*
X0106391Y0066591D02*
X0068414Y0066591D01*
X0068414Y0067376D02*
X0106391Y0067376D01*
X0106391Y0068162D02*
X0068328Y0068162D01*
X0068202Y0068948D02*
X0106391Y0068948D01*
X0106391Y0069734D02*
X0068202Y0069734D01*
X0068202Y0070520D02*
X0106391Y0070520D01*
X0106391Y0071306D02*
X0068202Y0071306D01*
X0068202Y0072092D02*
X0106391Y0072092D01*
X0106391Y0072878D02*
X0068202Y0072878D01*
X0068202Y0073664D02*
X0106391Y0073664D01*
X0106391Y0074450D02*
X0068202Y0074450D01*
X0068202Y0075236D02*
X0106391Y0075236D01*
X0106391Y0076021D02*
X0068202Y0076021D01*
X0068202Y0076807D02*
X0106391Y0076807D01*
X0106391Y0077593D02*
X0068202Y0077593D01*
X0068202Y0078379D02*
X0106391Y0078379D01*
X0106391Y0079165D02*
X0068202Y0079165D01*
X0068202Y0079951D02*
X0106391Y0079951D01*
X0106391Y0080737D02*
X0068202Y0080737D01*
X0068202Y0081523D02*
X0106391Y0081523D01*
X0106391Y0082309D02*
X0068202Y0082309D01*
X0068202Y0083095D02*
X0106391Y0083095D01*
X0106391Y0083881D02*
X0068202Y0083881D01*
X0068202Y0084667D02*
X0106391Y0084667D01*
X0106391Y0085452D02*
X0068202Y0085452D01*
X0068202Y0086238D02*
X0106178Y0086238D01*
X0106178Y0087024D02*
X0068202Y0087024D01*
X0068202Y0087810D02*
X0106254Y0087810D01*
X0106391Y0088596D02*
X0068202Y0088596D01*
X0068202Y0089382D02*
X0106391Y0089382D01*
X0106391Y0090168D02*
X0068202Y0090168D01*
X0067520Y0090954D02*
X0107072Y0090954D01*
X0109219Y0091740D02*
X0066307Y0091740D01*
X0065453Y0092526D02*
X0109269Y0092526D01*
X0109116Y0093312D02*
X0103794Y0093312D01*
X0104265Y0094097D02*
X0108962Y0094097D01*
X0108809Y0094883D02*
X0104265Y0094883D01*
X0104265Y0095669D02*
X0107456Y0095669D01*
X0106824Y0096455D02*
X0104265Y0096455D01*
X0104265Y0097241D02*
X0106824Y0097241D01*
X0106824Y0098027D02*
X0104684Y0098027D01*
X0105189Y0098813D02*
X0106824Y0098813D01*
X0106824Y0099599D02*
X0105913Y0099599D01*
X0106699Y0100385D02*
X0106824Y0100385D01*
X0104068Y0099980D02*
X0108989Y0104902D01*
X0120800Y0105886D01*
X0125918Y0102539D01*
X0125918Y0097894D01*
X0122650Y0095413D01*
X0119536Y0094097D02*
X0112171Y0094097D01*
X0112325Y0093312D02*
X0119971Y0093312D01*
X0119784Y0093498D02*
X0120218Y0093064D01*
X0119859Y0092704D01*
X0119466Y0092116D01*
X0119195Y0091462D01*
X0119057Y0090767D01*
X0119057Y0090520D01*
X0122544Y0090520D01*
X0122544Y0090307D01*
X0119057Y0090307D01*
X0119057Y0090059D01*
X0119195Y0089365D01*
X0119466Y0088711D01*
X0119859Y0088123D01*
X0120218Y0087763D01*
X0119784Y0087329D01*
X0119441Y0086501D01*
X0118787Y0086398D01*
X0114871Y0086398D01*
X0114871Y0086791D01*
X0110525Y0086791D01*
X0110525Y0086791D01*
X0114871Y0086791D01*
X0114871Y0087526D01*
X0114776Y0087880D01*
X0114658Y0088084D01*
X0114658Y0090273D01*
X0113966Y0090965D01*
X0112306Y0090965D01*
X0112406Y0091948D01*
X0112549Y0092162D01*
X0112469Y0092573D01*
X0112511Y0092991D01*
X0112349Y0093190D01*
X0111838Y0095805D01*
X0112335Y0096302D01*
X0112335Y0101113D01*
X0112546Y0101530D01*
X0112850Y0101752D01*
X0113712Y0101752D01*
X0113698Y0101699D01*
X0113698Y0099547D01*
X0116272Y0099547D01*
X0116272Y0098760D01*
X0113698Y0098760D01*
X0113698Y0096608D01*
X0113793Y0096253D01*
X0113976Y0095936D01*
X0114236Y0095676D01*
X0114553Y0095493D01*
X0114908Y0095398D01*
X0116272Y0095398D01*
X0116272Y0098760D01*
X0117060Y0098760D01*
X0117060Y0099547D01*
X0119349Y0099547D01*
X0119784Y0098498D01*
X0120369Y0097913D01*
X0119784Y0097329D01*
X0119635Y0096968D01*
X0119635Y0098760D01*
X0117060Y0098760D01*
X0117060Y0095398D01*
X0118424Y0095398D01*
X0118779Y0095493D01*
X0119097Y0095676D01*
X0119269Y0095849D01*
X0119269Y0094741D01*
X0119784Y0093498D01*
X0119740Y0092526D02*
X0112478Y0092526D01*
X0112385Y0091740D02*
X0119310Y0091740D01*
X0119094Y0090954D02*
X0113977Y0090954D01*
X0114658Y0090168D02*
X0119057Y0090168D01*
X0119191Y0089382D02*
X0114658Y0089382D01*
X0114658Y0088596D02*
X0119543Y0088596D01*
X0120209Y0087972D02*
X0122650Y0090413D01*
X0120209Y0087972D02*
X0115682Y0087972D01*
X0115682Y0096201D01*
X0116666Y0099154D01*
X0116272Y0098813D02*
X0112335Y0098813D01*
X0112335Y0099599D02*
X0113698Y0099599D01*
X0113698Y0100385D02*
X0112335Y0100385D01*
X0112364Y0101171D02*
X0113698Y0101171D01*
X0112335Y0103327D02*
X0111312Y0102579D01*
X0109580Y0099154D01*
X0110879Y0092500D01*
X0110524Y0088996D01*
X0110524Y0086791D02*
X0114501Y0086791D01*
X0115682Y0087972D01*
X0114795Y0087810D02*
X0120171Y0087810D01*
X0119658Y0087024D02*
X0114871Y0087024D01*
X0118910Y0084823D02*
X0122650Y0085413D01*
X0118910Y0084823D02*
X0110524Y0084823D01*
X0110524Y0082854D02*
X0117257Y0082854D01*
X0119225Y0080492D01*
X0119225Y0078130D01*
X0120997Y0076752D01*
X0123950Y0076752D01*
X0126509Y0079114D01*
X0126509Y0093878D01*
X0127493Y0094862D01*
X0127493Y0104705D01*
X0125524Y0107461D01*
X0129068Y0109429D02*
X0125721Y0112382D01*
X0124146Y0112972D01*
X0123162Y0116516D02*
X0116863Y0110610D01*
X0111548Y0110610D01*
X0103674Y0102343D01*
X0092847Y0102343D01*
X0083398Y0111201D01*
X0083398Y0129114D01*
X0087335Y0133248D01*
X0090879Y0133248D01*
X0092257Y0134823D01*
X0092257Y0141713D01*
X0091076Y0142894D01*
X0083910Y0142815D01*
X0077020Y0138878D01*
X0073245Y0135751D02*
X0073093Y0135751D01*
X0073156Y0135840D02*
X0074999Y0133997D01*
X0079042Y0133997D01*
X0081902Y0136856D01*
X0081902Y0139853D01*
X0083871Y0140979D01*
X0083871Y0136582D01*
X0082333Y0134764D01*
X0076515Y0132461D01*
X0070980Y0132461D01*
X0070288Y0131769D01*
X0070288Y0127641D01*
X0070980Y0126949D01*
X0076683Y0126949D01*
X0076693Y0126959D01*
X0076693Y0125364D01*
X0076683Y0125374D01*
X0070980Y0125374D01*
X0070288Y0124682D01*
X0070288Y0124582D01*
X0070248Y0124731D01*
X0070065Y0125049D01*
X0069805Y0125308D01*
X0069488Y0125492D01*
X0069133Y0125587D01*
X0066981Y0125587D01*
X0066981Y0123012D01*
X0066194Y0123012D01*
X0066194Y0125398D01*
X0066477Y0125567D01*
X0066836Y0125631D01*
X0067015Y0125887D01*
X0067284Y0126047D01*
X0067374Y0126401D01*
X0067583Y0126700D01*
X0067539Y0126949D01*
X0069439Y0126949D01*
X0070131Y0127641D01*
X0070131Y0131769D01*
X0069682Y0132217D01*
X0069951Y0132264D01*
X0070468Y0132264D01*
X0070576Y0132372D01*
X0070726Y0132398D01*
X0071025Y0132820D01*
X0071391Y0133186D01*
X0071391Y0133339D01*
X0073156Y0135840D01*
X0072538Y0134965D02*
X0074031Y0134965D01*
X0074816Y0134179D02*
X0071984Y0134179D01*
X0071429Y0133393D02*
X0078871Y0133393D01*
X0079224Y0134179D02*
X0080856Y0134179D01*
X0080010Y0134965D02*
X0082503Y0134965D01*
X0083168Y0135751D02*
X0080796Y0135751D01*
X0081582Y0136537D02*
X0083832Y0136537D01*
X0083871Y0137323D02*
X0081902Y0137323D01*
X0081902Y0138109D02*
X0083871Y0138109D01*
X0083871Y0138895D02*
X0081902Y0138895D01*
X0081902Y0139680D02*
X0083871Y0139680D01*
X0083871Y0140466D02*
X0082974Y0140466D01*
X0087808Y0138799D02*
X0083280Y0133445D01*
X0073831Y0129705D01*
X0070288Y0129464D02*
X0070131Y0129464D01*
X0070131Y0130249D02*
X0070288Y0130249D01*
X0070288Y0131035D02*
X0070131Y0131035D01*
X0070078Y0131821D02*
X0070341Y0131821D01*
X0070874Y0132607D02*
X0076885Y0132607D01*
X0072178Y0137185D02*
X0069816Y0133839D01*
X0062926Y0133839D01*
X0060170Y0131870D01*
X0055249Y0131870D01*
X0050721Y0127343D01*
X0050721Y0114547D01*
X0055052Y0110610D01*
X0069619Y0110610D01*
X0078477Y0102539D01*
X0078674Y0097461D01*
X0078438Y0097224D01*
X0076469Y0097224D02*
X0076312Y0097382D01*
X0076312Y0102343D01*
X0069028Y0109035D01*
X0054461Y0109035D01*
X0048950Y0114154D01*
X0048950Y0128917D01*
X0053871Y0133839D01*
X0059580Y0133839D01*
X0060682Y0134547D01*
X0067020Y0138878D01*
X0071095Y0141811D02*
X0072178Y0140728D01*
X0072178Y0137185D01*
X0066587Y0129705D02*
X0065918Y0127067D01*
X0057060Y0125492D01*
X0057139Y0125295D01*
X0052493Y0123996D01*
X0052493Y0115335D01*
X0055839Y0112185D01*
X0070209Y0112185D01*
X0080406Y0103169D01*
X0080406Y0097224D01*
X0082375Y0097224D02*
X0082375Y0103563D01*
X0071784Y0113169D01*
X0071076Y0115138D01*
X0070800Y0117382D01*
X0068300Y0115100D02*
X0068885Y0114516D01*
X0069756Y0114155D01*
X0069898Y0113760D01*
X0056464Y0113760D01*
X0056385Y0113834D01*
X0056848Y0113926D01*
X0057502Y0114197D01*
X0058091Y0114590D01*
X0058300Y0114800D01*
X0058509Y0114590D01*
X0059098Y0114197D01*
X0059752Y0113926D01*
X0060446Y0113788D01*
X0060694Y0113788D01*
X0060694Y0117276D01*
X0055906Y0117276D01*
X0055906Y0117488D01*
X0059394Y0117488D01*
X0060694Y0117488D01*
X0060694Y0120976D01*
X0060446Y0120976D01*
X0059752Y0120837D01*
X0059098Y0120567D01*
X0058509Y0120173D01*
X0058300Y0119964D01*
X0058091Y0120173D01*
X0057502Y0120567D01*
X0057395Y0120611D01*
X0058031Y0120611D01*
X0059825Y0121354D01*
X0061198Y0122727D01*
X0061941Y0124521D01*
X0061941Y0124760D01*
X0063058Y0124959D01*
X0062926Y0124731D01*
X0062831Y0124376D01*
X0062831Y0123012D01*
X0066194Y0123012D01*
X0066194Y0122224D01*
X0062831Y0122224D01*
X0062831Y0120860D01*
X0062926Y0120505D01*
X0063110Y0120188D01*
X0063369Y0119928D01*
X0063493Y0119857D01*
X0063450Y0119814D01*
X0063091Y0120173D01*
X0062502Y0120567D01*
X0061848Y0120837D01*
X0061154Y0120976D01*
X0060906Y0120976D01*
X0060906Y0117488D01*
X0060694Y0117488D01*
X0060694Y0117276D01*
X0060906Y0117276D01*
X0060906Y0113788D01*
X0061154Y0113788D01*
X0061848Y0113926D01*
X0062502Y0114197D01*
X0063091Y0114590D01*
X0063450Y0114950D01*
X0063885Y0114516D01*
X0065127Y0114001D01*
X0066473Y0114001D01*
X0067715Y0114516D01*
X0068300Y0115100D01*
X0067731Y0114531D02*
X0068869Y0114531D01*
X0063869Y0114531D02*
X0063002Y0114531D01*
X0060906Y0114531D02*
X0060694Y0114531D01*
X0060694Y0115317D02*
X0060906Y0115317D01*
X0060906Y0116103D02*
X0060694Y0116103D01*
X0060694Y0116889D02*
X0060906Y0116889D01*
X0060800Y0117382D02*
X0063083Y0120650D01*
X0066587Y0122618D01*
X0066194Y0122390D02*
X0060861Y0122390D01*
X0061384Y0123176D02*
X0062831Y0123176D01*
X0062831Y0123962D02*
X0061709Y0123962D01*
X0061941Y0124748D02*
X0062936Y0124748D01*
X0062831Y0121604D02*
X0060075Y0121604D01*
X0059706Y0120819D02*
X0058532Y0120819D01*
X0058368Y0120033D02*
X0058232Y0120033D01*
X0060694Y0120033D02*
X0060906Y0120033D01*
X0060906Y0120819D02*
X0060694Y0120819D01*
X0061894Y0120819D02*
X0062843Y0120819D01*
X0063232Y0120033D02*
X0063265Y0120033D01*
X0060906Y0119247D02*
X0060694Y0119247D01*
X0060694Y0118461D02*
X0060906Y0118461D01*
X0060906Y0117675D02*
X0060694Y0117675D01*
X0058598Y0114531D02*
X0058002Y0114531D01*
X0057021Y0106122D02*
X0059957Y0106122D01*
X0059957Y0106004D01*
X0063320Y0106004D01*
X0063320Y0105217D01*
X0060383Y0105217D01*
X0060383Y0105335D01*
X0057021Y0105335D01*
X0057021Y0106122D01*
X0057021Y0105886D02*
X0063320Y0105886D01*
X0063713Y0105610D02*
X0070209Y0105610D01*
X0069225Y0104035D01*
X0069225Y0102736D01*
X0070832Y0101171D02*
X0066674Y0101171D01*
X0066565Y0101280D02*
X0060862Y0101280D01*
X0060170Y0100588D01*
X0060170Y0100217D01*
X0060170Y0100706D01*
X0059478Y0101398D01*
X0056308Y0101398D01*
X0055116Y0102760D01*
X0056233Y0102760D01*
X0056233Y0105335D01*
X0057020Y0105335D01*
X0057020Y0102760D01*
X0059172Y0102760D01*
X0059527Y0102855D01*
X0059845Y0103038D01*
X0060104Y0103298D01*
X0060136Y0103353D01*
X0060236Y0103180D01*
X0060495Y0102920D01*
X0060813Y0102737D01*
X0061168Y0102642D01*
X0063320Y0102642D01*
X0063320Y0105216D01*
X0064107Y0105216D01*
X0064107Y0102642D01*
X0066259Y0102642D01*
X0066614Y0102737D01*
X0066931Y0102920D01*
X0067191Y0103180D01*
X0067374Y0103497D01*
X0067469Y0103852D01*
X0067469Y0105217D01*
X0064107Y0105217D01*
X0064107Y0106004D01*
X0067469Y0106004D01*
X0067469Y0107369D01*
X0067445Y0107461D01*
X0068415Y0107461D01*
X0074737Y0101651D01*
X0074737Y0101571D01*
X0074501Y0101571D01*
X0074501Y0097225D01*
X0074501Y0097225D01*
X0074501Y0101571D01*
X0073766Y0101571D01*
X0073412Y0101476D01*
X0073208Y0101358D01*
X0071019Y0101358D01*
X0070328Y0100666D01*
X0070328Y0100098D01*
X0067257Y0100098D01*
X0067257Y0100588D01*
X0066565Y0101280D01*
X0067257Y0100385D02*
X0070328Y0100385D01*
X0070997Y0098524D02*
X0072296Y0097224D01*
X0070997Y0098524D02*
X0063713Y0098524D01*
X0063989Y0098642D01*
X0056627Y0098642D01*
X0052493Y0103366D01*
X0049146Y0111398D01*
X0041863Y0119075D01*
X0041863Y0120059D01*
X0045406Y0123996D01*
X0042244Y0123962D02*
X0041300Y0123962D01*
X0041137Y0123799D02*
X0041547Y0124209D01*
X0042244Y0124788D01*
X0042244Y0122837D01*
X0041968Y0122530D01*
X0041486Y0123012D01*
X0037358Y0123012D01*
X0036666Y0122320D01*
X0036666Y0116617D01*
X0037358Y0115925D01*
X0041486Y0115925D01*
X0042099Y0116538D01*
X0045840Y0112594D01*
X0045761Y0112594D01*
X0045761Y0110020D01*
X0044973Y0110020D01*
X0044973Y0112594D01*
X0042821Y0112594D01*
X0042690Y0112559D01*
X0042690Y0112950D01*
X0041998Y0113642D01*
X0036689Y0113642D01*
X0035997Y0112950D01*
X0035997Y0105239D01*
X0033635Y0107601D01*
X0033635Y0112950D01*
X0032943Y0113642D01*
X0027634Y0113642D01*
X0026942Y0112950D01*
X0026942Y0104491D01*
X0027634Y0103799D01*
X0032943Y0103799D01*
X0032963Y0103819D01*
X0034731Y0102051D01*
X0035130Y0101599D01*
X0035186Y0101595D01*
X0035226Y0101555D01*
X0035830Y0101555D01*
X0041824Y0101182D01*
X0041824Y0100475D01*
X0041942Y0100357D01*
X0041942Y0099075D01*
X0036689Y0099075D01*
X0035997Y0098383D01*
X0035997Y0089924D01*
X0036689Y0089232D01*
X0041817Y0089232D01*
X0041824Y0089206D01*
X0041978Y0088940D01*
X0041976Y0088939D01*
X0041880Y0089035D01*
X0036571Y0089035D01*
X0035879Y0088344D01*
X0035879Y0079885D01*
X0036059Y0079705D01*
X0035035Y0079705D01*
X0033517Y0081223D01*
X0033517Y0088344D01*
X0032825Y0089035D01*
X0027515Y0089035D01*
X0026824Y0088344D01*
X0026824Y0079885D01*
X0027515Y0079193D01*
X0031093Y0079193D01*
X0033730Y0076555D01*
X0041509Y0076555D01*
X0041509Y0074468D01*
X0036571Y0074468D01*
X0035879Y0073777D01*
X0035879Y0065318D01*
X0036571Y0064626D01*
X0041880Y0064626D01*
X0041930Y0064676D01*
X0042152Y0064548D01*
X0042506Y0064453D01*
X0044658Y0064453D01*
X0044658Y0067028D01*
X0045446Y0067028D01*
X0045446Y0067815D01*
X0048808Y0067815D01*
X0048808Y0069180D01*
X0048713Y0069534D01*
X0048529Y0069852D01*
X0048270Y0070111D01*
X0047952Y0070295D01*
X0047598Y0070390D01*
X0045446Y0070390D01*
X0045446Y0067815D01*
X0044658Y0067815D01*
X0044658Y0070390D01*
X0042924Y0070390D01*
X0044395Y0071752D01*
X0047903Y0071752D01*
X0048595Y0072444D01*
X0048595Y0074512D01*
X0048750Y0074468D01*
X0048929Y0074567D01*
X0048826Y0074242D01*
X0048950Y0074005D01*
X0048950Y0064350D01*
X0026480Y0064350D01*
X0025328Y0065293D01*
X0025328Y0088231D01*
X0025356Y0088846D01*
X0025328Y0088877D01*
X0025328Y0088920D01*
X0024892Y0089355D01*
X0017650Y0097307D01*
X0017650Y0101001D01*
X0019484Y0102835D01*
X0020406Y0103757D01*
X0020406Y0108186D01*
X0029580Y0117360D01*
X0029580Y0116617D01*
X0030271Y0115925D01*
X0034399Y0115925D01*
X0035091Y0116617D01*
X0035091Y0122320D01*
X0034399Y0123012D01*
X0030645Y0123012D01*
X0031470Y0123799D01*
X0040412Y0123799D01*
X0040989Y0123746D01*
X0041054Y0123799D01*
X0041137Y0123799D01*
X0042244Y0123176D02*
X0030817Y0123176D01*
X0030839Y0125374D02*
X0040485Y0125374D01*
X0052099Y0135020D01*
X0052099Y0141713D01*
X0054265Y0143878D01*
X0057020Y0138878D02*
X0059698Y0138878D01*
X0064698Y0143878D01*
X0069028Y0143878D01*
X0079760Y0153041D02*
X0083658Y0153041D01*
X0083658Y0153156D02*
X0083658Y0151004D01*
X0087414Y0151004D01*
X0087414Y0154366D01*
X0084868Y0154366D01*
X0084514Y0154271D01*
X0084196Y0154088D01*
X0083937Y0153828D01*
X0083753Y0153510D01*
X0083658Y0153156D01*
X0083936Y0153827D02*
X0008260Y0153827D01*
X0007474Y0153041D02*
X0034281Y0153041D01*
X0033495Y0152255D02*
X0006688Y0152255D01*
X0006221Y0151469D02*
X0014846Y0151469D01*
X0016042Y0151965D02*
X0013070Y0150733D01*
X0010795Y0148459D01*
X0009564Y0145486D01*
X0009564Y0142269D01*
X0010795Y0139297D01*
X0013070Y0137022D01*
X0016042Y0135791D01*
X0019259Y0135791D01*
X0022231Y0137022D01*
X0024506Y0139297D01*
X0025737Y0142269D01*
X0025737Y0145486D01*
X0024506Y0148459D01*
X0022231Y0150733D01*
X0019259Y0151965D01*
X0016042Y0151965D01*
X0013019Y0150683D02*
X0005767Y0150683D01*
X0005313Y0149897D02*
X0012234Y0149897D01*
X0011448Y0149111D02*
X0004860Y0149111D01*
X0004608Y0148325D02*
X0010740Y0148325D01*
X0010414Y0147540D02*
X0004397Y0147540D01*
X0004187Y0146754D02*
X0010089Y0146754D01*
X0009763Y0145968D02*
X0003976Y0145968D01*
X0003801Y0145182D02*
X0009564Y0145182D01*
X0009564Y0144396D02*
X0003749Y0144396D01*
X0003698Y0143610D02*
X0009564Y0143610D01*
X0009564Y0142824D02*
X0003690Y0142824D01*
X0003690Y0142038D02*
X0009660Y0142038D01*
X0009985Y0141252D02*
X0003690Y0141252D01*
X0003690Y0140466D02*
X0010311Y0140466D01*
X0010636Y0139680D02*
X0003690Y0139680D01*
X0003690Y0138895D02*
X0011198Y0138895D01*
X0011984Y0138109D02*
X0003690Y0138109D01*
X0003690Y0137323D02*
X0012769Y0137323D01*
X0014242Y0136537D02*
X0003690Y0136537D01*
X0003690Y0135751D02*
X0028871Y0135751D01*
X0028871Y0136537D02*
X0021059Y0136537D01*
X0022531Y0137323D02*
X0028871Y0137323D01*
X0028871Y0138109D02*
X0023317Y0138109D01*
X0024103Y0138895D02*
X0028871Y0138895D01*
X0028871Y0139680D02*
X0024665Y0139680D01*
X0024990Y0140466D02*
X0028871Y0140466D01*
X0028871Y0141252D02*
X0025316Y0141252D01*
X0025641Y0142038D02*
X0028871Y0142038D01*
X0028871Y0142824D02*
X0025737Y0142824D01*
X0025737Y0143610D02*
X0029525Y0143610D01*
X0030311Y0144396D02*
X0025737Y0144396D01*
X0025737Y0145182D02*
X0031097Y0145182D01*
X0031883Y0145968D02*
X0025538Y0145968D01*
X0025212Y0146754D02*
X0032242Y0146754D01*
X0032139Y0147540D02*
X0024887Y0147540D01*
X0024561Y0148325D02*
X0032139Y0148325D01*
X0032139Y0149111D02*
X0023853Y0149111D01*
X0023067Y0149897D02*
X0032139Y0149897D01*
X0032139Y0150683D02*
X0022281Y0150683D01*
X0020455Y0151469D02*
X0032709Y0151469D01*
X0037020Y0148878D02*
X0030446Y0142303D01*
X0030446Y0131673D01*
X0029658Y0130886D01*
X0003871Y0107264D01*
X0003871Y0088760D01*
X0004855Y0086791D01*
X0005052Y0035020D01*
X0007611Y0029311D01*
X0005027Y0031224D02*
X0003690Y0031224D01*
X0003690Y0030439D02*
X0004449Y0030439D01*
X0004449Y0029653D02*
X0003690Y0029653D01*
X0003690Y0028867D02*
X0004449Y0028867D01*
X0004449Y0028081D02*
X0003690Y0028081D01*
X0003690Y0027295D02*
X0005155Y0027295D01*
X0005941Y0026509D02*
X0003690Y0026509D01*
X0003690Y0032010D02*
X0004675Y0032010D01*
X0004323Y0032796D02*
X0003690Y0032796D01*
X0003690Y0033582D02*
X0003971Y0033582D01*
X0007808Y0033642D02*
X0010957Y0030492D01*
X0024934Y0030492D01*
X0031233Y0024193D01*
X0049343Y0024193D01*
X0064894Y0039154D01*
X0066942Y0030571D02*
X0067729Y0027028D01*
X0070682Y0022618D01*
X0066666Y0018484D02*
X0060761Y0024980D01*
X0060367Y0025571D01*
X0062105Y0021008D02*
X0062244Y0021008D01*
X0060765Y0016292D02*
X0076863Y0016292D01*
X0076863Y0017078D02*
X0075361Y0017078D01*
X0076147Y0017864D02*
X0076863Y0017864D01*
X0078438Y0010256D02*
X0082217Y0005689D01*
X0097847Y0005689D01*
X0104265Y0012894D01*
X0099146Y0010020D02*
X0099146Y0025374D01*
X0092847Y0031673D02*
X0119225Y0031673D01*
X0124737Y0037185D01*
X0125013Y0039547D01*
X0138635Y0053169D01*
X0134186Y0056083D02*
X0136154Y0058051D01*
X0150328Y0058051D01*
X0153477Y0061201D01*
X0153477Y0075768D01*
X0151115Y0078130D01*
X0143674Y0078130D01*
X0138635Y0083169D01*
X0140879Y0078130D02*
X0136154Y0078130D01*
X0133595Y0075571D01*
X0133792Y0068287D01*
X0131627Y0066122D01*
X0131627Y0062579D01*
X0129068Y0059626D01*
X0122178Y0059626D01*
X0118635Y0063169D01*
X0110524Y0063169D01*
X0110524Y0065138D02*
X0119225Y0065138D01*
X0121391Y0062972D01*
X0127099Y0062972D01*
X0128871Y0068091D02*
X0128871Y0073012D01*
X0133595Y0077736D01*
X0133595Y0085906D01*
X0147572Y0099291D01*
X0155052Y0104902D02*
X0131824Y0124390D01*
X0128871Y0127343D01*
X0128871Y0146831D01*
X0121784Y0153917D01*
X0104265Y0153917D01*
X0095013Y0144075D01*
X0092607Y0148325D02*
X0091957Y0148325D01*
X0091957Y0149111D02*
X0093475Y0149111D01*
X0094343Y0149897D02*
X0091957Y0149897D01*
X0091957Y0151469D02*
X0096078Y0151469D01*
X0095210Y0150683D02*
X0088202Y0150683D01*
X0087808Y0150610D02*
X0089737Y0152539D01*
X0094422Y0152539D01*
X0091957Y0152255D02*
X0096946Y0152255D01*
X0097814Y0153041D02*
X0091957Y0153041D01*
X0091680Y0153827D02*
X0098681Y0153827D01*
X0099549Y0154613D02*
X0009046Y0154613D01*
X0010217Y0155399D02*
X0100417Y0155399D01*
X0101285Y0156185D02*
X0011579Y0156185D01*
X0013389Y0156971D02*
X0102138Y0156971D01*
X0110459Y0152343D02*
X0113281Y0152343D01*
X0113135Y0152196D01*
X0112664Y0151548D01*
X0112300Y0150833D01*
X0112052Y0150071D01*
X0111927Y0149279D01*
X0111927Y0149272D01*
X0116627Y0149272D01*
X0116627Y0148484D01*
X0111927Y0148484D01*
X0111927Y0148477D01*
X0112052Y0147685D01*
X0112300Y0146923D01*
X0112664Y0146208D01*
X0113135Y0145560D01*
X0113702Y0144993D01*
X0114351Y0144521D01*
X0114533Y0144428D01*
X0114079Y0144427D01*
X0113989Y0144336D01*
X0113863Y0144318D01*
X0113541Y0143884D01*
X0113160Y0143501D01*
X0113160Y0143374D01*
X0112774Y0142854D01*
X0110035Y0142854D01*
X0109343Y0142162D01*
X0109343Y0136904D01*
X0107981Y0136904D01*
X0107981Y0138917D01*
X0105406Y0138917D01*
X0105406Y0135555D01*
X0105810Y0135555D01*
X0105810Y0129733D01*
X0106502Y0129041D01*
X0112980Y0129041D01*
X0113672Y0129733D01*
X0113672Y0130589D01*
X0113945Y0130316D01*
X0114093Y0129923D01*
X0114461Y0129757D01*
X0114711Y0129441D01*
X0114868Y0129422D01*
X0114979Y0129311D01*
X0115449Y0129311D01*
X0115877Y0129118D01*
X0116254Y0129260D01*
X0116655Y0129213D01*
X0116778Y0129311D01*
X0116936Y0129311D01*
X0117268Y0129643D01*
X0117708Y0129809D01*
X0117874Y0130177D01*
X0118190Y0130427D01*
X0118208Y0130583D01*
X0118320Y0130695D01*
X0118320Y0131165D01*
X0118513Y0131593D01*
X0118371Y0131970D01*
X0118382Y0132066D01*
X0118450Y0132135D01*
X0118450Y0132652D01*
X0118787Y0135531D01*
X0118888Y0135531D01*
X0119580Y0136223D01*
X0119580Y0141297D01*
X0121154Y0141303D01*
X0121154Y0136944D01*
X0119791Y0128878D01*
X0115547Y0128878D01*
X0114855Y0128186D01*
X0114855Y0121696D01*
X0115547Y0121004D01*
X0120462Y0121004D01*
X0121154Y0121696D01*
X0121154Y0122911D01*
X0121518Y0122951D01*
X0122158Y0122842D01*
X0122456Y0123054D01*
X0122818Y0123093D01*
X0123224Y0123600D01*
X0123753Y0123976D01*
X0123814Y0124336D01*
X0124042Y0124620D01*
X0123971Y0125265D01*
X0125524Y0134452D01*
X0125524Y0125993D01*
X0125502Y0125369D01*
X0125524Y0125345D01*
X0125524Y0125312D01*
X0125966Y0124871D01*
X0136154Y0113928D01*
X0136154Y0095304D01*
X0133637Y0093598D01*
X0133595Y0094135D01*
X0133595Y0094727D01*
X0133546Y0094776D01*
X0133541Y0094846D01*
X0133091Y0095231D01*
X0132217Y0096105D01*
X0132217Y0112252D01*
X0132303Y0112766D01*
X0132217Y0112887D01*
X0132217Y0113034D01*
X0131848Y0113403D01*
X0129265Y0117020D01*
X0129265Y0117168D01*
X0128895Y0117537D01*
X0128592Y0117962D01*
X0128446Y0117986D01*
X0128342Y0118091D01*
X0127820Y0118091D01*
X0127305Y0118176D01*
X0127185Y0118091D01*
X0123188Y0118091D01*
X0122561Y0118111D01*
X0122539Y0118091D01*
X0122510Y0118091D01*
X0122067Y0117647D01*
X0117414Y0113286D01*
X0117414Y0119525D01*
X0116722Y0120217D01*
X0111807Y0120217D01*
X0111115Y0119525D01*
X0111115Y0117484D01*
X0110889Y0117709D01*
X0108270Y0117709D01*
X0106782Y0116222D01*
X0106823Y0116293D01*
X0106918Y0116647D01*
X0106918Y0118012D01*
X0103556Y0118012D01*
X0103556Y0118799D01*
X0106918Y0118799D01*
X0106918Y0120164D01*
X0106823Y0120518D01*
X0106640Y0120836D01*
X0106380Y0121096D01*
X0106062Y0121279D01*
X0105708Y0121374D01*
X0103556Y0121374D01*
X0103556Y0118799D01*
X0102769Y0118799D01*
X0102769Y0121374D01*
X0100617Y0121374D01*
X0100262Y0121279D01*
X0099944Y0121096D01*
X0099685Y0120836D01*
X0099501Y0120518D01*
X0099406Y0120164D01*
X0099406Y0118799D01*
X0102768Y0118799D01*
X0102768Y0118012D01*
X0099406Y0118012D01*
X0099406Y0116647D01*
X0099501Y0116293D01*
X0099670Y0116000D01*
X0099485Y0115814D01*
X0099068Y0115896D01*
X0099068Y0115919D01*
X0098674Y0116313D01*
X0098674Y0119761D01*
X0097982Y0120453D01*
X0093067Y0120453D01*
X0092375Y0119761D01*
X0092375Y0113271D01*
X0092579Y0113067D01*
X0091784Y0113067D01*
X0091784Y0109705D01*
X0090997Y0109705D01*
X0090997Y0112773D01*
X0091128Y0112904D01*
X0091311Y0113222D01*
X0091406Y0113576D01*
X0091406Y0116122D01*
X0088438Y0116122D01*
X0088438Y0116909D01*
X0091406Y0116909D01*
X0091406Y0119455D01*
X0091311Y0119810D01*
X0091128Y0120127D01*
X0090868Y0120387D01*
X0090551Y0120570D01*
X0090196Y0120665D01*
X0088438Y0120665D01*
X0088438Y0116909D01*
X0087650Y0116909D01*
X0087650Y0120665D01*
X0085892Y0120665D01*
X0085538Y0120570D01*
X0085220Y0120387D01*
X0084973Y0120140D01*
X0084973Y0128484D01*
X0088010Y0131673D01*
X0090287Y0131673D01*
X0090333Y0131633D01*
X0090931Y0131673D01*
X0091531Y0131673D01*
X0091574Y0131716D01*
X0091634Y0131720D01*
X0092029Y0132172D01*
X0092454Y0132596D01*
X0092454Y0132656D01*
X0092810Y0133064D01*
X0092810Y0130407D01*
X0092161Y0129114D01*
X0089327Y0129114D01*
X0088635Y0128422D01*
X0088635Y0121932D01*
X0089327Y0121240D01*
X0094242Y0121240D01*
X0094934Y0121932D01*
X0094934Y0123085D01*
X0099881Y0123166D01*
X0100311Y0122736D01*
X0106014Y0122736D01*
X0106605Y0123327D01*
X0107375Y0123171D01*
X0107375Y0121696D01*
X0108067Y0121004D01*
X0112982Y0121004D01*
X0113674Y0121696D01*
X0113674Y0128186D01*
X0112982Y0128878D01*
X0108067Y0128878D01*
X0107375Y0128186D01*
X0107375Y0127992D01*
X0106639Y0128141D01*
X0106246Y0128419D01*
X0105718Y0128328D01*
X0105194Y0128435D01*
X0104911Y0128248D01*
X0100311Y0128248D01*
X0099958Y0127895D01*
X0099103Y0127906D01*
X0099075Y0127878D01*
X0096808Y0127841D01*
X0097411Y0129041D01*
X0099980Y0129041D01*
X0100672Y0129733D01*
X0100672Y0136212D01*
X0100435Y0136448D01*
X0101750Y0140267D01*
X0102044Y0140561D01*
X0102044Y0139705D01*
X0104619Y0139705D01*
X0104619Y0143067D01*
X0104550Y0143067D01*
X0105647Y0144164D01*
X0106050Y0143997D01*
X0107991Y0143997D01*
X0109785Y0144740D01*
X0111158Y0146113D01*
X0111902Y0147907D01*
X0111902Y0149849D01*
X0111158Y0151643D01*
X0110459Y0152343D01*
X0110546Y0152255D02*
X0113194Y0152255D01*
X0112624Y0151469D02*
X0111230Y0151469D01*
X0111556Y0150683D02*
X0112251Y0150683D01*
X0112025Y0149897D02*
X0111882Y0149897D01*
X0111902Y0149111D02*
X0116627Y0149111D01*
X0117020Y0148878D02*
X0114580Y0146437D01*
X0112139Y0146437D01*
X0105013Y0139311D01*
X0105406Y0139680D02*
X0109343Y0139680D01*
X0109343Y0138895D02*
X0107981Y0138895D01*
X0107981Y0138109D02*
X0109343Y0138109D01*
X0109343Y0137323D02*
X0107981Y0137323D01*
X0107981Y0139705D02*
X0107981Y0141857D01*
X0107886Y0142211D01*
X0107703Y0142529D01*
X0107443Y0142788D01*
X0107125Y0142972D01*
X0106771Y0143067D01*
X0105406Y0143067D01*
X0105406Y0139705D01*
X0104619Y0139705D01*
X0104619Y0138917D01*
X0105406Y0138917D01*
X0105406Y0139705D01*
X0107981Y0139705D01*
X0107981Y0140466D02*
X0109343Y0140466D01*
X0109343Y0141252D02*
X0107981Y0141252D01*
X0107932Y0142038D02*
X0109343Y0142038D01*
X0110005Y0142824D02*
X0107381Y0142824D01*
X0105406Y0142824D02*
X0104619Y0142824D01*
X0104619Y0142038D02*
X0105406Y0142038D01*
X0105406Y0141252D02*
X0104619Y0141252D01*
X0104619Y0140466D02*
X0105406Y0140466D01*
X0104619Y0139680D02*
X0101548Y0139680D01*
X0101277Y0138895D02*
X0102044Y0138895D01*
X0102044Y0138917D02*
X0102044Y0136765D01*
X0102139Y0136411D01*
X0102323Y0136093D01*
X0102582Y0135834D01*
X0102900Y0135650D01*
X0103254Y0135555D01*
X0104619Y0135555D01*
X0104619Y0138917D01*
X0102044Y0138917D01*
X0102044Y0138109D02*
X0101007Y0138109D01*
X0100736Y0137323D02*
X0102044Y0137323D01*
X0102105Y0136537D02*
X0100466Y0136537D01*
X0100672Y0135751D02*
X0102725Y0135751D01*
X0100672Y0134965D02*
X0105810Y0134965D01*
X0105810Y0134179D02*
X0100672Y0134179D01*
X0100672Y0133393D02*
X0105810Y0133393D01*
X0105810Y0132607D02*
X0100672Y0132607D01*
X0100672Y0131821D02*
X0105810Y0131821D01*
X0105810Y0131035D02*
X0100672Y0131035D01*
X0100672Y0130249D02*
X0105810Y0130249D01*
X0106079Y0129464D02*
X0100402Y0129464D01*
X0099089Y0127892D02*
X0096833Y0127892D01*
X0097228Y0128678D02*
X0107866Y0128678D01*
X0113182Y0128678D02*
X0115347Y0128678D01*
X0114855Y0127892D02*
X0113674Y0127892D01*
X0113674Y0127106D02*
X0114855Y0127106D01*
X0114855Y0126320D02*
X0113674Y0126320D01*
X0113674Y0125534D02*
X0114855Y0125534D01*
X0114855Y0124748D02*
X0113674Y0124748D01*
X0113674Y0123962D02*
X0114855Y0123962D01*
X0114855Y0123176D02*
X0113674Y0123176D01*
X0113674Y0122390D02*
X0114855Y0122390D01*
X0114946Y0121604D02*
X0113583Y0121604D01*
X0111623Y0120033D02*
X0106918Y0120033D01*
X0106918Y0119247D02*
X0111115Y0119247D01*
X0111115Y0118461D02*
X0103556Y0118461D01*
X0103162Y0118406D02*
X0104855Y0116713D01*
X0104855Y0110413D01*
X0103871Y0107461D01*
X0101115Y0105689D01*
X0093438Y0105689D01*
X0089619Y0109508D01*
X0091391Y0109311D01*
X0091784Y0109030D02*
X0095721Y0109030D01*
X0095721Y0109816D02*
X0094359Y0109816D01*
X0094359Y0109705D02*
X0091784Y0109705D01*
X0091784Y0108917D01*
X0091784Y0105555D01*
X0093149Y0105555D01*
X0093503Y0105650D01*
X0093821Y0105834D01*
X0094081Y0106093D01*
X0094264Y0106411D01*
X0094359Y0106765D01*
X0094359Y0108917D01*
X0091784Y0108917D01*
X0090997Y0108917D01*
X0090997Y0106236D01*
X0093470Y0103917D01*
X0102999Y0103917D01*
X0109973Y0111240D01*
X0109973Y0111263D01*
X0110096Y0111385D01*
X0108270Y0111385D01*
X0106417Y0113237D01*
X0106417Y0115753D01*
X0106380Y0115715D01*
X0106062Y0115532D01*
X0105708Y0115437D01*
X0104303Y0115437D01*
X0104868Y0114873D01*
X0104868Y0112253D01*
X0103015Y0110401D01*
X0101233Y0110401D01*
X0101233Y0106460D01*
X0100541Y0105768D01*
X0096413Y0105768D01*
X0095721Y0106460D01*
X0095721Y0110028D01*
X0094824Y0112579D01*
X0094031Y0112579D01*
X0094081Y0112529D01*
X0094264Y0112211D01*
X0094359Y0111857D01*
X0094359Y0109705D01*
X0094359Y0110602D02*
X0095519Y0110602D01*
X0095243Y0111388D02*
X0094359Y0111388D01*
X0094274Y0112173D02*
X0094967Y0112173D01*
X0092375Y0113745D02*
X0091406Y0113745D01*
X0091406Y0114531D02*
X0092375Y0114531D01*
X0092375Y0115317D02*
X0091406Y0115317D01*
X0091406Y0116103D02*
X0092375Y0116103D01*
X0092375Y0116889D02*
X0088438Y0116889D01*
X0088438Y0116122D02*
X0087650Y0116122D01*
X0087650Y0112366D01*
X0085892Y0112366D01*
X0085538Y0112461D01*
X0085220Y0112645D01*
X0084973Y0112891D01*
X0084973Y0111883D01*
X0088422Y0108650D01*
X0088422Y0108917D01*
X0090997Y0108917D01*
X0090997Y0109705D01*
X0088422Y0109705D01*
X0088422Y0111857D01*
X0088517Y0112211D01*
X0088607Y0112366D01*
X0088438Y0112366D01*
X0088438Y0116122D01*
X0088438Y0116103D02*
X0087650Y0116103D01*
X0087650Y0115317D02*
X0088438Y0115317D01*
X0088438Y0114531D02*
X0087650Y0114531D01*
X0087650Y0113745D02*
X0088438Y0113745D01*
X0088438Y0112959D02*
X0087650Y0112959D01*
X0088507Y0112173D02*
X0084973Y0112173D01*
X0085502Y0111388D02*
X0088422Y0111388D01*
X0088422Y0110602D02*
X0086340Y0110602D01*
X0087178Y0109816D02*
X0088422Y0109816D01*
X0088017Y0109030D02*
X0090997Y0109030D01*
X0090997Y0109816D02*
X0091784Y0109816D01*
X0091784Y0110602D02*
X0090997Y0110602D01*
X0090997Y0111388D02*
X0091784Y0111388D01*
X0091784Y0112173D02*
X0090997Y0112173D01*
X0091160Y0112959D02*
X0091784Y0112959D01*
X0091784Y0108244D02*
X0090997Y0108244D01*
X0090997Y0107458D02*
X0091784Y0107458D01*
X0091784Y0106672D02*
X0090997Y0106672D01*
X0091370Y0105886D02*
X0091784Y0105886D01*
X0092208Y0105100D02*
X0104126Y0105100D01*
X0103377Y0104314D02*
X0093046Y0104314D01*
X0093874Y0105886D02*
X0096295Y0105886D01*
X0095721Y0106672D02*
X0094334Y0106672D01*
X0094359Y0107458D02*
X0095721Y0107458D01*
X0095721Y0108244D02*
X0094359Y0108244D01*
X0100660Y0105886D02*
X0104874Y0105886D01*
X0105623Y0106672D02*
X0101233Y0106672D01*
X0101233Y0107458D02*
X0106371Y0107458D01*
X0107120Y0108244D02*
X0101233Y0108244D01*
X0101233Y0109030D02*
X0107868Y0109030D01*
X0108617Y0109816D02*
X0101233Y0109816D01*
X0103216Y0110602D02*
X0109365Y0110602D01*
X0108267Y0111388D02*
X0104002Y0111388D01*
X0104788Y0112173D02*
X0107481Y0112173D01*
X0106695Y0112959D02*
X0104868Y0112959D01*
X0104868Y0113745D02*
X0106417Y0113745D01*
X0106417Y0114531D02*
X0104868Y0114531D01*
X0104423Y0115317D02*
X0106417Y0115317D01*
X0106918Y0116889D02*
X0107449Y0116889D01*
X0106918Y0117675D02*
X0108235Y0117675D01*
X0110924Y0117675D02*
X0111115Y0117675D01*
X0107466Y0121604D02*
X0094606Y0121604D01*
X0094934Y0122390D02*
X0107375Y0122390D01*
X0107347Y0123176D02*
X0106454Y0123176D01*
X0106650Y0120819D02*
X0129739Y0120819D01*
X0129007Y0121604D02*
X0121063Y0121604D01*
X0121154Y0122390D02*
X0128275Y0122390D01*
X0127544Y0123176D02*
X0122884Y0123176D01*
X0123734Y0123962D02*
X0126812Y0123962D01*
X0126080Y0124748D02*
X0124028Y0124748D01*
X0124017Y0125534D02*
X0125508Y0125534D01*
X0125524Y0126320D02*
X0124150Y0126320D01*
X0124283Y0127106D02*
X0125524Y0127106D01*
X0125524Y0127892D02*
X0124415Y0127892D01*
X0124548Y0128678D02*
X0125524Y0128678D01*
X0125524Y0129464D02*
X0124681Y0129464D01*
X0124814Y0130249D02*
X0125524Y0130249D01*
X0125524Y0131035D02*
X0124947Y0131035D01*
X0125080Y0131821D02*
X0125524Y0131821D01*
X0125524Y0132607D02*
X0125213Y0132607D01*
X0125345Y0133393D02*
X0125524Y0133393D01*
X0125524Y0134179D02*
X0125478Y0134179D01*
X0120820Y0134965D02*
X0118721Y0134965D01*
X0118629Y0134179D02*
X0120687Y0134179D01*
X0120554Y0133393D02*
X0118537Y0133393D01*
X0118450Y0132607D02*
X0120421Y0132607D01*
X0120288Y0131821D02*
X0118427Y0131821D01*
X0118320Y0131035D02*
X0120155Y0131035D01*
X0120023Y0130249D02*
X0117966Y0130249D01*
X0117088Y0129464D02*
X0119890Y0129464D01*
X0114693Y0129464D02*
X0113402Y0129464D01*
X0113672Y0130249D02*
X0113970Y0130249D01*
X0119107Y0135751D02*
X0120953Y0135751D01*
X0121085Y0136537D02*
X0119580Y0136537D01*
X0119580Y0137323D02*
X0121154Y0137323D01*
X0121154Y0138109D02*
X0119580Y0138109D01*
X0119580Y0138895D02*
X0121154Y0138895D01*
X0121154Y0139680D02*
X0119580Y0139680D01*
X0119580Y0140466D02*
X0121154Y0140466D01*
X0121154Y0141252D02*
X0119580Y0141252D01*
X0119543Y0144447D02*
X0119690Y0144521D01*
X0120339Y0144993D01*
X0120906Y0145560D01*
X0121377Y0146208D01*
X0121741Y0146923D01*
X0121989Y0147685D01*
X0122114Y0148477D01*
X0122114Y0148484D01*
X0117414Y0148484D01*
X0117414Y0149272D01*
X0122114Y0149272D01*
X0122114Y0149279D01*
X0121989Y0150071D01*
X0121741Y0150833D01*
X0121377Y0151548D01*
X0120906Y0152196D01*
X0120759Y0152343D01*
X0121132Y0152343D01*
X0127296Y0146178D01*
X0127296Y0143349D01*
X0127097Y0143548D01*
X0127097Y0143552D01*
X0126636Y0144010D01*
X0126177Y0144468D01*
X0126173Y0144468D01*
X0126171Y0144471D01*
X0125520Y0144468D01*
X0124872Y0144468D01*
X0124870Y0144466D01*
X0119543Y0144447D01*
X0120528Y0145182D02*
X0127296Y0145182D01*
X0127296Y0145968D02*
X0121202Y0145968D01*
X0121655Y0146754D02*
X0126721Y0146754D01*
X0125935Y0147540D02*
X0121941Y0147540D01*
X0122090Y0148325D02*
X0125149Y0148325D01*
X0124363Y0149111D02*
X0117414Y0149111D01*
X0121417Y0151469D02*
X0122005Y0151469D01*
X0121790Y0150683D02*
X0122791Y0150683D01*
X0122016Y0149897D02*
X0123577Y0149897D01*
X0121219Y0152255D02*
X0120847Y0152255D01*
X0124895Y0156971D02*
X0147896Y0156971D01*
X0149706Y0156185D02*
X0125681Y0156185D01*
X0126467Y0155399D02*
X0151068Y0155399D01*
X0152239Y0154613D02*
X0127253Y0154613D01*
X0128039Y0153827D02*
X0153025Y0153827D01*
X0153811Y0153041D02*
X0128825Y0153041D01*
X0129611Y0152255D02*
X0154597Y0152255D01*
X0155064Y0151469D02*
X0146439Y0151469D01*
X0145243Y0151965D02*
X0142026Y0151965D01*
X0139054Y0150733D01*
X0136779Y0148459D01*
X0135548Y0145486D01*
X0135548Y0142269D01*
X0136779Y0139297D01*
X0139054Y0137022D01*
X0142026Y0135791D01*
X0145243Y0135791D01*
X0148215Y0137022D01*
X0150490Y0139297D01*
X0151721Y0142269D01*
X0151721Y0145486D01*
X0150490Y0148459D01*
X0148215Y0150733D01*
X0145243Y0151965D01*
X0148266Y0150683D02*
X0155518Y0150683D01*
X0155972Y0149897D02*
X0149051Y0149897D01*
X0149837Y0149111D02*
X0156425Y0149111D01*
X0156677Y0148325D02*
X0150545Y0148325D01*
X0150871Y0147540D02*
X0156888Y0147540D01*
X0157098Y0146754D02*
X0151196Y0146754D01*
X0151522Y0145968D02*
X0157309Y0145968D01*
X0157484Y0145182D02*
X0151721Y0145182D01*
X0151721Y0144396D02*
X0157536Y0144396D01*
X0157587Y0143610D02*
X0151721Y0143610D01*
X0151721Y0142824D02*
X0157595Y0142824D01*
X0157595Y0142038D02*
X0151625Y0142038D01*
X0151300Y0141252D02*
X0157595Y0141252D01*
X0157595Y0140466D02*
X0150974Y0140466D01*
X0150649Y0139680D02*
X0157595Y0139680D01*
X0157595Y0138895D02*
X0150087Y0138895D01*
X0149301Y0138109D02*
X0157595Y0138109D01*
X0157595Y0137323D02*
X0148516Y0137323D01*
X0147043Y0136537D02*
X0157595Y0136537D01*
X0157595Y0135751D02*
X0132414Y0135751D01*
X0132414Y0136537D02*
X0140226Y0136537D01*
X0138754Y0137323D02*
X0132414Y0137323D01*
X0132414Y0138109D02*
X0137968Y0138109D01*
X0137182Y0138895D02*
X0132414Y0138895D01*
X0132414Y0139680D02*
X0136620Y0139680D01*
X0136295Y0140466D02*
X0132414Y0140466D01*
X0132414Y0141252D02*
X0135969Y0141252D01*
X0135644Y0142038D02*
X0132414Y0142038D01*
X0132414Y0142824D02*
X0135548Y0142824D01*
X0135548Y0143610D02*
X0132414Y0143610D01*
X0132414Y0144396D02*
X0135548Y0144396D01*
X0135548Y0145182D02*
X0132414Y0145182D01*
X0132414Y0145968D02*
X0135747Y0145968D01*
X0136073Y0146754D02*
X0132414Y0146754D01*
X0132414Y0147540D02*
X0136398Y0147540D01*
X0136724Y0148325D02*
X0132414Y0148325D01*
X0132414Y0149111D02*
X0137432Y0149111D01*
X0138218Y0149897D02*
X0131968Y0149897D01*
X0131182Y0150683D02*
X0139004Y0150683D01*
X0140830Y0151469D02*
X0130397Y0151469D01*
X0127296Y0144396D02*
X0126249Y0144396D01*
X0127038Y0143610D02*
X0127296Y0143610D01*
X0125524Y0142894D02*
X0127099Y0141319D01*
X0127099Y0125965D01*
X0137729Y0114547D01*
X0137729Y0094469D01*
X0131627Y0090335D01*
X0131233Y0077736D01*
X0125918Y0072028D01*
X0118438Y0072028D01*
X0114501Y0075177D01*
X0114501Y0076358D01*
X0114107Y0076949D01*
X0110524Y0076949D01*
X0110524Y0078917D02*
X0115091Y0078917D01*
X0116076Y0077933D01*
X0116076Y0076161D01*
X0119225Y0073602D01*
X0125131Y0073602D01*
X0129658Y0078130D01*
X0129658Y0091319D01*
X0132020Y0094075D01*
X0130643Y0095453D01*
X0130643Y0112382D01*
X0127690Y0116516D01*
X0123162Y0116516D01*
X0122094Y0117675D02*
X0117414Y0117675D01*
X0117414Y0118461D02*
X0131934Y0118461D01*
X0131202Y0119247D02*
X0117414Y0119247D01*
X0116906Y0120033D02*
X0130470Y0120033D01*
X0128797Y0117675D02*
X0132666Y0117675D01*
X0133397Y0116889D02*
X0129358Y0116889D01*
X0129920Y0116103D02*
X0134129Y0116103D01*
X0134861Y0115317D02*
X0130481Y0115317D01*
X0131043Y0114531D02*
X0135592Y0114531D01*
X0136154Y0113745D02*
X0131604Y0113745D01*
X0132217Y0112959D02*
X0136154Y0112959D01*
X0136154Y0112173D02*
X0132217Y0112173D01*
X0132217Y0111388D02*
X0136154Y0111388D01*
X0136154Y0110602D02*
X0132217Y0110602D01*
X0132217Y0109816D02*
X0136154Y0109816D01*
X0136154Y0109030D02*
X0132217Y0109030D01*
X0132217Y0108244D02*
X0136154Y0108244D01*
X0136154Y0107458D02*
X0132217Y0107458D01*
X0132217Y0106672D02*
X0136154Y0106672D01*
X0136154Y0105886D02*
X0132217Y0105886D01*
X0132217Y0105100D02*
X0136154Y0105100D01*
X0136154Y0104314D02*
X0132217Y0104314D01*
X0132217Y0103528D02*
X0136154Y0103528D01*
X0136154Y0102743D02*
X0132217Y0102743D01*
X0132217Y0101957D02*
X0136154Y0101957D01*
X0136154Y0101171D02*
X0132217Y0101171D01*
X0132217Y0100385D02*
X0136154Y0100385D01*
X0136154Y0099599D02*
X0132217Y0099599D01*
X0132217Y0098813D02*
X0136154Y0098813D01*
X0136154Y0098027D02*
X0132217Y0098027D01*
X0132217Y0097241D02*
X0136154Y0097241D01*
X0136154Y0096455D02*
X0132217Y0096455D01*
X0132653Y0095669D02*
X0136154Y0095669D01*
X0135534Y0094883D02*
X0133497Y0094883D01*
X0133598Y0094097D02*
X0134374Y0094097D01*
X0129068Y0094075D02*
X0129068Y0109429D01*
X0121258Y0116889D02*
X0117414Y0116889D01*
X0117414Y0116103D02*
X0120419Y0116103D01*
X0119581Y0115317D02*
X0117414Y0115317D01*
X0117414Y0114531D02*
X0118743Y0114531D01*
X0117905Y0113745D02*
X0117414Y0113745D01*
X0118438Y0103327D02*
X0112335Y0103327D01*
X0117060Y0098813D02*
X0119654Y0098813D01*
X0119635Y0098027D02*
X0120255Y0098027D01*
X0119748Y0097241D02*
X0119635Y0097241D01*
X0119269Y0095669D02*
X0119085Y0095669D01*
X0119269Y0094883D02*
X0112018Y0094883D01*
X0111864Y0095669D02*
X0114247Y0095669D01*
X0113739Y0096455D02*
X0112335Y0096455D01*
X0112335Y0097241D02*
X0113698Y0097241D01*
X0113698Y0098027D02*
X0112335Y0098027D01*
X0116272Y0098027D02*
X0117060Y0098027D01*
X0117060Y0097241D02*
X0116272Y0097241D01*
X0116272Y0096455D02*
X0117060Y0096455D01*
X0117060Y0095669D02*
X0116272Y0095669D01*
X0121272Y0100492D02*
X0122650Y0100413D01*
X0121272Y0100492D02*
X0118438Y0103327D01*
X0128083Y0093091D02*
X0129068Y0094075D01*
X0128083Y0093091D02*
X0128083Y0078524D01*
X0124540Y0075177D01*
X0119816Y0075177D01*
X0117650Y0076949D01*
X0117650Y0079114D01*
X0115485Y0080886D01*
X0110524Y0080886D01*
X0102296Y0097224D02*
X0104068Y0099980D01*
X0090249Y0102579D02*
X0090249Y0097224D01*
X0088280Y0097224D02*
X0088280Y0102382D01*
X0079461Y0110610D01*
X0079265Y0119941D01*
X0073831Y0122618D01*
X0070354Y0124748D02*
X0070238Y0124748D01*
X0069329Y0125534D02*
X0076693Y0125534D01*
X0076693Y0126320D02*
X0067353Y0126320D01*
X0066981Y0125534D02*
X0066422Y0125534D01*
X0066194Y0124748D02*
X0066981Y0124748D01*
X0066981Y0123962D02*
X0066194Y0123962D01*
X0066194Y0123176D02*
X0066981Y0123176D01*
X0069596Y0127106D02*
X0070823Y0127106D01*
X0070288Y0127892D02*
X0070131Y0127892D01*
X0070131Y0128678D02*
X0070288Y0128678D01*
X0079855Y0126161D02*
X0081233Y0124587D01*
X0081233Y0111201D01*
X0090249Y0102579D01*
X0084186Y0104114D02*
X0084186Y0097382D01*
X0084343Y0097224D01*
X0084186Y0104114D02*
X0076036Y0111476D01*
X0075800Y0117382D01*
X0084973Y0120819D02*
X0099675Y0120819D01*
X0099406Y0120033D02*
X0098402Y0120033D01*
X0098674Y0119247D02*
X0099406Y0119247D01*
X0098674Y0118461D02*
X0102768Y0118461D01*
X0102769Y0119247D02*
X0103556Y0119247D01*
X0103556Y0120033D02*
X0102769Y0120033D01*
X0102769Y0120819D02*
X0103556Y0120819D01*
X0099406Y0117675D02*
X0098674Y0117675D01*
X0098674Y0116889D02*
X0099406Y0116889D01*
X0099611Y0116103D02*
X0098884Y0116103D01*
X0092375Y0117675D02*
X0091406Y0117675D01*
X0091406Y0118461D02*
X0092375Y0118461D01*
X0092375Y0119247D02*
X0091406Y0119247D01*
X0091183Y0120033D02*
X0092647Y0120033D01*
X0088962Y0121604D02*
X0084973Y0121604D01*
X0084973Y0122390D02*
X0088635Y0122390D01*
X0088635Y0123176D02*
X0084973Y0123176D01*
X0084973Y0123962D02*
X0088635Y0123962D01*
X0088635Y0124748D02*
X0084973Y0124748D01*
X0084973Y0125534D02*
X0088635Y0125534D01*
X0088635Y0126320D02*
X0084973Y0126320D01*
X0084973Y0127106D02*
X0088635Y0127106D01*
X0088635Y0127892D02*
X0084973Y0127892D01*
X0085157Y0128678D02*
X0088890Y0128678D01*
X0086654Y0130249D02*
X0092731Y0130249D01*
X0092810Y0131035D02*
X0087403Y0131035D01*
X0085906Y0129464D02*
X0092336Y0129464D01*
X0092810Y0131821D02*
X0091723Y0131821D01*
X0092454Y0132607D02*
X0092810Y0132607D01*
X0101950Y0140466D02*
X0102044Y0140466D01*
X0104619Y0138895D02*
X0105406Y0138895D01*
X0105406Y0138109D02*
X0104619Y0138109D01*
X0104619Y0137323D02*
X0105406Y0137323D01*
X0105406Y0136537D02*
X0104619Y0136537D01*
X0104619Y0135751D02*
X0105406Y0135751D01*
X0112099Y0139311D02*
X0114737Y0142854D01*
X0125524Y0142894D01*
X0132414Y0134965D02*
X0157595Y0134965D01*
X0157595Y0134179D02*
X0132414Y0134179D01*
X0132414Y0133393D02*
X0157595Y0133393D01*
X0157595Y0132607D02*
X0132414Y0132607D01*
X0132414Y0131821D02*
X0135571Y0131821D01*
X0134785Y0131035D02*
X0132414Y0131035D01*
X0133014Y0130249D02*
X0133999Y0130249D01*
X0133976Y0129464D02*
X0133879Y0129464D01*
X0137139Y0128917D02*
X0144127Y0128917D01*
X0147572Y0125472D01*
X0151509Y0125534D02*
X0157595Y0125534D01*
X0157595Y0126320D02*
X0151509Y0126320D01*
X0151509Y0127106D02*
X0157595Y0127106D01*
X0157595Y0127892D02*
X0151509Y0127892D01*
X0151509Y0128678D02*
X0157595Y0128678D01*
X0157595Y0129464D02*
X0151509Y0129464D01*
X0151509Y0130249D02*
X0157595Y0130249D01*
X0157595Y0131035D02*
X0151509Y0131035D01*
X0150866Y0131821D02*
X0157595Y0131821D01*
X0157595Y0124748D02*
X0151509Y0124748D01*
X0151509Y0123962D02*
X0157595Y0123962D01*
X0157595Y0123176D02*
X0151509Y0123176D01*
X0151509Y0122390D02*
X0157595Y0122390D01*
X0157595Y0121604D02*
X0151509Y0121604D01*
X0151509Y0120819D02*
X0157595Y0120819D01*
X0157595Y0120033D02*
X0151509Y0120033D01*
X0150989Y0119247D02*
X0157595Y0119247D01*
X0157595Y0118461D02*
X0145982Y0118461D01*
X0146846Y0117675D02*
X0157595Y0117675D01*
X0157595Y0116889D02*
X0147711Y0116889D01*
X0148575Y0116103D02*
X0157595Y0116103D01*
X0157595Y0115317D02*
X0149440Y0115317D01*
X0150304Y0114531D02*
X0157595Y0114531D01*
X0157595Y0113745D02*
X0151169Y0113745D01*
X0152033Y0112959D02*
X0157595Y0112959D01*
X0157595Y0112173D02*
X0152898Y0112173D01*
X0153762Y0111388D02*
X0157595Y0111388D01*
X0157595Y0110602D02*
X0154627Y0110602D01*
X0155491Y0109816D02*
X0157595Y0109816D01*
X0157595Y0109030D02*
X0156356Y0109030D01*
X0157220Y0108244D02*
X0157595Y0108244D01*
X0155052Y0104902D02*
X0155052Y0040531D01*
X0147769Y0033248D01*
X0135367Y0033248D01*
X0130643Y0028524D01*
X0128185Y0026509D02*
X0127853Y0026509D01*
X0127480Y0027214D02*
X0129333Y0025361D01*
X0129781Y0025361D01*
X0129358Y0024939D01*
X0129358Y0025004D01*
X0126374Y0027987D01*
X0124658Y0027987D01*
X0124658Y0023287D01*
X0123871Y0023287D01*
X0123871Y0022500D01*
X0119171Y0022500D01*
X0119171Y0020784D01*
X0120683Y0019272D01*
X0117545Y0019272D01*
X0119146Y0020872D01*
X0119146Y0024916D01*
X0118830Y0025232D01*
X0119759Y0026161D01*
X0120329Y0026161D01*
X0119171Y0025004D01*
X0119171Y0023287D01*
X0123871Y0023287D01*
X0123871Y0027399D01*
X0135686Y0039215D01*
X0136613Y0038288D01*
X0140656Y0038288D01*
X0143516Y0041147D01*
X0143516Y0045191D01*
X0142073Y0046634D01*
X0144326Y0046634D01*
X0146297Y0048604D01*
X0146613Y0048288D01*
X0150656Y0048288D01*
X0153477Y0051109D01*
X0153477Y0045530D01*
X0150745Y0048263D01*
X0149028Y0048263D01*
X0149028Y0043563D01*
X0148241Y0043563D01*
X0148241Y0048263D01*
X0146525Y0048263D01*
X0143541Y0045279D01*
X0143541Y0043563D01*
X0148241Y0043563D01*
X0148241Y0042776D01*
X0143541Y0042776D01*
X0143541Y0041059D01*
X0146525Y0038076D01*
X0148241Y0038076D01*
X0148241Y0042776D01*
X0149028Y0042776D01*
X0149028Y0038076D01*
X0150369Y0038076D01*
X0147116Y0034823D01*
X0134715Y0034823D01*
X0133792Y0033900D01*
X0131578Y0031686D01*
X0129333Y0031686D01*
X0127480Y0029833D01*
X0127480Y0027214D01*
X0127480Y0027295D02*
X0127067Y0027295D01*
X0127480Y0028081D02*
X0124553Y0028081D01*
X0124658Y0027295D02*
X0123871Y0027295D01*
X0123871Y0026509D02*
X0124658Y0026509D01*
X0124658Y0025723D02*
X0123871Y0025723D01*
X0123871Y0024937D02*
X0124658Y0024937D01*
X0124658Y0024151D02*
X0123871Y0024151D01*
X0123871Y0023365D02*
X0124658Y0023365D01*
X0123871Y0022579D02*
X0119146Y0022579D01*
X0119146Y0021793D02*
X0119171Y0021793D01*
X0119146Y0021008D02*
X0119171Y0021008D01*
X0119733Y0020222D02*
X0118495Y0020222D01*
X0117710Y0019436D02*
X0120519Y0019436D01*
X0119171Y0023365D02*
X0119146Y0023365D01*
X0119146Y0024151D02*
X0119171Y0024151D01*
X0119171Y0024937D02*
X0119124Y0024937D01*
X0119321Y0025723D02*
X0119890Y0025723D01*
X0119107Y0027736D02*
X0121981Y0027736D01*
X0137414Y0043169D01*
X0138635Y0043169D01*
X0142238Y0039869D02*
X0144731Y0039869D01*
X0145517Y0039084D02*
X0141452Y0039084D01*
X0140666Y0038298D02*
X0146303Y0038298D01*
X0148241Y0038298D02*
X0149028Y0038298D01*
X0149028Y0039084D02*
X0148241Y0039084D01*
X0148241Y0039869D02*
X0149028Y0039869D01*
X0149028Y0040655D02*
X0148241Y0040655D01*
X0148241Y0041441D02*
X0149028Y0041441D01*
X0149028Y0042227D02*
X0148241Y0042227D01*
X0148241Y0043013D02*
X0143516Y0043013D01*
X0143516Y0042227D02*
X0143541Y0042227D01*
X0143516Y0041441D02*
X0143541Y0041441D01*
X0143945Y0040655D02*
X0143024Y0040655D01*
X0143516Y0043799D02*
X0143541Y0043799D01*
X0143516Y0044585D02*
X0143541Y0044585D01*
X0143633Y0045371D02*
X0143336Y0045371D01*
X0142550Y0046157D02*
X0144419Y0046157D01*
X0144635Y0046943D02*
X0145204Y0046943D01*
X0145421Y0047729D02*
X0145990Y0047729D01*
X0146207Y0048515D02*
X0146386Y0048515D01*
X0148241Y0047729D02*
X0149028Y0047729D01*
X0149028Y0046943D02*
X0148241Y0046943D01*
X0148241Y0046157D02*
X0149028Y0046157D01*
X0149028Y0045371D02*
X0148241Y0045371D01*
X0148241Y0044585D02*
X0149028Y0044585D01*
X0149028Y0043799D02*
X0148241Y0043799D01*
X0152065Y0046943D02*
X0153477Y0046943D01*
X0153477Y0047729D02*
X0151279Y0047729D01*
X0150883Y0048515D02*
X0153477Y0048515D01*
X0153477Y0049300D02*
X0151669Y0049300D01*
X0152455Y0050086D02*
X0153477Y0050086D01*
X0153477Y0050872D02*
X0153241Y0050872D01*
X0153477Y0046157D02*
X0152851Y0046157D01*
X0148635Y0053169D02*
X0143674Y0048209D01*
X0136548Y0048209D01*
X0126706Y0038366D01*
X0126706Y0036004D01*
X0120800Y0030098D01*
X0091272Y0030098D01*
X0086706Y0034665D01*
X0086706Y0042067D01*
X0090091Y0046634D01*
X0090249Y0050768D01*
X0092217Y0050768D02*
X0092217Y0046004D01*
X0088910Y0041516D01*
X0088910Y0035610D01*
X0092847Y0031673D01*
X0095209Y0034429D02*
X0096391Y0033248D01*
X0118044Y0033248D01*
X0123162Y0038366D01*
X0123162Y0052539D01*
X0121143Y0050086D02*
X0110633Y0050086D01*
X0111237Y0049300D02*
X0121587Y0049300D01*
X0121587Y0048515D02*
X0111841Y0048515D01*
X0112446Y0047729D02*
X0121587Y0047729D01*
X0121587Y0046943D02*
X0119648Y0046943D01*
X0120434Y0046157D02*
X0121587Y0046157D01*
X0121587Y0045371D02*
X0121220Y0045371D01*
X0121403Y0044585D02*
X0121587Y0044585D01*
X0121587Y0043799D02*
X0121403Y0043799D01*
X0121403Y0043013D02*
X0121587Y0043013D01*
X0121587Y0042227D02*
X0121062Y0042227D01*
X0121587Y0041441D02*
X0120276Y0041441D01*
X0119461Y0040655D02*
X0121587Y0040655D01*
X0121587Y0039869D02*
X0119461Y0039869D01*
X0119461Y0039084D02*
X0121587Y0039084D01*
X0120867Y0038298D02*
X0119461Y0038298D01*
X0119461Y0037512D02*
X0120081Y0037512D01*
X0116706Y0037894D02*
X0113950Y0040217D01*
X0113359Y0043957D01*
X0118162Y0043957D01*
X0118241Y0043878D01*
X0116834Y0046943D02*
X0115980Y0046943D01*
X0113359Y0043957D02*
X0108123Y0050768D01*
X0102296Y0050768D01*
X0100328Y0050531D02*
X0100091Y0050768D01*
X0100091Y0050768D01*
X0100091Y0046421D01*
X0099698Y0046421D01*
X0099698Y0041358D01*
X0100305Y0041358D01*
X0100997Y0040666D01*
X0100997Y0034964D01*
X0100856Y0034823D01*
X0102507Y0034823D01*
X0102454Y0034915D01*
X0102359Y0035269D01*
X0102359Y0037421D01*
X0104934Y0037421D01*
X0104934Y0038209D01*
X0102359Y0038209D01*
X0102359Y0040361D01*
X0102454Y0040715D01*
X0102638Y0041033D01*
X0102897Y0041292D01*
X0103215Y0041476D01*
X0103304Y0041500D01*
X0103304Y0043563D01*
X0105879Y0043563D01*
X0105879Y0044350D01*
X0103304Y0044350D01*
X0103304Y0046502D01*
X0103339Y0046634D01*
X0101384Y0046634D01*
X0101180Y0046516D01*
X0100826Y0046421D01*
X0100091Y0046421D01*
X0100091Y0050768D01*
X0100091Y0050872D02*
X0100091Y0050872D01*
X0100328Y0050531D02*
X0100328Y0047224D01*
X0101233Y0045925D01*
X0101233Y0044547D01*
X0101706Y0044075D01*
X0103304Y0044585D02*
X0099698Y0044585D01*
X0099698Y0045371D02*
X0103304Y0045371D01*
X0103304Y0046157D02*
X0099698Y0046157D01*
X0100091Y0046943D02*
X0100091Y0046943D01*
X0100091Y0047729D02*
X0100091Y0047729D01*
X0100091Y0048515D02*
X0100091Y0048515D01*
X0100091Y0049300D02*
X0100091Y0049300D01*
X0100091Y0050086D02*
X0100091Y0050086D01*
X0100091Y0051658D02*
X0100091Y0051658D01*
X0100091Y0052444D02*
X0100091Y0052444D01*
X0100091Y0053230D02*
X0100091Y0053230D01*
X0100091Y0054016D02*
X0100091Y0054016D01*
X0100091Y0054802D02*
X0100091Y0054802D01*
X0103672Y0054802D02*
X0119854Y0054802D01*
X0120167Y0054016D02*
X0104265Y0054016D01*
X0104265Y0053230D02*
X0120000Y0053230D01*
X0120000Y0052444D02*
X0104265Y0052444D01*
X0104265Y0049193D02*
X0107347Y0049193D01*
X0108696Y0047438D01*
X0108385Y0047618D01*
X0108031Y0047713D01*
X0106666Y0047713D01*
X0106666Y0044350D01*
X0109241Y0044350D01*
X0109241Y0046502D01*
X0109147Y0046851D01*
X0110603Y0044958D01*
X0110603Y0041650D01*
X0110013Y0041650D01*
X0110013Y0038287D01*
X0112587Y0038287D01*
X0112587Y0039260D01*
X0112978Y0038976D01*
X0113950Y0038157D01*
X0113950Y0035042D01*
X0114169Y0034823D01*
X0112394Y0034823D01*
X0112492Y0034994D01*
X0112587Y0035348D01*
X0112587Y0037500D01*
X0110013Y0037500D01*
X0110013Y0038287D01*
X0109225Y0038287D01*
X0109225Y0037500D01*
X0106650Y0037500D01*
X0106650Y0037421D01*
X0105721Y0037421D01*
X0105721Y0038209D01*
X0108296Y0038209D01*
X0108296Y0038287D01*
X0109225Y0038287D01*
X0109225Y0041352D01*
X0109241Y0041411D01*
X0109241Y0043563D01*
X0106666Y0043563D01*
X0106666Y0044350D01*
X0105879Y0044350D01*
X0105879Y0047713D01*
X0104514Y0047713D01*
X0104265Y0047646D01*
X0104265Y0049193D01*
X0104265Y0048515D02*
X0107869Y0048515D01*
X0108473Y0047729D02*
X0104265Y0047729D01*
X0105879Y0046943D02*
X0106666Y0046943D01*
X0106666Y0046157D02*
X0105879Y0046157D01*
X0105879Y0045371D02*
X0106666Y0045371D01*
X0106666Y0044585D02*
X0105879Y0044585D01*
X0106272Y0043957D02*
X0104107Y0039035D01*
X0105328Y0037815D01*
X0105406Y0037894D01*
X0109619Y0037894D01*
X0110013Y0037512D02*
X0113950Y0037512D01*
X0113950Y0036726D02*
X0112587Y0036726D01*
X0112587Y0035940D02*
X0113950Y0035940D01*
X0113950Y0035154D02*
X0112535Y0035154D01*
X0112587Y0038298D02*
X0113783Y0038298D01*
X0112830Y0039084D02*
X0112587Y0039084D01*
X0110013Y0039084D02*
X0109225Y0039084D01*
X0109225Y0039869D02*
X0110013Y0039869D01*
X0110013Y0040655D02*
X0109225Y0040655D01*
X0109241Y0041441D02*
X0110013Y0041441D01*
X0110603Y0042227D02*
X0109241Y0042227D01*
X0109241Y0043013D02*
X0110603Y0043013D01*
X0110603Y0043799D02*
X0106666Y0043799D01*
X0106272Y0043957D02*
X0101233Y0045925D01*
X0099698Y0043799D02*
X0105879Y0043799D01*
X0103304Y0043013D02*
X0099698Y0043013D01*
X0099698Y0042227D02*
X0103304Y0042227D01*
X0103155Y0041441D02*
X0099698Y0041441D01*
X0100997Y0040655D02*
X0102438Y0040655D01*
X0102359Y0039869D02*
X0100997Y0039869D01*
X0100997Y0039084D02*
X0102359Y0039084D01*
X0102359Y0038298D02*
X0100997Y0038298D01*
X0100997Y0037512D02*
X0104934Y0037512D01*
X0105721Y0037512D02*
X0109225Y0037512D01*
X0109225Y0038298D02*
X0110013Y0038298D01*
X0110603Y0044585D02*
X0109241Y0044585D01*
X0109241Y0045371D02*
X0110285Y0045371D01*
X0109681Y0046157D02*
X0109241Y0046157D01*
X0110029Y0050872D02*
X0120357Y0050872D01*
X0120000Y0051658D02*
X0109459Y0051658D01*
X0106950Y0057160D02*
X0067642Y0057160D01*
X0064068Y0067106D02*
X0064068Y0067106D01*
X0064068Y0069075D02*
X0057217Y0069075D01*
X0053674Y0066319D01*
X0053674Y0058839D01*
X0052099Y0056280D01*
X0027690Y0056280D01*
X0020013Y0063957D01*
X0021981Y0064154D02*
X0021981Y0086791D01*
X0016076Y0092697D01*
X0010367Y0092697D01*
X0009383Y0093681D01*
X0009383Y0104902D01*
X0030839Y0125374D01*
X0035021Y0122390D02*
X0036737Y0122390D01*
X0036666Y0121604D02*
X0035091Y0121604D01*
X0035091Y0120819D02*
X0036666Y0120819D01*
X0036666Y0120033D02*
X0035091Y0120033D01*
X0035091Y0119247D02*
X0036666Y0119247D01*
X0036666Y0118461D02*
X0035091Y0118461D01*
X0035091Y0117675D02*
X0036666Y0117675D01*
X0036666Y0116889D02*
X0035091Y0116889D01*
X0034577Y0116103D02*
X0037180Y0116103D01*
X0036006Y0112959D02*
X0033625Y0112959D01*
X0033635Y0112173D02*
X0035997Y0112173D01*
X0035997Y0111388D02*
X0033635Y0111388D01*
X0033635Y0110602D02*
X0035997Y0110602D01*
X0035997Y0109816D02*
X0033635Y0109816D01*
X0033635Y0109030D02*
X0035997Y0109030D01*
X0035997Y0108244D02*
X0033635Y0108244D01*
X0033778Y0107458D02*
X0035997Y0107458D01*
X0035997Y0106672D02*
X0034564Y0106672D01*
X0035350Y0105886D02*
X0035997Y0105886D01*
X0035879Y0103130D02*
X0045367Y0102539D01*
X0046154Y0102146D01*
X0048556Y0102146D01*
X0052296Y0099390D01*
X0052493Y0090531D01*
X0057808Y0084823D01*
X0064068Y0084823D01*
X0064068Y0082854D02*
X0057808Y0082854D01*
X0049343Y0090728D01*
X0049343Y0095335D01*
X0045485Y0098406D01*
X0040446Y0094154D01*
X0039343Y0094154D01*
X0035997Y0094097D02*
X0033635Y0094097D01*
X0033635Y0093312D02*
X0035997Y0093312D01*
X0035997Y0092526D02*
X0033635Y0092526D01*
X0033635Y0091740D02*
X0035997Y0091740D01*
X0035997Y0090954D02*
X0033635Y0090954D01*
X0033635Y0090168D02*
X0035997Y0090168D01*
X0036539Y0089382D02*
X0033092Y0089382D01*
X0032943Y0089232D02*
X0033635Y0089924D01*
X0033635Y0098383D01*
X0032943Y0099075D01*
X0027634Y0099075D01*
X0026942Y0098383D01*
X0026942Y0089924D01*
X0027634Y0089232D01*
X0032943Y0089232D01*
X0033264Y0088596D02*
X0036131Y0088596D01*
X0035879Y0087810D02*
X0033517Y0087810D01*
X0033517Y0087024D02*
X0035879Y0087024D01*
X0035879Y0086238D02*
X0033517Y0086238D01*
X0033517Y0085452D02*
X0035879Y0085452D01*
X0035879Y0084667D02*
X0033517Y0084667D01*
X0033517Y0083881D02*
X0035879Y0083881D01*
X0035879Y0083095D02*
X0033517Y0083095D01*
X0033517Y0082309D02*
X0035879Y0082309D01*
X0035879Y0081523D02*
X0033517Y0081523D01*
X0034003Y0080737D02*
X0035879Y0080737D01*
X0035879Y0079951D02*
X0034789Y0079951D01*
X0034383Y0078130D02*
X0030170Y0082343D01*
X0030170Y0084114D01*
X0026824Y0083881D02*
X0025328Y0083881D01*
X0025328Y0084667D02*
X0026824Y0084667D01*
X0026824Y0085452D02*
X0025328Y0085452D01*
X0025328Y0086238D02*
X0026824Y0086238D01*
X0026824Y0087024D02*
X0025328Y0087024D01*
X0025328Y0087810D02*
X0026824Y0087810D01*
X0027076Y0088596D02*
X0025345Y0088596D01*
X0024868Y0089382D02*
X0027484Y0089382D01*
X0026942Y0090168D02*
X0024152Y0090168D01*
X0023436Y0090954D02*
X0026942Y0090954D01*
X0026942Y0091740D02*
X0022721Y0091740D01*
X0022005Y0092526D02*
X0026942Y0092526D01*
X0026942Y0093312D02*
X0021289Y0093312D01*
X0020573Y0094097D02*
X0026942Y0094097D01*
X0026942Y0094883D02*
X0019858Y0094883D01*
X0019142Y0095669D02*
X0026942Y0095669D01*
X0026942Y0096455D02*
X0018426Y0096455D01*
X0017711Y0097241D02*
X0026942Y0097241D01*
X0026942Y0098027D02*
X0017650Y0098027D01*
X0017650Y0098813D02*
X0027372Y0098813D01*
X0027118Y0104314D02*
X0020406Y0104314D01*
X0020406Y0105100D02*
X0026942Y0105100D01*
X0026942Y0105886D02*
X0020406Y0105886D01*
X0020406Y0106672D02*
X0026942Y0106672D01*
X0026942Y0107458D02*
X0020406Y0107458D01*
X0020464Y0108244D02*
X0026942Y0108244D01*
X0026942Y0109030D02*
X0021250Y0109030D01*
X0022036Y0109816D02*
X0026942Y0109816D01*
X0026942Y0110602D02*
X0022822Y0110602D01*
X0023608Y0111388D02*
X0026942Y0111388D01*
X0026942Y0112173D02*
X0024393Y0112173D01*
X0025179Y0112959D02*
X0026951Y0112959D01*
X0026509Y0113957D02*
X0042847Y0113760D01*
X0045603Y0111398D01*
X0044973Y0111004D01*
X0045367Y0109626D01*
X0045761Y0109232D02*
X0045761Y0106657D01*
X0047913Y0106657D01*
X0048267Y0106752D01*
X0048585Y0106936D01*
X0048844Y0107195D01*
X0049028Y0107513D01*
X0049040Y0107559D01*
X0050897Y0103102D01*
X0050878Y0102820D01*
X0051138Y0102523D01*
X0051290Y0102158D01*
X0051551Y0102051D01*
X0051936Y0101611D01*
X0049586Y0103343D01*
X0049208Y0103720D01*
X0049073Y0103720D01*
X0048965Y0103800D01*
X0048910Y0103792D01*
X0048910Y0104603D01*
X0048218Y0105295D01*
X0042690Y0105295D01*
X0042690Y0106693D01*
X0042821Y0106657D01*
X0044973Y0106657D01*
X0044973Y0109232D01*
X0045761Y0109232D01*
X0045761Y0109030D02*
X0044973Y0109030D01*
X0044973Y0108244D02*
X0045761Y0108244D01*
X0045761Y0107458D02*
X0044973Y0107458D01*
X0044973Y0106672D02*
X0045761Y0106672D01*
X0047967Y0106672D02*
X0049409Y0106672D01*
X0049082Y0107458D02*
X0048996Y0107458D01*
X0049737Y0105886D02*
X0042690Y0105886D01*
X0042690Y0106672D02*
X0042767Y0106672D01*
X0044973Y0110602D02*
X0045761Y0110602D01*
X0045761Y0111388D02*
X0044973Y0111388D01*
X0044973Y0112173D02*
X0045761Y0112173D01*
X0045494Y0112959D02*
X0042680Y0112959D01*
X0044003Y0114531D02*
X0026751Y0114531D01*
X0026509Y0113957D02*
X0026509Y0089154D01*
X0026509Y0064547D01*
X0046784Y0064547D01*
X0045052Y0066280D01*
X0045052Y0067421D01*
X0045446Y0067376D02*
X0048950Y0067376D01*
X0048808Y0067028D02*
X0045446Y0067028D01*
X0045446Y0064453D01*
X0047598Y0064453D01*
X0047952Y0064548D01*
X0048270Y0064731D01*
X0048529Y0064991D01*
X0048713Y0065309D01*
X0048808Y0065663D01*
X0048808Y0067028D01*
X0048808Y0066591D02*
X0048950Y0066591D01*
X0048950Y0065805D02*
X0048808Y0065805D01*
X0048950Y0065019D02*
X0048546Y0065019D01*
X0048753Y0064547D02*
X0046784Y0064547D01*
X0045446Y0065019D02*
X0044658Y0065019D01*
X0044658Y0065805D02*
X0045446Y0065805D01*
X0045446Y0066591D02*
X0044658Y0066591D01*
X0044658Y0068162D02*
X0045446Y0068162D01*
X0045446Y0068948D02*
X0044658Y0068948D01*
X0044658Y0069734D02*
X0045446Y0069734D01*
X0043913Y0071306D02*
X0048950Y0071306D01*
X0048950Y0072092D02*
X0048243Y0072092D01*
X0048595Y0072878D02*
X0048950Y0072878D01*
X0048950Y0073664D02*
X0048595Y0073664D01*
X0048753Y0074193D02*
X0048753Y0064547D01*
X0050524Y0063563D02*
X0049934Y0062776D01*
X0025918Y0062776D01*
X0023753Y0064547D01*
X0023753Y0088268D01*
X0013713Y0099291D01*
X0018831Y0104409D01*
X0018831Y0108839D01*
X0029461Y0119469D01*
X0032335Y0119469D01*
X0029580Y0116889D02*
X0029109Y0116889D01*
X0028323Y0116103D02*
X0030094Y0116103D01*
X0027537Y0115317D02*
X0043257Y0115317D01*
X0042512Y0116103D02*
X0041664Y0116103D01*
X0041863Y0119075D02*
X0039422Y0119469D01*
X0042196Y0124748D02*
X0042244Y0124748D01*
X0038423Y0129508D02*
X0032673Y0129508D01*
X0033595Y0130430D01*
X0033595Y0135100D01*
X0034911Y0133784D01*
X0036627Y0133784D01*
X0036627Y0138484D01*
X0037414Y0138484D01*
X0037414Y0133784D01*
X0039130Y0133784D01*
X0040485Y0135139D01*
X0040485Y0131735D01*
X0040288Y0131538D01*
X0040288Y0131507D01*
X0038423Y0129508D01*
X0039115Y0130249D02*
X0033414Y0130249D01*
X0033595Y0131035D02*
X0039848Y0131035D01*
X0040485Y0131821D02*
X0033595Y0131821D01*
X0033595Y0132607D02*
X0040485Y0132607D01*
X0040485Y0133393D02*
X0033595Y0133393D01*
X0033595Y0134179D02*
X0034516Y0134179D01*
X0033730Y0134965D02*
X0033595Y0134965D01*
X0036627Y0134965D02*
X0037414Y0134965D01*
X0037414Y0135751D02*
X0036627Y0135751D01*
X0036627Y0136537D02*
X0037414Y0136537D01*
X0037414Y0137323D02*
X0036627Y0137323D01*
X0036627Y0138109D02*
X0037414Y0138109D01*
X0037414Y0134179D02*
X0036627Y0134179D01*
X0039525Y0134179D02*
X0040485Y0134179D01*
X0040485Y0134965D02*
X0040311Y0134965D01*
X0041863Y0143878D02*
X0034737Y0143878D01*
X0032020Y0141161D01*
X0032020Y0131083D01*
X0030839Y0129902D01*
X0005643Y0106280D01*
X0005643Y0090531D01*
X0007808Y0087382D01*
X0007808Y0062776D01*
X0009580Y0061004D01*
X0015682Y0061004D01*
X0017847Y0058839D01*
X0017847Y0043681D01*
X0021272Y0045256D02*
X0021272Y0050571D01*
X0026534Y0054802D02*
X0026940Y0054802D01*
X0026154Y0055588D02*
X0025964Y0055588D01*
X0025369Y0056374D02*
X0025355Y0056374D01*
X0027887Y0058248D02*
X0021981Y0064154D01*
X0025328Y0065805D02*
X0026824Y0065805D01*
X0026824Y0065318D02*
X0027515Y0064626D01*
X0032825Y0064626D01*
X0033517Y0065318D01*
X0033517Y0073777D01*
X0032825Y0074468D01*
X0027515Y0074468D01*
X0026824Y0073777D01*
X0026824Y0065318D01*
X0027123Y0065019D02*
X0025663Y0065019D01*
X0025328Y0066591D02*
X0026824Y0066591D01*
X0026824Y0067376D02*
X0025328Y0067376D01*
X0025328Y0068162D02*
X0026824Y0068162D01*
X0026824Y0068948D02*
X0025328Y0068948D01*
X0025328Y0069734D02*
X0026824Y0069734D01*
X0026824Y0070520D02*
X0025328Y0070520D01*
X0025328Y0071306D02*
X0026824Y0071306D01*
X0026824Y0072092D02*
X0025328Y0072092D01*
X0025328Y0072878D02*
X0026824Y0072878D01*
X0026824Y0073664D02*
X0025328Y0073664D01*
X0025328Y0074450D02*
X0027497Y0074450D01*
X0025328Y0075236D02*
X0041509Y0075236D01*
X0041509Y0076021D02*
X0025328Y0076021D01*
X0025328Y0076807D02*
X0033478Y0076807D01*
X0032692Y0077593D02*
X0025328Y0077593D01*
X0025328Y0078379D02*
X0031906Y0078379D01*
X0031120Y0079165D02*
X0025328Y0079165D01*
X0025328Y0079951D02*
X0026824Y0079951D01*
X0026824Y0080737D02*
X0025328Y0080737D01*
X0025328Y0081523D02*
X0026824Y0081523D01*
X0026824Y0082309D02*
X0025328Y0082309D01*
X0025328Y0083095D02*
X0026824Y0083095D01*
X0026509Y0089154D02*
X0048005Y0089154D01*
X0044973Y0086122D01*
X0045367Y0086238D02*
X0051858Y0086238D01*
X0050918Y0086398D02*
X0050721Y0084823D01*
X0050918Y0086398D02*
X0048162Y0089154D01*
X0048005Y0089154D01*
X0048162Y0089154D02*
X0048162Y0089429D01*
X0045485Y0091319D01*
X0045091Y0091713D02*
X0045091Y0094287D01*
X0043046Y0094287D01*
X0044661Y0095650D01*
X0046419Y0095650D01*
X0047769Y0094575D01*
X0047769Y0094287D01*
X0045879Y0094287D01*
X0045879Y0091713D01*
X0045091Y0091713D01*
X0045091Y0091740D02*
X0045879Y0091740D01*
X0045879Y0092526D02*
X0045091Y0092526D01*
X0045091Y0093312D02*
X0045879Y0093312D01*
X0045879Y0094097D02*
X0045091Y0094097D01*
X0043753Y0094883D02*
X0047381Y0094883D01*
X0045879Y0090925D02*
X0045879Y0089091D01*
X0045367Y0089091D01*
X0045367Y0086516D01*
X0044580Y0086516D01*
X0044580Y0088350D01*
X0045091Y0088350D01*
X0045091Y0090925D01*
X0045879Y0090925D01*
X0045879Y0090168D02*
X0045091Y0090168D01*
X0045091Y0089382D02*
X0045879Y0089382D01*
X0045367Y0088596D02*
X0045091Y0088596D01*
X0045367Y0087810D02*
X0044580Y0087810D01*
X0044580Y0087024D02*
X0045367Y0087024D01*
X0045367Y0086516D02*
X0048729Y0086516D01*
X0048729Y0087880D01*
X0048634Y0088235D01*
X0048481Y0088501D01*
X0048703Y0088629D01*
X0048962Y0088888D01*
X0048979Y0088917D01*
X0056207Y0082192D01*
X0048499Y0081117D01*
X0047825Y0081791D01*
X0042572Y0081791D01*
X0042572Y0083154D01*
X0044580Y0083154D01*
X0044580Y0085728D01*
X0045367Y0085728D01*
X0045367Y0083154D01*
X0047519Y0083154D01*
X0047873Y0083249D01*
X0048191Y0083432D01*
X0048451Y0083691D01*
X0048634Y0084009D01*
X0048729Y0084364D01*
X0048729Y0085728D01*
X0045367Y0085728D01*
X0045367Y0086516D01*
X0045367Y0085452D02*
X0044580Y0085452D01*
X0044580Y0084667D02*
X0045367Y0084667D01*
X0045367Y0083881D02*
X0044580Y0083881D01*
X0042572Y0083095D02*
X0055237Y0083095D01*
X0054392Y0083881D02*
X0048560Y0083881D01*
X0048729Y0084667D02*
X0053548Y0084667D01*
X0052703Y0085452D02*
X0048729Y0085452D01*
X0048729Y0087024D02*
X0051013Y0087024D01*
X0050168Y0087810D02*
X0048729Y0087810D01*
X0048646Y0088596D02*
X0049323Y0088596D01*
X0048093Y0081523D02*
X0051408Y0081523D01*
X0052099Y0078130D02*
X0057611Y0078917D01*
X0064068Y0078917D01*
X0064068Y0076949D02*
X0055446Y0076949D01*
X0055446Y0076555D01*
X0057020Y0074390D01*
X0055446Y0076949D02*
X0050524Y0074390D01*
X0050524Y0063563D01*
X0052099Y0059823D02*
X0050721Y0058248D01*
X0027887Y0058248D01*
X0030521Y0054016D02*
X0040272Y0054016D01*
X0040272Y0053230D02*
X0031115Y0053230D01*
X0028359Y0050571D02*
X0031308Y0041118D01*
X0024332Y0028867D02*
X0010773Y0028867D01*
X0010773Y0028081D02*
X0025118Y0028081D01*
X0025904Y0027295D02*
X0010067Y0027295D01*
X0009281Y0026509D02*
X0026690Y0026509D01*
X0039910Y0009219D02*
X0040500Y0009219D01*
X0039910Y0008433D02*
X0041413Y0008433D01*
X0056821Y0008433D02*
X0063588Y0008433D01*
X0063169Y0009219D02*
X0057729Y0009219D01*
X0058449Y0010005D02*
X0062676Y0010005D01*
X0061875Y0010791D02*
X0058775Y0010791D01*
X0059100Y0011577D02*
X0061074Y0011577D01*
X0060273Y0012363D02*
X0059146Y0012363D01*
X0059146Y0013148D02*
X0059472Y0013148D01*
X0065682Y0007264D02*
X0068831Y0004114D01*
X0105446Y0004114D01*
X0114225Y0012894D01*
X0114265Y0012894D01*
X0114265Y0022894D02*
X0119107Y0027736D01*
X0125339Y0028867D02*
X0127480Y0028867D01*
X0127480Y0029653D02*
X0126125Y0029653D01*
X0126911Y0030439D02*
X0128085Y0030439D01*
X0127696Y0031224D02*
X0128871Y0031224D01*
X0128482Y0032010D02*
X0131902Y0032010D01*
X0132688Y0032796D02*
X0129268Y0032796D01*
X0130054Y0033582D02*
X0133474Y0033582D01*
X0134260Y0034368D02*
X0130840Y0034368D01*
X0131626Y0035154D02*
X0147447Y0035154D01*
X0148233Y0035940D02*
X0132412Y0035940D01*
X0133198Y0036726D02*
X0149019Y0036726D01*
X0149805Y0037512D02*
X0133984Y0037512D01*
X0134770Y0038298D02*
X0136603Y0038298D01*
X0135817Y0039084D02*
X0135556Y0039084D01*
X0128971Y0025723D02*
X0128639Y0025723D01*
X0102390Y0035154D02*
X0100997Y0035154D01*
X0100997Y0035940D02*
X0102359Y0035940D01*
X0102359Y0036726D02*
X0100997Y0036726D01*
X0098241Y0037815D02*
X0098123Y0040059D01*
X0098123Y0050768D01*
X0096154Y0050768D02*
X0096154Y0044035D01*
X0095209Y0040728D01*
X0095209Y0034429D01*
X0092060Y0039154D02*
X0094186Y0044035D01*
X0094186Y0050768D01*
X0080406Y0050768D02*
X0080406Y0026752D01*
X0084265Y0022894D01*
X0071076Y0010005D02*
X0070288Y0010005D01*
X0070288Y0009219D02*
X0071076Y0009219D01*
X0071076Y0008433D02*
X0070288Y0008433D01*
X0070288Y0007647D02*
X0071076Y0007647D01*
X0066532Y0010005D02*
X0066320Y0010005D01*
X0055249Y0048515D02*
X0054251Y0048515D01*
X0055146Y0054016D02*
X0055249Y0054016D01*
X0055249Y0054802D02*
X0055096Y0054802D01*
X0055249Y0055588D02*
X0054533Y0055588D01*
X0054006Y0056374D02*
X0055249Y0056374D01*
X0055249Y0057160D02*
X0054490Y0057160D01*
X0055008Y0057945D02*
X0055249Y0057945D01*
X0055249Y0058393D02*
X0055249Y0058393D01*
X0052099Y0059823D02*
X0052099Y0067894D01*
X0056824Y0071043D01*
X0064068Y0071043D01*
X0059721Y0067376D02*
X0057599Y0067376D01*
X0057784Y0066591D02*
X0056588Y0066591D01*
X0057035Y0065805D02*
X0055578Y0065805D01*
X0055249Y0065019D02*
X0056369Y0065019D01*
X0055660Y0064233D02*
X0055249Y0064233D01*
X0048950Y0068162D02*
X0048808Y0068162D01*
X0048808Y0068948D02*
X0048950Y0068948D01*
X0048950Y0069734D02*
X0048597Y0069734D01*
X0048950Y0070520D02*
X0043065Y0070520D01*
X0039698Y0069547D02*
X0039225Y0069547D01*
X0039698Y0069547D02*
X0045052Y0074508D01*
X0045524Y0075374D01*
X0048556Y0076161D01*
X0052099Y0078130D01*
X0048892Y0074450D02*
X0048595Y0074450D01*
X0044658Y0078130D02*
X0034383Y0078130D01*
X0032843Y0074450D02*
X0036552Y0074450D01*
X0035879Y0073664D02*
X0033517Y0073664D01*
X0033517Y0072878D02*
X0035879Y0072878D01*
X0035879Y0072092D02*
X0033517Y0072092D01*
X0033517Y0071306D02*
X0035879Y0071306D01*
X0035879Y0070520D02*
X0033517Y0070520D01*
X0033517Y0069734D02*
X0035879Y0069734D01*
X0035879Y0068948D02*
X0033517Y0068948D01*
X0033517Y0068162D02*
X0035879Y0068162D01*
X0035879Y0067376D02*
X0033517Y0067376D01*
X0033517Y0066591D02*
X0035879Y0066591D01*
X0035879Y0065805D02*
X0033517Y0065805D01*
X0033217Y0065019D02*
X0036178Y0065019D01*
X0044658Y0078130D02*
X0044973Y0079035D01*
X0058241Y0080886D01*
X0064068Y0080886D01*
X0064068Y0088996D02*
X0065446Y0090374D01*
X0056627Y0098642D01*
X0055819Y0101957D02*
X0074404Y0101957D01*
X0074501Y0101713D02*
X0070209Y0105610D01*
X0070128Y0105886D02*
X0064107Y0105886D01*
X0063989Y0105728D02*
X0063713Y0105610D01*
X0063989Y0105728D02*
X0056627Y0105728D01*
X0057020Y0105100D02*
X0056233Y0105100D01*
X0056233Y0104314D02*
X0057020Y0104314D01*
X0057020Y0103528D02*
X0056233Y0103528D01*
X0055131Y0102743D02*
X0060803Y0102743D01*
X0060753Y0101171D02*
X0059705Y0101171D01*
X0060170Y0100385D02*
X0060170Y0100385D01*
X0060170Y0100217D02*
X0060170Y0100217D01*
X0063320Y0102743D02*
X0064107Y0102743D01*
X0064107Y0103528D02*
X0063320Y0103528D01*
X0063320Y0104314D02*
X0064107Y0104314D01*
X0064107Y0105100D02*
X0063320Y0105100D01*
X0066624Y0102743D02*
X0073549Y0102743D01*
X0072694Y0103528D02*
X0067383Y0103528D01*
X0067469Y0104314D02*
X0071839Y0104314D01*
X0070983Y0105100D02*
X0067469Y0105100D01*
X0067469Y0106672D02*
X0069273Y0106672D01*
X0068418Y0107458D02*
X0067445Y0107458D01*
X0074501Y0101713D02*
X0074501Y0097224D01*
X0074501Y0097241D02*
X0074501Y0097241D01*
X0074501Y0096455D02*
X0074501Y0096455D01*
X0074501Y0095669D02*
X0074501Y0095669D01*
X0074501Y0094883D02*
X0074501Y0094883D01*
X0074501Y0094097D02*
X0074501Y0094097D01*
X0074501Y0093312D02*
X0074501Y0093312D01*
X0070798Y0093312D02*
X0064615Y0093312D01*
X0063776Y0094097D02*
X0070328Y0094097D01*
X0070328Y0094883D02*
X0062938Y0094883D01*
X0062100Y0095669D02*
X0070328Y0095669D01*
X0070328Y0096455D02*
X0067252Y0096455D01*
X0074501Y0098027D02*
X0074501Y0098027D01*
X0074501Y0098813D02*
X0074501Y0098813D01*
X0074501Y0099599D02*
X0074501Y0099599D01*
X0074501Y0100385D02*
X0074501Y0100385D01*
X0074501Y0101171D02*
X0074501Y0101171D01*
X0087650Y0117675D02*
X0088438Y0117675D01*
X0088438Y0118461D02*
X0087650Y0118461D01*
X0087650Y0119247D02*
X0088438Y0119247D01*
X0088438Y0120033D02*
X0087650Y0120033D01*
X0105093Y0143610D02*
X0113268Y0143610D01*
X0114048Y0144396D02*
X0108955Y0144396D01*
X0110227Y0145182D02*
X0113513Y0145182D01*
X0112839Y0145968D02*
X0111013Y0145968D01*
X0111424Y0146754D02*
X0112386Y0146754D01*
X0112099Y0147540D02*
X0111749Y0147540D01*
X0111902Y0148325D02*
X0111951Y0148325D01*
X0088202Y0151469D02*
X0087414Y0151469D01*
X0087414Y0150683D02*
X0081902Y0150683D01*
X0081902Y0149897D02*
X0083658Y0149897D01*
X0083658Y0149111D02*
X0081902Y0149111D01*
X0081902Y0148325D02*
X0083658Y0148325D01*
X0082864Y0147540D02*
X0081902Y0147540D01*
X0081799Y0146754D02*
X0082079Y0146754D01*
X0081293Y0145968D02*
X0081013Y0145968D01*
X0081332Y0151469D02*
X0083658Y0151469D01*
X0083658Y0152255D02*
X0080546Y0152255D01*
X0087414Y0152255D02*
X0088202Y0152255D01*
X0088202Y0153041D02*
X0087414Y0153041D01*
X0087414Y0153827D02*
X0088202Y0153827D01*
X0047020Y0148878D02*
X0041863Y0143878D01*
X0041756Y0145968D02*
X0041013Y0145968D01*
X0041799Y0146754D02*
X0042242Y0146754D01*
X0042139Y0147540D02*
X0041902Y0147540D01*
X0041902Y0148325D02*
X0042139Y0148325D01*
X0042139Y0149111D02*
X0041902Y0149111D01*
X0041902Y0149897D02*
X0042139Y0149897D01*
X0042139Y0150683D02*
X0041902Y0150683D01*
X0041332Y0151469D02*
X0042709Y0151469D01*
X0043495Y0152255D02*
X0040546Y0152255D01*
X0039760Y0153041D02*
X0044281Y0153041D01*
X0028871Y0134965D02*
X0003690Y0134965D01*
X0003690Y0134179D02*
X0028871Y0134179D01*
X0028871Y0133393D02*
X0003690Y0133393D01*
X0003690Y0132607D02*
X0028871Y0132607D01*
X0028348Y0131821D02*
X0017295Y0131821D01*
X0017819Y0131035D02*
X0027490Y0131035D01*
X0026632Y0130249D02*
X0017863Y0130249D01*
X0017863Y0129464D02*
X0025774Y0129464D01*
X0024916Y0128678D02*
X0017863Y0128678D01*
X0017863Y0127892D02*
X0024058Y0127892D01*
X0023200Y0127106D02*
X0017863Y0127106D01*
X0017863Y0126320D02*
X0022342Y0126320D01*
X0021484Y0125534D02*
X0014107Y0125534D01*
X0013713Y0125472D02*
X0009383Y0117205D01*
X0010420Y0118957D02*
X0010774Y0118862D01*
X0013320Y0118862D01*
X0013320Y0125079D01*
X0009564Y0125079D01*
X0009564Y0120072D01*
X0009659Y0119718D01*
X0009842Y0119400D01*
X0010102Y0119141D01*
X0010420Y0118957D01*
X0009996Y0119247D02*
X0003690Y0119247D01*
X0003690Y0120033D02*
X0009574Y0120033D01*
X0009564Y0120819D02*
X0003690Y0120819D01*
X0003690Y0121604D02*
X0009564Y0121604D01*
X0009564Y0122390D02*
X0003690Y0122390D01*
X0003690Y0123176D02*
X0009564Y0123176D01*
X0009564Y0123962D02*
X0003690Y0123962D01*
X0003690Y0124748D02*
X0009564Y0124748D01*
X0009564Y0126320D02*
X0003690Y0126320D01*
X0003690Y0127106D02*
X0009564Y0127106D01*
X0009564Y0127892D02*
X0003690Y0127892D01*
X0003690Y0128678D02*
X0009564Y0128678D01*
X0009564Y0129464D02*
X0003690Y0129464D01*
X0003690Y0130249D02*
X0009564Y0130249D01*
X0009607Y0131035D02*
X0003690Y0131035D01*
X0003690Y0131821D02*
X0010131Y0131821D01*
X0013320Y0131821D02*
X0014107Y0131821D01*
X0014107Y0131035D02*
X0013320Y0131035D01*
X0013320Y0130249D02*
X0014107Y0130249D01*
X0014107Y0129464D02*
X0013320Y0129464D01*
X0013320Y0128678D02*
X0014107Y0128678D01*
X0014107Y0127892D02*
X0013320Y0127892D01*
X0013320Y0127106D02*
X0014107Y0127106D01*
X0014107Y0126320D02*
X0013320Y0126320D01*
X0013320Y0125534D02*
X0003690Y0125534D01*
X0003690Y0118461D02*
X0013763Y0118461D01*
X0014107Y0119247D02*
X0013320Y0119247D01*
X0013320Y0120033D02*
X0014107Y0120033D01*
X0014107Y0120819D02*
X0013320Y0120819D01*
X0013320Y0121604D02*
X0014107Y0121604D01*
X0014107Y0122390D02*
X0013320Y0122390D01*
X0013320Y0123176D02*
X0014107Y0123176D01*
X0014107Y0123962D02*
X0013320Y0123962D01*
X0013320Y0124748D02*
X0014107Y0124748D01*
X0017863Y0124748D02*
X0020627Y0124748D01*
X0019769Y0123962D02*
X0017863Y0123962D01*
X0017863Y0123176D02*
X0018911Y0123176D01*
X0018053Y0122390D02*
X0017863Y0122390D01*
X0012905Y0117675D02*
X0003690Y0117675D01*
X0003690Y0116889D02*
X0012047Y0116889D01*
X0011189Y0116103D02*
X0003690Y0116103D01*
X0003690Y0115317D02*
X0010331Y0115317D01*
X0009473Y0114531D02*
X0003690Y0114531D01*
X0003690Y0113745D02*
X0008615Y0113745D01*
X0007757Y0112959D02*
X0003690Y0112959D01*
X0003690Y0112173D02*
X0006899Y0112173D01*
X0006041Y0111388D02*
X0003690Y0111388D01*
X0003690Y0110602D02*
X0005183Y0110602D01*
X0004325Y0109816D02*
X0003690Y0109816D01*
X0017650Y0100385D02*
X0041914Y0100385D01*
X0041942Y0099599D02*
X0017650Y0099599D01*
X0017820Y0101171D02*
X0041824Y0101171D01*
X0036427Y0098813D02*
X0033205Y0098813D01*
X0033635Y0098027D02*
X0035997Y0098027D01*
X0035997Y0097241D02*
X0033635Y0097241D01*
X0033635Y0096455D02*
X0035997Y0096455D01*
X0035997Y0095669D02*
X0033635Y0095669D01*
X0033635Y0094883D02*
X0035997Y0094883D01*
X0034814Y0101957D02*
X0018606Y0101957D01*
X0019392Y0102743D02*
X0034039Y0102743D01*
X0033253Y0103528D02*
X0020178Y0103528D01*
X0030288Y0108720D02*
X0035879Y0103130D01*
X0044748Y0113745D02*
X0025965Y0113745D01*
X0048413Y0105100D02*
X0050064Y0105100D01*
X0050392Y0104314D02*
X0048910Y0104314D01*
X0049400Y0103528D02*
X0050719Y0103528D01*
X0050946Y0102743D02*
X0050401Y0102743D01*
X0051467Y0101957D02*
X0051634Y0101957D01*
X0056082Y0082309D02*
X0042572Y0082309D01*
X0018438Y0082309D02*
X0016434Y0082309D01*
X0016244Y0082119D02*
X0016811Y0082686D01*
X0017282Y0083334D01*
X0017646Y0084049D01*
X0017894Y0084811D01*
X0018020Y0085603D01*
X0018020Y0085610D01*
X0013320Y0085610D01*
X0013320Y0076398D01*
X0018020Y0076398D01*
X0018020Y0076405D01*
X0017894Y0077197D01*
X0017646Y0077959D01*
X0017282Y0078674D01*
X0016811Y0079322D01*
X0016244Y0079889D01*
X0015596Y0080360D01*
X0014881Y0080724D01*
X0014119Y0080972D01*
X0013918Y0081004D01*
X0014119Y0081036D01*
X0014881Y0081283D01*
X0015596Y0081647D01*
X0016244Y0082119D01*
X0015351Y0081523D02*
X0018438Y0081523D01*
X0018438Y0080737D02*
X0014843Y0080737D01*
X0013320Y0080737D02*
X0012532Y0080737D01*
X0012532Y0081523D02*
X0013320Y0081523D01*
X0013320Y0082309D02*
X0012532Y0082309D01*
X0012532Y0083095D02*
X0013320Y0083095D01*
X0013320Y0083881D02*
X0012532Y0083881D01*
X0012532Y0084667D02*
X0013320Y0084667D01*
X0013320Y0085452D02*
X0012532Y0085452D01*
X0013320Y0086238D02*
X0017945Y0086238D01*
X0017996Y0085452D02*
X0018438Y0085452D01*
X0018438Y0084667D02*
X0017847Y0084667D01*
X0017561Y0083881D02*
X0018438Y0083881D01*
X0018438Y0083095D02*
X0017108Y0083095D01*
X0016159Y0079951D02*
X0018438Y0079951D01*
X0018438Y0079165D02*
X0016925Y0079165D01*
X0017433Y0078379D02*
X0018438Y0078379D01*
X0018438Y0077593D02*
X0017765Y0077593D01*
X0017956Y0076807D02*
X0018438Y0076807D01*
X0018438Y0076021D02*
X0013320Y0076021D01*
X0013320Y0075610D02*
X0018020Y0075610D01*
X0018020Y0075603D01*
X0017894Y0074811D01*
X0017646Y0074049D01*
X0017282Y0073334D01*
X0016811Y0072686D01*
X0016244Y0072119D01*
X0015596Y0071647D01*
X0014881Y0071283D01*
X0014119Y0071036D01*
X0013327Y0070910D01*
X0013320Y0070910D01*
X0013320Y0075610D01*
X0013320Y0075236D02*
X0012532Y0075236D01*
X0012532Y0074450D02*
X0013320Y0074450D01*
X0013320Y0073664D02*
X0012532Y0073664D01*
X0012532Y0072878D02*
X0013320Y0072878D01*
X0013320Y0072092D02*
X0012532Y0072092D01*
X0012532Y0071306D02*
X0013320Y0071306D01*
X0014926Y0071306D02*
X0018438Y0071306D01*
X0018438Y0072092D02*
X0016207Y0072092D01*
X0016951Y0072878D02*
X0018438Y0072878D01*
X0018438Y0073664D02*
X0017450Y0073664D01*
X0017777Y0074450D02*
X0018438Y0074450D01*
X0018438Y0075236D02*
X0017961Y0075236D01*
X0018438Y0070520D02*
X0014778Y0070520D01*
X0016099Y0069734D02*
X0018438Y0069734D01*
X0018438Y0068948D02*
X0016885Y0068948D01*
X0011074Y0070520D02*
X0009383Y0070520D01*
X0009383Y0069734D02*
X0009753Y0069734D01*
X0009383Y0071306D02*
X0010926Y0071306D01*
X0009644Y0072092D02*
X0009383Y0072092D01*
X0012532Y0076807D02*
X0013320Y0076807D01*
X0013320Y0077593D02*
X0012532Y0077593D01*
X0012532Y0078379D02*
X0013320Y0078379D01*
X0013320Y0079165D02*
X0012532Y0079165D01*
X0012532Y0079951D02*
X0013320Y0079951D01*
X0012926Y0056004D02*
X0008005Y0047343D01*
X0007808Y0033642D01*
X0110524Y0058996D02*
X0117887Y0058996D01*
X0120800Y0056083D01*
X0134186Y0056083D01*
X0130249Y0058051D02*
X0133398Y0061201D01*
X0133398Y0065138D01*
X0136548Y0068287D01*
X0143517Y0068287D01*
X0148635Y0063169D01*
X0148635Y0073169D02*
X0145839Y0073169D01*
X0140879Y0078130D01*
X0130249Y0058051D02*
X0121194Y0058051D01*
X0118044Y0061201D01*
X0110524Y0061201D01*
X0114098Y0057160D02*
X0117496Y0057160D01*
X0139493Y0131035D02*
X0143635Y0131035D01*
X0144278Y0131821D02*
X0138707Y0131821D01*
X0144495Y0157756D02*
X0016791Y0157756D01*
D26*
X0045406Y0123996D03*
X0069225Y0102736D03*
X0050721Y0084823D03*
X0057020Y0074390D03*
X0037926Y0052343D03*
X0021272Y0045256D03*
X0007611Y0029311D03*
X0050918Y0033248D03*
X0053280Y0021043D03*
X0063123Y0016319D03*
X0068831Y0036004D03*
X0074540Y0036004D03*
X0092060Y0039154D03*
X0101706Y0044075D03*
X0118241Y0043878D03*
X0123162Y0052539D03*
X0127099Y0062972D03*
X0128871Y0068091D03*
X0133989Y0101161D03*
X0125524Y0107461D03*
X0124146Y0112972D03*
X0109580Y0114547D03*
X0103871Y0107461D03*
X0101706Y0113563D03*
X0115288Y0133445D03*
X0095013Y0144075D03*
X0094422Y0152539D03*
X0079855Y0126161D03*
X0137139Y0128917D03*
X0130643Y0028524D03*
X0009383Y0117205D03*
D27*
X0087650Y0111870D02*
X0091391Y0109311D01*
X0087650Y0111870D02*
X0088044Y0116516D01*
X0095524Y0116516D02*
X0096706Y0114941D01*
X0096706Y0114350D01*
X0098477Y0109311D01*
X0109580Y0114547D02*
X0111942Y0114744D01*
X0112296Y0114705D01*
X0114265Y0116280D01*
X0118005Y0124941D02*
X0121587Y0125335D01*
X0123910Y0139075D01*
X0116824Y0139075D02*
X0115957Y0131673D01*
X0115957Y0138051D01*
X0112099Y0139311D01*
X0111351Y0133134D02*
X0109741Y0132972D01*
X0111351Y0133134D02*
X0115288Y0133445D01*
X0115957Y0131673D01*
X0110524Y0124941D02*
X0105682Y0125925D01*
X0103162Y0125492D01*
X0100052Y0125531D01*
X0093098Y0125418D01*
X0093591Y0126699D01*
X0096741Y0132972D01*
X0099694Y0141551D01*
X0107020Y0148878D01*
X0093098Y0125418D02*
X0091784Y0125177D01*
D28*
X0096706Y0114350D02*
X0099737Y0113760D01*
X0101706Y0113563D01*
M02*
