%
M48
M72
T01C0.02000
T02C0.02362
T03C0.04000
T04C0.13386
%
T01
X55800Y117382
X60800Y117382
X65800Y117382
X70800Y117382
X75800Y117382
X122650Y100413
X122650Y95413
X122650Y90413
X122650Y85413
X122650Y80413
T02
X128871Y68091
X127099Y62972
X123162Y52539
X118241Y43878
X130643Y32461
X129855Y9232
X101706Y44075
X92060Y39154
X74540Y36004
X68831Y36004
X53280Y21043
X63123Y16319
X50918Y33248
X37926Y52343
X21272Y45256
X7611Y29311
X57020Y74390
X50721Y84823
X69225Y102736
X79855Y126161
X95013Y144075
X94422Y152539
X115288Y133445
X109580Y114547
X103871Y107461
X101706Y113563
X124146Y112972
X125524Y107461
X133989Y101161
X137139Y128917
X45406Y123996
X10170Y117205
T03
X37020Y138878
X37020Y148878
X47020Y148878
X47020Y138878
X57020Y138878
X57020Y148878
X67020Y148878
X67020Y138878
X77020Y138878
X77020Y148878
X57060Y125492
X12926Y86004
X12926Y76004
X12926Y66004
X12926Y56004
X12926Y46004
X12926Y36004
X44265Y12657
X54265Y12657
X60367Y25571
X84265Y22894
X94265Y22894
X104265Y22894
X114265Y22894
X124265Y22894
X124265Y12894
X114265Y12894
X104265Y12894
X94265Y12894
X84265Y12894
X138635Y43169
X148635Y43169
X148635Y53169
X138635Y53169
X138635Y63169
X148635Y63169
X148635Y73169
X148635Y83169
X138635Y83169
X138635Y73169
X117020Y148878
X107020Y148878
T04
X17650Y17894
X17650Y143878
X143635Y143878
X143635Y17894
M30
