%
M48
M72
T01C0.01969
T02C0.02362
T03C0.03200
T04C0.04000
T05C0.13386
%
T01
X31745Y16921
X76548Y27394
X79776Y53063
X73713Y61567
X79776Y71331
X90564Y70465
X91666Y59441
X101666Y70228
X90879Y82197
X76233Y86921
X73556Y83693
X105603Y53693
X107099Y85425
X143477Y34244
X150643Y28732
X71902Y154087
T02
X83320Y132433
X101076Y131488
X117099Y147709
X121981Y147630
X120013Y154165
X132454Y152433
X121824Y136764
X118831Y115268
X117020Y110307
X105997Y101409
X124501Y85110
X131509Y78811
X131194Y59992
X125997Y52354
X116627Y35346
X99304Y35425
X90485Y28417
X62375Y30386
X59934Y41567
X51902Y40937
X43623Y42619
X38595Y41331
X45367Y28969
X38753Y28890
X46076Y20622
X24265Y45110
X33556Y54795
X30406Y63063
X38438Y91803
X28438Y104087
X13635Y116291
X40328Y123220
X55052Y128890
X57650Y122591
X57414Y117709
X81587Y113142
T03
X52887Y98102
X42887Y98102
X46233Y77917
X46233Y58917
T04
X12926Y55504
X12926Y65504
X12926Y75504
X12926Y85504
X31312Y124717
X37020Y138378
X37020Y148378
X47020Y148378
X47020Y138378
X57020Y138378
X57020Y148378
X67020Y148378
X67020Y138378
X77020Y138378
X77020Y148378
X96076Y121882
X106076Y121882
X105209Y109598
X95209Y109598
X73320Y112669
X63320Y112669
X12926Y45504
X12926Y35504
X53517Y18929
X84265Y22394
X94265Y22394
X104265Y22394
X114265Y22394
X124265Y22394
X124265Y12394
X114265Y12394
X104265Y12394
X94265Y12394
X84265Y12394
X138635Y42669
X148635Y42669
X148635Y52669
X148635Y62669
X138635Y62669
X138635Y52669
X138635Y72669
X148635Y72669
X148635Y82669
X138635Y82669
X138969Y102594
X138969Y119594
T05
X17650Y17394
X143635Y17394
X143635Y143378
X17650Y143378
M30
