G75*
%MOIN*%
%OFA0B0*%
%FSLAX25Y25*%
%IPPOS*%
%LPD*%
%AMOC8*
5,1,8,0,0,1.08239X$1,22.5*
%
%ADD10C,0.13986*%
%ADD11R,0.18710X0.04537*%
%ADD12R,0.13986X0.06899*%
%ADD13R,0.04734X0.02175*%
%ADD14R,0.04931X0.06506*%
%ADD15C,0.04537*%
%ADD16C,0.08000*%
%ADD17OC8,0.08000*%
%ADD18C,0.07400*%
%ADD19R,0.05600X0.07600*%
%ADD20OC8,0.04362*%
D10*
X0017650Y0017894D03*
X0017650Y0143878D03*
X0143635Y0143878D03*
X0143635Y0017894D03*
D11*
X0034894Y0110413D03*
X0034894Y0118287D03*
D12*
X0014422Y0127736D03*
X0014422Y0100965D03*
D13*
X0132414Y0106594D03*
X0132414Y0109154D03*
X0132414Y0111713D03*
X0132414Y0114272D03*
X0132414Y0116831D03*
D14*
X0144225Y0127461D03*
X0144225Y0095965D03*
D15*
X0122650Y0095413D03*
X0122650Y0090413D03*
X0122650Y0085413D03*
X0122650Y0080413D03*
X0122650Y0100413D03*
X0075800Y0117382D03*
X0070800Y0117382D03*
X0065800Y0117382D03*
X0060800Y0117382D03*
X0055800Y0117382D03*
D16*
X0012926Y0086004D03*
X0012926Y0076004D03*
X0012926Y0066004D03*
X0012926Y0056004D03*
X0012926Y0046004D03*
X0012926Y0036004D03*
X0044265Y0012657D03*
X0054265Y0012657D03*
X0107020Y0148878D03*
X0117020Y0148878D03*
D17*
X0077020Y0148878D03*
X0067020Y0148878D03*
X0057020Y0148878D03*
X0047020Y0148878D03*
X0037020Y0148878D03*
X0037020Y0138878D03*
X0047020Y0138878D03*
X0057020Y0138878D03*
X0067020Y0138878D03*
X0077020Y0138878D03*
X0138635Y0083169D03*
X0148635Y0083169D03*
X0148635Y0073169D03*
X0148635Y0063169D03*
X0138635Y0063169D03*
X0138635Y0073169D03*
X0138635Y0053169D03*
X0148635Y0053169D03*
X0148635Y0043169D03*
X0138635Y0043169D03*
X0124265Y0022894D03*
X0114265Y0022894D03*
X0114265Y0012894D03*
X0124265Y0012894D03*
X0104265Y0012894D03*
X0094265Y0012894D03*
X0084265Y0012894D03*
X0084265Y0022894D03*
X0094265Y0022894D03*
X0104265Y0022894D03*
D18*
X0060367Y0025571D03*
X0057060Y0125492D03*
D19*
X0114985Y0123563D03*
X0125985Y0123563D03*
D20*
X0124146Y0112972D03*
X0125524Y0107461D03*
X0133989Y0101161D03*
X0109580Y0114547D03*
X0103871Y0107461D03*
X0101706Y0113563D03*
X0115288Y0133445D03*
X0095013Y0144075D03*
X0094422Y0152539D03*
X0079855Y0126161D03*
X0069225Y0102736D03*
X0050721Y0084823D03*
X0057020Y0074390D03*
X0037926Y0052343D03*
X0021272Y0045256D03*
X0007611Y0029311D03*
X0050918Y0033248D03*
X0053280Y0021043D03*
X0063123Y0016319D03*
X0068831Y0036004D03*
X0074540Y0036004D03*
X0092060Y0039154D03*
X0101706Y0044075D03*
X0118241Y0043878D03*
X0123162Y0052539D03*
X0127099Y0062972D03*
X0128871Y0068091D03*
X0130643Y0032461D03*
X0129855Y0009232D03*
X0045406Y0123996D03*
X0010170Y0117205D03*
X0137139Y0128917D03*
M02*
