G75*
%MOIN*%
%OFA0B0*%
%FSLAX25Y25*%
%IPPOS*%
%LPD*%
%AMOC8*
5,1,8,0,0,1.08239X$1,22.5*
%
%ADD10R,0.03150X0.04724*%
%ADD11R,0.04724X0.03150*%
%ADD12R,0.05500X0.05500*%
%ADD13R,0.05512X0.04724*%
%ADD14R,0.03937X0.05512*%
%ADD15R,0.04500X0.04000*%
%ADD16R,0.05906X0.01575*%
%ADD17R,0.05906X0.01102*%
%ADD18R,0.01575X0.05906*%
%ADD19R,0.01102X0.05906*%
%ADD20R,0.04331X0.07480*%
%ADD21R,0.05512X0.10433*%
D10*
X0021272Y0050571D03*
X0028359Y0050571D03*
X0066942Y0030571D03*
X0074028Y0030571D03*
X0075288Y0042421D03*
X0068202Y0042421D03*
X0098241Y0037815D03*
X0105328Y0037815D03*
X0109619Y0037894D03*
X0106272Y0043957D03*
X0113359Y0043957D03*
X0116706Y0037894D03*
X0116666Y0099154D03*
X0109580Y0099154D03*
X0098477Y0109311D03*
X0091391Y0109311D03*
X0105013Y0139311D03*
X0112099Y0139311D03*
X0116824Y0139075D03*
X0123910Y0139075D03*
X0039422Y0119469D03*
X0032335Y0119469D03*
D11*
X0045367Y0109626D03*
X0045367Y0102539D03*
X0045485Y0098406D03*
X0045485Y0091319D03*
X0044973Y0086122D03*
X0044973Y0079035D03*
X0045052Y0074508D03*
X0045052Y0067421D03*
X0044028Y0052736D03*
X0044028Y0045650D03*
X0051391Y0045768D03*
X0051391Y0052854D03*
X0056627Y0098642D03*
X0056627Y0105728D03*
X0063713Y0105610D03*
X0063713Y0098524D03*
X0066587Y0122618D03*
X0066587Y0129705D03*
X0073831Y0129705D03*
X0073831Y0122618D03*
X0103162Y0125492D03*
X0103162Y0118406D03*
D12*
X0096741Y0132972D03*
X0109741Y0132972D03*
D13*
X0087808Y0138799D03*
X0087808Y0150610D03*
X0070682Y0022618D03*
X0070682Y0010807D03*
D14*
X0088044Y0116516D03*
X0095524Y0116516D03*
X0091784Y0125177D03*
X0110524Y0124941D03*
X0118005Y0124941D03*
X0114265Y0116280D03*
D15*
X0037312Y0034118D03*
X0037312Y0041118D03*
X0045312Y0037618D03*
D16*
X0064068Y0058996D03*
X0064068Y0088996D03*
X0110524Y0088996D03*
X0110524Y0058996D03*
D17*
X0110524Y0061201D03*
X0110524Y0063169D03*
X0110524Y0065138D03*
X0110524Y0067106D03*
X0110524Y0069075D03*
X0110524Y0071043D03*
X0110524Y0073012D03*
X0110524Y0074980D03*
X0110524Y0076949D03*
X0110524Y0078917D03*
X0110524Y0080886D03*
X0110524Y0082854D03*
X0110524Y0084823D03*
X0110524Y0086791D03*
X0064068Y0086791D03*
X0064068Y0084823D03*
X0064068Y0082854D03*
X0064068Y0080886D03*
X0064068Y0078917D03*
X0064068Y0076949D03*
X0064068Y0074980D03*
X0064068Y0073012D03*
X0064068Y0071043D03*
X0064068Y0069075D03*
X0064068Y0067106D03*
X0064068Y0065138D03*
X0064068Y0063169D03*
X0064068Y0061201D03*
D18*
X0072296Y0050768D03*
X0102296Y0050768D03*
X0102296Y0097224D03*
X0072296Y0097224D03*
D19*
X0074501Y0097224D03*
X0076469Y0097224D03*
X0078438Y0097224D03*
X0080406Y0097224D03*
X0082375Y0097224D03*
X0084343Y0097224D03*
X0086312Y0097224D03*
X0088280Y0097224D03*
X0090249Y0097224D03*
X0092217Y0097224D03*
X0094186Y0097224D03*
X0096154Y0097224D03*
X0098123Y0097224D03*
X0100091Y0097224D03*
X0100091Y0050768D03*
X0098123Y0050768D03*
X0096154Y0050768D03*
X0094186Y0050768D03*
X0092217Y0050768D03*
X0090249Y0050768D03*
X0088280Y0050768D03*
X0086312Y0050768D03*
X0084343Y0050768D03*
X0082375Y0050768D03*
X0080406Y0050768D03*
X0078438Y0050768D03*
X0076469Y0050768D03*
X0074501Y0050768D03*
D20*
X0039225Y0069547D03*
X0030170Y0069547D03*
X0030170Y0084114D03*
X0039225Y0084114D03*
X0039343Y0094154D03*
X0030288Y0094154D03*
X0030288Y0108720D03*
X0039343Y0108720D03*
D21*
X0013713Y0099291D03*
X0013713Y0125472D03*
X0147572Y0125472D03*
X0147572Y0099291D03*
M02*
