G75*
%MOIN*%
%OFA0B0*%
%FSLAX25Y25*%
%IPPOS*%
%LPD*%
%AMOC8*
5,1,8,0,0,1.08239X$1,22.5*
%
%ADD10R,0.18110X0.03937*%
%ADD11R,0.13386X0.06299*%
%ADD12R,0.04134X0.01575*%
%ADD13R,0.04331X0.05906*%
%ADD14C,0.03937*%
%ADD15C,0.07400*%
%ADD16OC8,0.07400*%
%ADD17R,0.05000X0.07000*%
%ADD18C,0.00787*%
%ADD19OC8,0.03762*%
%ADD20C,0.01575*%
%ADD21C,0.02362*%
D10*
X0034894Y0110413D03*
X0034894Y0118287D03*
D11*
X0014422Y0127736D03*
X0014422Y0100965D03*
D12*
X0132414Y0106594D03*
X0132414Y0109154D03*
X0132414Y0111713D03*
X0132414Y0114272D03*
X0132414Y0116831D03*
D13*
X0144225Y0127461D03*
X0144225Y0095965D03*
D14*
X0122650Y0095413D03*
X0122650Y0090413D03*
X0122650Y0085413D03*
X0122650Y0080413D03*
X0122650Y0100413D03*
X0075800Y0117382D03*
X0070800Y0117382D03*
X0065800Y0117382D03*
X0060800Y0117382D03*
X0055800Y0117382D03*
D15*
X0057060Y0125492D03*
X0012926Y0086004D03*
X0012926Y0076004D03*
X0012926Y0066004D03*
X0012926Y0056004D03*
X0012926Y0046004D03*
X0012926Y0036004D03*
X0044265Y0012657D03*
X0054265Y0012657D03*
X0060367Y0025571D03*
X0107020Y0148878D03*
X0117020Y0148878D03*
D16*
X0077020Y0148878D03*
X0067020Y0148878D03*
X0057020Y0148878D03*
X0047020Y0148878D03*
X0037020Y0148878D03*
X0037020Y0138878D03*
X0047020Y0138878D03*
X0057020Y0138878D03*
X0067020Y0138878D03*
X0077020Y0138878D03*
X0138635Y0083169D03*
X0148635Y0083169D03*
X0148635Y0073169D03*
X0148635Y0063169D03*
X0138635Y0063169D03*
X0138635Y0073169D03*
X0138635Y0053169D03*
X0148635Y0053169D03*
X0148635Y0043169D03*
X0138635Y0043169D03*
X0124265Y0022894D03*
X0114265Y0022894D03*
X0114265Y0012894D03*
X0124265Y0012894D03*
X0104265Y0012894D03*
X0094265Y0012894D03*
X0084265Y0012894D03*
X0084265Y0022894D03*
X0094265Y0022894D03*
X0104265Y0022894D03*
D17*
X0114985Y0123563D03*
X0125985Y0123563D03*
D18*
X0027568Y0008433D02*
X0008473Y0008433D01*
X0007687Y0009219D02*
X0027568Y0009219D01*
X0027568Y0010005D02*
X0021043Y0010005D01*
X0022514Y0010614D02*
X0019358Y0009307D01*
X0015942Y0009307D01*
X0012786Y0010614D01*
X0010371Y0013030D01*
X0009064Y0016186D01*
X0009064Y0019602D01*
X0010371Y0022758D01*
X0012786Y0025173D01*
X0015942Y0026480D01*
X0019358Y0026480D01*
X0022514Y0025173D01*
X0024930Y0022758D01*
X0026237Y0019602D01*
X0026237Y0016186D01*
X0024930Y0013030D01*
X0022514Y0010614D01*
X0022691Y0010791D02*
X0027568Y0010791D01*
X0027568Y0011577D02*
X0023477Y0011577D01*
X0024263Y0012363D02*
X0027568Y0012363D01*
X0027568Y0013023D02*
X0027568Y0004508D01*
X0027565Y0004489D01*
X0027546Y0004455D01*
X0027512Y0004436D01*
X0027493Y0004433D01*
X0018044Y0004433D01*
X0016236Y0004552D01*
X0012742Y0005488D01*
X0009610Y0007296D01*
X0007053Y0009853D01*
X0005244Y0012986D01*
X0004308Y0016479D01*
X0004190Y0018287D01*
X0004190Y0111371D01*
X0005839Y0109515D01*
X0005839Y0109435D01*
X0006482Y0108792D01*
X0007086Y0108113D01*
X0007166Y0108108D01*
X0007223Y0108051D01*
X0008132Y0108051D01*
X0009040Y0107998D01*
X0009100Y0108051D01*
X0024658Y0108051D01*
X0024658Y0107956D01*
X0025350Y0107264D01*
X0044439Y0107264D01*
X0045131Y0107956D01*
X0045131Y0112871D01*
X0044439Y0113563D01*
X0025350Y0113563D01*
X0024658Y0112871D01*
X0024658Y0112776D01*
X0009262Y0112776D01*
X0007414Y0114855D01*
X0007414Y0123406D01*
X0021604Y0123406D01*
X0022296Y0124097D01*
X0022296Y0131375D01*
X0021604Y0132067D01*
X0007414Y0132067D01*
X0007414Y0143660D01*
X0010769Y0149698D01*
X0012364Y0150734D01*
X0010371Y0148742D01*
X0009064Y0145586D01*
X0009064Y0142170D01*
X0010371Y0139014D01*
X0012786Y0136599D01*
X0015942Y0135291D01*
X0019358Y0135291D01*
X0022514Y0136599D01*
X0024930Y0139014D01*
X0026237Y0142170D01*
X0026237Y0145586D01*
X0024930Y0148742D01*
X0022514Y0151157D01*
X0019358Y0152465D01*
X0015942Y0152465D01*
X0013414Y0151417D01*
X0017563Y0154114D01*
X0095644Y0154114D01*
X0098169Y0151716D01*
X0098359Y0124026D01*
X0098329Y0123094D01*
X0098365Y0123055D01*
X0098366Y0123001D01*
X0099030Y0122347D01*
X0106517Y0114360D01*
X0106517Y0113279D01*
X0108311Y0111485D01*
X0110848Y0111485D01*
X0112642Y0113279D01*
X0112642Y0115816D01*
X0110848Y0117609D01*
X0109947Y0117609D01*
X0103077Y0124937D01*
X0102932Y0146063D01*
X0104256Y0144740D01*
X0106050Y0143997D01*
X0107991Y0143997D01*
X0109785Y0144740D01*
X0111158Y0146113D01*
X0111902Y0147907D01*
X0111902Y0149849D01*
X0111735Y0150252D01*
X0112292Y0150809D01*
X0112052Y0150071D01*
X0111927Y0149279D01*
X0111927Y0149272D01*
X0116627Y0149272D01*
X0116627Y0148484D01*
X0117414Y0148484D01*
X0117414Y0143784D01*
X0117421Y0143784D01*
X0118213Y0143910D01*
X0118976Y0144157D01*
X0119690Y0144521D01*
X0120339Y0144993D01*
X0120906Y0145560D01*
X0121377Y0146208D01*
X0121741Y0146923D01*
X0121989Y0147685D01*
X0122114Y0148477D01*
X0122114Y0148484D01*
X0117414Y0148484D01*
X0117414Y0149272D01*
X0122114Y0149272D01*
X0122114Y0149279D01*
X0121989Y0150071D01*
X0121741Y0150833D01*
X0121377Y0151548D01*
X0120906Y0152196D01*
X0120339Y0152763D01*
X0119690Y0153234D01*
X0119509Y0153327D01*
X0143956Y0153327D01*
X0150395Y0150685D01*
X0153871Y0143899D01*
X0153871Y0067759D01*
X0152887Y0068743D01*
X0151999Y0069631D01*
X0153516Y0071147D01*
X0153516Y0075191D01*
X0150656Y0078050D01*
X0146613Y0078050D01*
X0143754Y0075191D01*
X0143754Y0071380D01*
X0143516Y0071618D01*
X0143516Y0075191D01*
X0142152Y0076555D01*
X0144248Y0076555D01*
X0146297Y0078604D01*
X0146613Y0078288D01*
X0150656Y0078288D01*
X0153516Y0081147D01*
X0153516Y0085191D01*
X0150656Y0088050D01*
X0146613Y0088050D01*
X0143754Y0085191D01*
X0143754Y0081147D01*
X0144070Y0080831D01*
X0142943Y0079705D01*
X0142073Y0079705D01*
X0143516Y0081147D01*
X0143516Y0085191D01*
X0140656Y0088050D01*
X0136613Y0088050D01*
X0133754Y0085191D01*
X0133754Y0081147D01*
X0135349Y0079552D01*
X0134988Y0079191D01*
X0125679Y0081333D01*
X0125320Y0082197D01*
X0124605Y0082913D01*
X0125320Y0083629D01*
X0125800Y0084787D01*
X0125800Y0086040D01*
X0125320Y0087197D01*
X0124747Y0087771D01*
X0124794Y0087802D01*
X0125262Y0088270D01*
X0125630Y0088821D01*
X0125883Y0089433D01*
X0126013Y0090082D01*
X0126013Y0090307D01*
X0122757Y0090307D01*
X0122757Y0090520D01*
X0126013Y0090520D01*
X0126013Y0090745D01*
X0125883Y0091394D01*
X0125630Y0092006D01*
X0125262Y0092557D01*
X0124794Y0093025D01*
X0124747Y0093056D01*
X0125320Y0093629D01*
X0125800Y0094787D01*
X0125800Y0096040D01*
X0125320Y0097197D01*
X0124605Y0097913D01*
X0125320Y0098629D01*
X0125800Y0099787D01*
X0125800Y0101040D01*
X0125320Y0102197D01*
X0124434Y0103083D01*
X0124127Y0103211D01*
X0121784Y0105554D01*
X0121784Y0111004D01*
X0122878Y0109910D01*
X0123643Y0109910D01*
X0122462Y0108729D01*
X0122462Y0106192D01*
X0124256Y0104398D01*
X0126793Y0104398D01*
X0128587Y0106192D01*
X0128587Y0108729D01*
X0128309Y0109007D01*
X0129022Y0110178D01*
X0129166Y0110171D01*
X0129166Y0108124D01*
X0129049Y0107920D01*
X0128954Y0107565D01*
X0128954Y0106595D01*
X0132414Y0106595D01*
X0132414Y0106594D01*
X0132414Y0106594D01*
X0132414Y0104413D01*
X0130164Y0104413D01*
X0129809Y0104508D01*
X0129491Y0104692D01*
X0129232Y0104951D01*
X0129049Y0105269D01*
X0128954Y0105624D01*
X0128954Y0106594D01*
X0132414Y0106594D01*
X0132414Y0104413D01*
X0134665Y0104413D01*
X0135019Y0104508D01*
X0135337Y0104692D01*
X0135596Y0104951D01*
X0135780Y0105269D01*
X0135875Y0105624D01*
X0135875Y0106594D01*
X0132414Y0106594D01*
X0132414Y0106595D01*
X0135875Y0106595D01*
X0135875Y0107565D01*
X0135780Y0107920D01*
X0135662Y0108124D01*
X0135662Y0110430D01*
X0135659Y0110433D01*
X0135662Y0110436D01*
X0135662Y0112989D01*
X0135659Y0112992D01*
X0135662Y0112995D01*
X0135662Y0115548D01*
X0135659Y0115551D01*
X0135662Y0115554D01*
X0135662Y0118107D01*
X0134970Y0118799D01*
X0133533Y0118799D01*
X0129666Y0122666D01*
X0129666Y0127552D01*
X0128974Y0128244D01*
X0123929Y0128244D01*
X0125586Y0129902D01*
X0133927Y0129902D01*
X0134076Y0129752D01*
X0134076Y0127649D01*
X0135870Y0125855D01*
X0138407Y0125855D01*
X0140201Y0127649D01*
X0140201Y0130186D01*
X0138407Y0131980D01*
X0136303Y0131980D01*
X0135232Y0133051D01*
X0124282Y0133051D01*
X0123359Y0132129D01*
X0118666Y0127436D01*
X0118666Y0127552D01*
X0117974Y0128244D01*
X0117657Y0128244D01*
X0117680Y0128605D01*
X0117763Y0128692D01*
X0117743Y0129565D01*
X0117799Y0130437D01*
X0117720Y0130528D01*
X0117696Y0131523D01*
X0118350Y0132176D01*
X0118350Y0134713D01*
X0116557Y0136507D01*
X0114020Y0136507D01*
X0112226Y0134713D01*
X0112226Y0132176D01*
X0112973Y0131430D01*
X0113015Y0129663D01*
X0112922Y0128244D01*
X0111996Y0128244D01*
X0111304Y0127552D01*
X0111304Y0119574D01*
X0111996Y0118882D01*
X0117974Y0118882D01*
X0118635Y0119542D01*
X0118635Y0104249D01*
X0119557Y0103327D01*
X0120333Y0102551D01*
X0119980Y0102197D01*
X0119894Y0101988D01*
X0115704Y0101988D01*
X0113517Y0104176D01*
X0112594Y0105098D01*
X0098753Y0105098D01*
X0098753Y0106645D01*
X0102521Y0110413D01*
X0102608Y0110501D01*
X0102974Y0110501D01*
X0104768Y0112295D01*
X0104768Y0114831D01*
X0102974Y0116625D01*
X0100437Y0116625D01*
X0098643Y0114831D01*
X0098643Y0112295D01*
X0098739Y0112199D01*
X0094816Y0108276D01*
X0094816Y0105093D01*
X0094225Y0104502D01*
X0090780Y0101057D01*
X0080834Y0111004D01*
X0069126Y0111004D01*
X0068505Y0115223D01*
X0069016Y0114712D01*
X0070173Y0114232D01*
X0071426Y0114232D01*
X0072584Y0114712D01*
X0073300Y0115428D01*
X0074016Y0114712D01*
X0075173Y0114232D01*
X0076426Y0114232D01*
X0077584Y0114712D01*
X0078470Y0115598D01*
X0078950Y0116755D01*
X0078950Y0118008D01*
X0078470Y0119166D01*
X0077584Y0120052D01*
X0076426Y0120531D01*
X0075173Y0120531D01*
X0074016Y0120052D01*
X0073300Y0119336D01*
X0072584Y0120052D01*
X0071426Y0120531D01*
X0070173Y0120531D01*
X0069016Y0120052D01*
X0068300Y0119336D01*
X0067584Y0120052D01*
X0066426Y0120531D01*
X0065173Y0120531D01*
X0064016Y0120052D01*
X0063443Y0119479D01*
X0063412Y0119525D01*
X0062943Y0119993D01*
X0062393Y0120361D01*
X0061781Y0120615D01*
X0061131Y0120744D01*
X0060906Y0120744D01*
X0060906Y0117488D01*
X0060694Y0117488D01*
X0060694Y0120744D01*
X0060469Y0120744D01*
X0059819Y0120615D01*
X0059207Y0120361D01*
X0058657Y0119993D01*
X0058300Y0119637D01*
X0057943Y0119993D01*
X0057393Y0120361D01*
X0056790Y0120611D01*
X0058031Y0120611D01*
X0059825Y0121354D01*
X0061198Y0122727D01*
X0061941Y0124521D01*
X0061941Y0126463D01*
X0061198Y0128257D01*
X0059825Y0129630D01*
X0058031Y0130373D01*
X0056089Y0130373D01*
X0054295Y0129630D01*
X0052922Y0128257D01*
X0052179Y0126463D01*
X0052179Y0124521D01*
X0052922Y0122727D01*
X0054295Y0121354D01*
X0055906Y0120687D01*
X0055906Y0117488D01*
X0055694Y0117488D01*
X0055694Y0120744D01*
X0055469Y0120744D01*
X0054819Y0120615D01*
X0054207Y0120361D01*
X0053657Y0119993D01*
X0053188Y0119525D01*
X0052820Y0118974D01*
X0052567Y0118363D01*
X0052438Y0117713D01*
X0052438Y0117488D01*
X0055694Y0117488D01*
X0055694Y0117276D01*
X0052438Y0117276D01*
X0052438Y0117051D01*
X0052567Y0116401D01*
X0052820Y0115789D01*
X0053188Y0115239D01*
X0053657Y0114770D01*
X0054207Y0114402D01*
X0054819Y0114149D01*
X0055469Y0114020D01*
X0055694Y0114020D01*
X0055694Y0117276D01*
X0055906Y0117276D01*
X0055906Y0117488D01*
X0059162Y0117488D01*
X0060694Y0117488D01*
X0060694Y0117276D01*
X0055906Y0117276D01*
X0055906Y0114020D01*
X0056131Y0114020D01*
X0056781Y0114149D01*
X0057393Y0114402D01*
X0057943Y0114770D01*
X0058300Y0115127D01*
X0058657Y0114770D01*
X0059207Y0114402D01*
X0059819Y0114149D01*
X0060469Y0114020D01*
X0060694Y0114020D01*
X0060694Y0117276D01*
X0060906Y0117276D01*
X0060906Y0114020D01*
X0061131Y0114020D01*
X0061781Y0114149D01*
X0062393Y0114402D01*
X0062943Y0114770D01*
X0063412Y0115239D01*
X0063443Y0115285D01*
X0063769Y0114959D01*
X0064350Y0111004D01*
X0055834Y0111004D01*
X0049383Y0117455D01*
X0049383Y0134337D01*
X0051902Y0136856D01*
X0051902Y0140900D01*
X0049042Y0143759D01*
X0044999Y0143759D01*
X0042139Y0140900D01*
X0042139Y0136856D01*
X0044658Y0134337D01*
X0044658Y0127058D01*
X0044138Y0127058D01*
X0042344Y0125264D01*
X0042344Y0122728D01*
X0043422Y0121650D01*
X0035288Y0121650D01*
X0035288Y0118681D01*
X0034501Y0118681D01*
X0034501Y0121650D01*
X0025656Y0121650D01*
X0025301Y0121555D01*
X0024984Y0121371D01*
X0024724Y0121112D01*
X0024541Y0120794D01*
X0024446Y0120439D01*
X0024446Y0118681D01*
X0034501Y0118681D01*
X0034501Y0117894D01*
X0024446Y0117894D01*
X0024446Y0116135D01*
X0024541Y0115781D01*
X0024724Y0115463D01*
X0024984Y0115204D01*
X0025301Y0115020D01*
X0025656Y0114925D01*
X0034501Y0114925D01*
X0034501Y0117894D01*
X0035288Y0117894D01*
X0035288Y0114925D01*
X0044133Y0114925D01*
X0044488Y0115020D01*
X0044805Y0115204D01*
X0044879Y0115277D01*
X0052493Y0107663D01*
X0053877Y0106280D01*
X0078877Y0106280D01*
X0087489Y0097668D01*
X0073717Y0083051D01*
X0055540Y0083051D01*
X0054872Y0083218D01*
X0054595Y0083051D01*
X0054270Y0083051D01*
X0053784Y0082565D01*
X0049650Y0080084D01*
X0049298Y0080077D01*
X0048840Y0079599D01*
X0048273Y0079258D01*
X0048188Y0078917D01*
X0047945Y0078663D01*
X0047959Y0078002D01*
X0047799Y0077360D01*
X0047980Y0077058D01*
X0048307Y0061988D01*
X0020282Y0061988D01*
X0017640Y0064630D01*
X0017807Y0065033D01*
X0017807Y0066975D01*
X0017064Y0068769D01*
X0015691Y0070142D01*
X0013897Y0070885D01*
X0011955Y0070885D01*
X0010161Y0070142D01*
X0008788Y0068769D01*
X0008045Y0066975D01*
X0008045Y0065033D01*
X0008788Y0063239D01*
X0010161Y0061866D01*
X0011955Y0061123D01*
X0013897Y0061123D01*
X0014300Y0061290D01*
X0015275Y0060314D01*
X0013897Y0060885D01*
X0011955Y0060885D01*
X0010161Y0060142D01*
X0008788Y0058769D01*
X0008045Y0056975D01*
X0008045Y0055033D01*
X0008788Y0053239D01*
X0010161Y0051866D01*
X0011955Y0051123D01*
X0013897Y0051123D01*
X0015691Y0051866D01*
X0017064Y0053239D01*
X0017807Y0055033D01*
X0017807Y0056975D01*
X0017236Y0058353D01*
X0018325Y0057264D01*
X0049773Y0057264D01*
X0049794Y0057243D01*
X0050696Y0057263D01*
X0054022Y0057118D01*
X0055883Y0055257D01*
X0055886Y0055195D01*
X0056569Y0054571D01*
X0057223Y0053917D01*
X0057285Y0053917D01*
X0057331Y0053875D01*
X0058255Y0053917D01*
X0059180Y0053917D01*
X0059224Y0053961D01*
X0060190Y0054005D01*
X0061745Y0052905D01*
X0061745Y0040667D01*
X0062667Y0039744D01*
X0065769Y0036642D01*
X0065769Y0034736D01*
X0067563Y0032942D01*
X0070100Y0032942D01*
X0071686Y0034528D01*
X0073272Y0032942D01*
X0075809Y0032942D01*
X0077602Y0034736D01*
X0077602Y0034954D01*
X0089745Y0037137D01*
X0090791Y0036091D01*
X0093328Y0036091D01*
X0095122Y0037885D01*
X0095122Y0040422D01*
X0093328Y0042216D01*
X0090791Y0042216D01*
X0088998Y0040422D01*
X0088998Y0040203D01*
X0076855Y0038020D01*
X0075809Y0039066D01*
X0073272Y0039066D01*
X0071686Y0037480D01*
X0070100Y0039066D01*
X0067800Y0039066D01*
X0064894Y0041971D01*
X0064894Y0053220D01*
X0064982Y0053344D01*
X0064894Y0053854D01*
X0064894Y0054219D01*
X0101621Y0055888D01*
X0116793Y0046832D01*
X0116790Y0046757D01*
X0115179Y0045146D01*
X0115179Y0042610D01*
X0116973Y0040816D01*
X0119509Y0040816D01*
X0121303Y0042610D01*
X0121303Y0044140D01*
X0125691Y0041521D01*
X0126105Y0041115D01*
X0126368Y0041117D01*
X0126594Y0040982D01*
X0127156Y0041124D01*
X0133754Y0041185D01*
X0133754Y0041147D01*
X0136535Y0038366D01*
X0135108Y0038366D01*
X0134186Y0037444D01*
X0132217Y0035475D01*
X0132217Y0035216D01*
X0131911Y0035523D01*
X0129374Y0035523D01*
X0127580Y0033729D01*
X0127580Y0031192D01*
X0127597Y0031175D01*
X0126736Y0030098D01*
X0099242Y0030098D01*
X0098320Y0029176D01*
X0096602Y0027459D01*
X0096286Y0027775D01*
X0092243Y0027775D01*
X0089383Y0024916D01*
X0089383Y0020872D01*
X0092243Y0018013D01*
X0096286Y0018013D01*
X0099146Y0020872D01*
X0099146Y0024916D01*
X0098830Y0025232D01*
X0100547Y0026949D01*
X0101417Y0026949D01*
X0099383Y0024916D01*
X0099383Y0020872D01*
X0102243Y0018013D01*
X0106286Y0018013D01*
X0109146Y0020872D01*
X0109146Y0024916D01*
X0107112Y0026949D01*
X0111417Y0026949D01*
X0109383Y0024916D01*
X0109383Y0020872D01*
X0112243Y0018013D01*
X0116286Y0018013D01*
X0119146Y0020872D01*
X0119146Y0024916D01*
X0117112Y0026949D01*
X0121116Y0026949D01*
X0119171Y0025004D01*
X0119171Y0023287D01*
X0123871Y0023287D01*
X0123871Y0022500D01*
X0124658Y0022500D01*
X0124658Y0018270D01*
X0124163Y0017775D01*
X0122243Y0017775D01*
X0119383Y0014916D01*
X0119383Y0010872D01*
X0119700Y0010556D01*
X0118376Y0009232D01*
X0117506Y0009232D01*
X0119146Y0010872D01*
X0119146Y0014916D01*
X0116286Y0017775D01*
X0112243Y0017775D01*
X0109383Y0014916D01*
X0109383Y0010872D01*
X0111023Y0009232D01*
X0107506Y0009232D01*
X0109146Y0010872D01*
X0109146Y0014916D01*
X0106286Y0017775D01*
X0102243Y0017775D01*
X0099383Y0014916D01*
X0099383Y0010872D01*
X0101023Y0009232D01*
X0097506Y0009232D01*
X0099146Y0010872D01*
X0099146Y0014916D01*
X0096286Y0017775D01*
X0092243Y0017775D01*
X0089383Y0014916D01*
X0089383Y0010872D01*
X0091023Y0009232D01*
X0087506Y0009232D01*
X0089146Y0010872D01*
X0089146Y0014916D01*
X0086286Y0017775D01*
X0082243Y0017775D01*
X0079383Y0014916D01*
X0079383Y0010872D01*
X0081023Y0009232D01*
X0062988Y0009232D01*
X0060957Y0011263D01*
X0060957Y0015790D01*
X0058398Y0018349D01*
X0057476Y0019272D01*
X0055839Y0019272D01*
X0056343Y0019775D01*
X0056343Y0022312D01*
X0055023Y0023631D01*
X0055405Y0029602D01*
X0055446Y0029643D01*
X0055446Y0030245D01*
X0055484Y0030846D01*
X0055446Y0030890D01*
X0055446Y0030948D01*
X0055020Y0031373D01*
X0054622Y0031825D01*
X0054564Y0031829D01*
X0053980Y0032413D01*
X0053980Y0034516D01*
X0052187Y0036310D01*
X0049650Y0036310D01*
X0047856Y0034516D01*
X0047856Y0031980D01*
X0049650Y0030186D01*
X0051753Y0030186D01*
X0052254Y0029685D01*
X0051890Y0023984D01*
X0050218Y0022312D01*
X0050218Y0019775D01*
X0050721Y0019272D01*
X0050048Y0019272D01*
X0022802Y0038875D01*
X0022679Y0039245D01*
X0022713Y0039549D01*
X0022668Y0039605D01*
X0022757Y0042410D01*
X0024335Y0043987D01*
X0024335Y0046524D01*
X0022541Y0048318D01*
X0020004Y0048318D01*
X0018210Y0046524D01*
X0018210Y0043987D01*
X0019501Y0042697D01*
X0019501Y0039447D01*
X0019375Y0039196D01*
X0019472Y0038905D01*
X0018705Y0032002D01*
X0018332Y0031629D01*
X0014477Y0031363D01*
X0015691Y0031866D01*
X0017064Y0033239D01*
X0017807Y0035033D01*
X0017807Y0036975D01*
X0017064Y0038769D01*
X0015691Y0040142D01*
X0013897Y0040885D01*
X0011955Y0040885D01*
X0010161Y0040142D01*
X0008788Y0038769D01*
X0008045Y0036975D01*
X0008045Y0035033D01*
X0008788Y0033239D01*
X0010161Y0031866D01*
X0011818Y0031180D01*
X0010186Y0031067D01*
X0008879Y0032373D01*
X0006343Y0032373D01*
X0004549Y0030579D01*
X0004549Y0028043D01*
X0006343Y0026249D01*
X0008879Y0026249D01*
X0010567Y0027936D01*
X0019083Y0028524D01*
X0019681Y0028524D01*
X0019725Y0028568D01*
X0019787Y0028572D01*
X0020180Y0029023D01*
X0021261Y0030104D01*
X0021703Y0030457D01*
X0021714Y0030557D01*
X0021784Y0030627D01*
X0021784Y0031192D01*
X0022251Y0035391D01*
X0048517Y0016493D01*
X0048888Y0016122D01*
X0049033Y0016122D01*
X0049150Y0016038D01*
X0049668Y0016122D01*
X0050826Y0016122D01*
X0050127Y0015422D01*
X0049383Y0013628D01*
X0049383Y0011687D01*
X0050127Y0009893D01*
X0051500Y0008519D01*
X0052406Y0008144D01*
X0053286Y0007264D01*
X0056117Y0004433D01*
X0040485Y0004433D01*
X0040466Y0004436D01*
X0040432Y0004455D01*
X0040413Y0004489D01*
X0040410Y0004508D01*
X0040410Y0009308D01*
X0040946Y0008772D01*
X0041595Y0008301D01*
X0042309Y0007937D01*
X0043072Y0007689D01*
X0043864Y0007564D01*
X0043871Y0007564D01*
X0043871Y0012264D01*
X0044658Y0012264D01*
X0044658Y0007564D01*
X0044665Y0007564D01*
X0045457Y0007689D01*
X0046220Y0007937D01*
X0046934Y0008301D01*
X0047583Y0008772D01*
X0048150Y0009339D01*
X0048621Y0009988D01*
X0048985Y0010702D01*
X0049233Y0011465D01*
X0049358Y0012257D01*
X0049358Y0012264D01*
X0044658Y0012264D01*
X0044658Y0013051D01*
X0043871Y0013051D01*
X0043871Y0017751D01*
X0043864Y0017751D01*
X0043072Y0017626D01*
X0042309Y0017378D01*
X0041595Y0017014D01*
X0040946Y0016543D01*
X0040379Y0015976D01*
X0039908Y0015327D01*
X0039544Y0014613D01*
X0039525Y0014556D01*
X0039375Y0014816D01*
X0037583Y0015850D01*
X0030395Y0015850D01*
X0028603Y0014816D01*
X0028603Y0014816D01*
X0028603Y0014816D01*
X0027568Y0013023D01*
X0027640Y0013148D02*
X0024979Y0013148D01*
X0025304Y0013934D02*
X0028094Y0013934D01*
X0028548Y0014720D02*
X0025630Y0014720D01*
X0025956Y0015506D02*
X0029799Y0015506D01*
X0026237Y0016292D02*
X0040696Y0016292D01*
X0040038Y0015506D02*
X0038179Y0015506D01*
X0039375Y0014816D02*
X0039375Y0014816D01*
X0039375Y0014816D01*
X0039430Y0014720D02*
X0039599Y0014720D01*
X0041721Y0017078D02*
X0026237Y0017078D01*
X0026237Y0017864D02*
X0046612Y0017864D01*
X0046220Y0017378D02*
X0045457Y0017626D01*
X0044665Y0017751D01*
X0044658Y0017751D01*
X0044658Y0013051D01*
X0049358Y0013051D01*
X0049358Y0013058D01*
X0049233Y0013850D01*
X0048985Y0014613D01*
X0048621Y0015327D01*
X0048150Y0015976D01*
X0047583Y0016543D01*
X0046934Y0017014D01*
X0046220Y0017378D01*
X0046809Y0017078D02*
X0047704Y0017078D01*
X0047834Y0016292D02*
X0048718Y0016292D01*
X0048491Y0015506D02*
X0050210Y0015506D01*
X0049836Y0014720D02*
X0048930Y0014720D01*
X0049206Y0013934D02*
X0049510Y0013934D01*
X0049383Y0013148D02*
X0049344Y0013148D01*
X0049383Y0012363D02*
X0044658Y0012363D01*
X0044658Y0013148D02*
X0043871Y0013148D01*
X0043871Y0013934D02*
X0044658Y0013934D01*
X0044658Y0014720D02*
X0043871Y0014720D01*
X0043871Y0015506D02*
X0044658Y0015506D01*
X0044658Y0016292D02*
X0043871Y0016292D01*
X0043871Y0017078D02*
X0044658Y0017078D01*
X0045519Y0018650D02*
X0026237Y0018650D01*
X0026237Y0019436D02*
X0044427Y0019436D01*
X0043335Y0020222D02*
X0025980Y0020222D01*
X0025655Y0021008D02*
X0042242Y0021008D01*
X0041150Y0021793D02*
X0025329Y0021793D01*
X0025004Y0022579D02*
X0040058Y0022579D01*
X0038965Y0023365D02*
X0024322Y0023365D01*
X0023536Y0024151D02*
X0037873Y0024151D01*
X0036781Y0024937D02*
X0022750Y0024937D01*
X0021187Y0025723D02*
X0035688Y0025723D01*
X0034596Y0026509D02*
X0009140Y0026509D01*
X0009925Y0027295D02*
X0033504Y0027295D01*
X0032411Y0028081D02*
X0012661Y0028081D01*
X0014114Y0025723D02*
X0004190Y0025723D01*
X0004190Y0024937D02*
X0012551Y0024937D01*
X0011765Y0024151D02*
X0004190Y0024151D01*
X0004190Y0023365D02*
X0010979Y0023365D01*
X0010297Y0022579D02*
X0004190Y0022579D01*
X0004190Y0021793D02*
X0009972Y0021793D01*
X0009646Y0021008D02*
X0004190Y0021008D01*
X0004190Y0020222D02*
X0009321Y0020222D01*
X0009064Y0019436D02*
X0004190Y0019436D01*
X0004190Y0018650D02*
X0009064Y0018650D01*
X0009064Y0017864D02*
X0004218Y0017864D01*
X0004269Y0017078D02*
X0009064Y0017078D01*
X0009064Y0016292D02*
X0004358Y0016292D01*
X0004569Y0015506D02*
X0009345Y0015506D01*
X0009671Y0014720D02*
X0004780Y0014720D01*
X0004990Y0013934D02*
X0009996Y0013934D01*
X0010322Y0013148D02*
X0005201Y0013148D01*
X0005604Y0012363D02*
X0011038Y0012363D01*
X0011824Y0011577D02*
X0006058Y0011577D01*
X0006512Y0010791D02*
X0012610Y0010791D01*
X0014258Y0010005D02*
X0006965Y0010005D01*
X0009259Y0007647D02*
X0027568Y0007647D01*
X0027568Y0006861D02*
X0010363Y0006861D01*
X0011725Y0006075D02*
X0027568Y0006075D01*
X0027568Y0005289D02*
X0013482Y0005289D01*
X0016971Y0004503D02*
X0027567Y0004503D01*
X0040411Y0004503D02*
X0056046Y0004503D01*
X0055261Y0005289D02*
X0040410Y0005289D01*
X0040410Y0006075D02*
X0054475Y0006075D01*
X0053689Y0006861D02*
X0040410Y0006861D01*
X0040410Y0007647D02*
X0043338Y0007647D01*
X0043871Y0007647D02*
X0044658Y0007647D01*
X0045191Y0007647D02*
X0052903Y0007647D01*
X0051708Y0008433D02*
X0047116Y0008433D01*
X0048030Y0009219D02*
X0050800Y0009219D01*
X0050080Y0010005D02*
X0048630Y0010005D01*
X0049014Y0010791D02*
X0049755Y0010791D01*
X0049429Y0011577D02*
X0049251Y0011577D01*
X0044658Y0011577D02*
X0043871Y0011577D01*
X0043871Y0010791D02*
X0044658Y0010791D01*
X0044658Y0010005D02*
X0043871Y0010005D01*
X0043871Y0009219D02*
X0044658Y0009219D01*
X0044658Y0008433D02*
X0043871Y0008433D01*
X0041413Y0008433D02*
X0040410Y0008433D01*
X0040410Y0009219D02*
X0040500Y0009219D01*
X0049540Y0017697D02*
X0021469Y0037894D01*
X0021076Y0039075D01*
X0021272Y0045256D01*
X0021076Y0044469D01*
X0021076Y0039075D01*
X0020209Y0031280D01*
X0019028Y0030098D01*
X0007611Y0029311D01*
X0005194Y0031224D02*
X0004190Y0031224D01*
X0004190Y0030439D02*
X0004549Y0030439D01*
X0004549Y0029653D02*
X0004190Y0029653D01*
X0004190Y0028867D02*
X0004549Y0028867D01*
X0004549Y0028081D02*
X0004190Y0028081D01*
X0004190Y0027295D02*
X0005297Y0027295D01*
X0006082Y0026509D02*
X0004190Y0026509D01*
X0004190Y0032010D02*
X0005980Y0032010D01*
X0004190Y0032796D02*
X0009231Y0032796D01*
X0009242Y0032010D02*
X0010017Y0032010D01*
X0010028Y0031224D02*
X0011710Y0031224D01*
X0008646Y0033582D02*
X0004190Y0033582D01*
X0004190Y0034368D02*
X0008320Y0034368D01*
X0008045Y0035154D02*
X0004190Y0035154D01*
X0004190Y0035940D02*
X0008045Y0035940D01*
X0008045Y0036726D02*
X0004190Y0036726D01*
X0004190Y0037512D02*
X0008267Y0037512D01*
X0008593Y0038298D02*
X0004190Y0038298D01*
X0004190Y0039084D02*
X0009103Y0039084D01*
X0009889Y0039869D02*
X0004190Y0039869D01*
X0004190Y0040655D02*
X0011401Y0040655D01*
X0011955Y0041123D02*
X0013897Y0041123D01*
X0015691Y0041866D01*
X0017064Y0043239D01*
X0017807Y0045033D01*
X0017807Y0046975D01*
X0017064Y0048769D01*
X0015691Y0050142D01*
X0013897Y0050885D01*
X0011955Y0050885D01*
X0010161Y0050142D01*
X0008788Y0048769D01*
X0008045Y0046975D01*
X0008045Y0045033D01*
X0008788Y0043239D01*
X0010161Y0041866D01*
X0011955Y0041123D01*
X0011186Y0041441D02*
X0004190Y0041441D01*
X0004190Y0042227D02*
X0009800Y0042227D01*
X0009014Y0043013D02*
X0004190Y0043013D01*
X0004190Y0043799D02*
X0008556Y0043799D01*
X0008230Y0044585D02*
X0004190Y0044585D01*
X0004190Y0045371D02*
X0008045Y0045371D01*
X0008045Y0046157D02*
X0004190Y0046157D01*
X0004190Y0046943D02*
X0008045Y0046943D01*
X0008357Y0047729D02*
X0004190Y0047729D01*
X0004190Y0048515D02*
X0008683Y0048515D01*
X0009320Y0049300D02*
X0004190Y0049300D01*
X0004190Y0050086D02*
X0010105Y0050086D01*
X0010663Y0051658D02*
X0004190Y0051658D01*
X0004190Y0050872D02*
X0011924Y0050872D01*
X0013928Y0050872D02*
X0061745Y0050872D01*
X0061745Y0050086D02*
X0015746Y0050086D01*
X0016532Y0049300D02*
X0061745Y0049300D01*
X0061745Y0048515D02*
X0017169Y0048515D01*
X0017495Y0047729D02*
X0019415Y0047729D01*
X0018629Y0046943D02*
X0017807Y0046943D01*
X0017807Y0046157D02*
X0018210Y0046157D01*
X0018210Y0045371D02*
X0017807Y0045371D01*
X0017621Y0044585D02*
X0018210Y0044585D01*
X0018399Y0043799D02*
X0017296Y0043799D01*
X0016838Y0043013D02*
X0019185Y0043013D01*
X0019501Y0042227D02*
X0016052Y0042227D01*
X0014666Y0041441D02*
X0019501Y0041441D01*
X0019501Y0040655D02*
X0014451Y0040655D01*
X0015963Y0039869D02*
X0019501Y0039869D01*
X0019413Y0039084D02*
X0016749Y0039084D01*
X0017259Y0038298D02*
X0019405Y0038298D01*
X0019317Y0037512D02*
X0017585Y0037512D01*
X0017807Y0036726D02*
X0019230Y0036726D01*
X0019143Y0035940D02*
X0017807Y0035940D01*
X0017807Y0035154D02*
X0019055Y0035154D01*
X0018968Y0034368D02*
X0017532Y0034368D01*
X0017206Y0033582D02*
X0018881Y0033582D01*
X0018794Y0032796D02*
X0016621Y0032796D01*
X0015835Y0032010D02*
X0018706Y0032010D01*
X0020810Y0029653D02*
X0030227Y0029653D01*
X0029135Y0030439D02*
X0021679Y0030439D01*
X0021788Y0031224D02*
X0028042Y0031224D01*
X0026950Y0032010D02*
X0021875Y0032010D01*
X0021962Y0032796D02*
X0025858Y0032796D01*
X0024765Y0033582D02*
X0022050Y0033582D01*
X0022137Y0034368D02*
X0023673Y0034368D01*
X0022581Y0035154D02*
X0022224Y0035154D01*
X0024697Y0037512D02*
X0064900Y0037512D01*
X0065686Y0036726D02*
X0025789Y0036726D01*
X0026881Y0035940D02*
X0049279Y0035940D01*
X0048493Y0035154D02*
X0027973Y0035154D01*
X0029066Y0034368D02*
X0047856Y0034368D01*
X0047856Y0033582D02*
X0030158Y0033582D01*
X0031250Y0032796D02*
X0047856Y0032796D01*
X0047856Y0032010D02*
X0032343Y0032010D01*
X0033435Y0031224D02*
X0048611Y0031224D01*
X0049397Y0030439D02*
X0034527Y0030439D01*
X0035620Y0029653D02*
X0052252Y0029653D01*
X0052202Y0028867D02*
X0036712Y0028867D01*
X0037804Y0028081D02*
X0052152Y0028081D01*
X0052101Y0027295D02*
X0038897Y0027295D01*
X0039989Y0026509D02*
X0052051Y0026509D01*
X0052001Y0025723D02*
X0041081Y0025723D01*
X0042174Y0024937D02*
X0051951Y0024937D01*
X0051901Y0024151D02*
X0043266Y0024151D01*
X0044358Y0023365D02*
X0051272Y0023365D01*
X0050486Y0022579D02*
X0045450Y0022579D01*
X0046543Y0021793D02*
X0050218Y0021793D01*
X0050218Y0021008D02*
X0047635Y0021008D01*
X0048727Y0020222D02*
X0050218Y0020222D01*
X0050557Y0019436D02*
X0049820Y0019436D01*
X0049540Y0017697D02*
X0056824Y0017697D01*
X0059383Y0015138D01*
X0059383Y0010610D01*
X0062335Y0007657D01*
X0119028Y0007657D01*
X0124265Y0012894D01*
X0124265Y0015650D01*
X0133792Y0025177D01*
X0133792Y0034823D01*
X0135761Y0036791D01*
X0151509Y0036791D01*
X0153674Y0038957D01*
X0153674Y0065728D01*
X0151312Y0068091D01*
X0144816Y0068091D01*
X0139737Y0073169D01*
X0138635Y0073169D01*
X0135167Y0069734D02*
X0131558Y0069734D01*
X0131933Y0069359D02*
X0130139Y0071153D01*
X0127602Y0071153D01*
X0126115Y0069665D01*
X0124478Y0069665D01*
X0123556Y0068743D01*
X0121587Y0066774D01*
X0121587Y0055295D01*
X0120100Y0053808D01*
X0120100Y0051271D01*
X0121894Y0049477D01*
X0124431Y0049477D01*
X0126224Y0051271D01*
X0126224Y0053808D01*
X0124737Y0055295D01*
X0124737Y0061004D01*
X0125831Y0059910D01*
X0128368Y0059910D01*
X0129903Y0061445D01*
X0133754Y0061511D01*
X0133754Y0061147D01*
X0136613Y0058288D01*
X0140656Y0058288D01*
X0143516Y0061147D01*
X0143516Y0065191D01*
X0140656Y0068050D01*
X0136613Y0068050D01*
X0133754Y0065191D01*
X0133754Y0064661D01*
X0129809Y0064594D01*
X0129374Y0065028D01*
X0130139Y0065028D01*
X0131933Y0066822D01*
X0131933Y0069359D01*
X0131933Y0068948D02*
X0135953Y0068948D01*
X0136613Y0068288D02*
X0140656Y0068288D01*
X0141524Y0069155D01*
X0144163Y0066516D01*
X0145078Y0066516D01*
X0143754Y0065191D01*
X0143754Y0061147D01*
X0146613Y0058288D01*
X0150656Y0058288D01*
X0152099Y0059731D01*
X0152099Y0056608D01*
X0150656Y0058050D01*
X0146613Y0058050D01*
X0143754Y0055191D01*
X0143754Y0051147D01*
X0146613Y0048288D01*
X0150656Y0048288D01*
X0152099Y0049731D01*
X0152099Y0046908D01*
X0150745Y0048263D01*
X0149028Y0048263D01*
X0149028Y0043563D01*
X0148241Y0043563D01*
X0148241Y0048263D01*
X0146525Y0048263D01*
X0143541Y0045279D01*
X0143541Y0043563D01*
X0148241Y0043563D01*
X0148241Y0042776D01*
X0143541Y0042776D01*
X0143541Y0041059D01*
X0146234Y0038366D01*
X0140734Y0038366D01*
X0143516Y0041147D01*
X0143516Y0045191D01*
X0140656Y0048050D01*
X0136613Y0048050D01*
X0133754Y0045191D01*
X0133754Y0045122D01*
X0127437Y0045064D01*
X0103832Y0059154D01*
X0103824Y0059333D01*
X0102379Y0060652D01*
X0059135Y0058687D01*
X0057646Y0060176D01*
X0057651Y0060304D01*
X0057330Y0060654D01*
X0057180Y0061104D01*
X0056695Y0061347D01*
X0056329Y0061747D01*
X0056064Y0061758D01*
X0055834Y0061988D01*
X0055413Y0061988D01*
X0055036Y0062176D01*
X0054472Y0061988D01*
X0053033Y0061988D01*
X0052719Y0076416D01*
X0055903Y0078327D01*
X0073799Y0078327D01*
X0073829Y0078299D01*
X0074772Y0078327D01*
X0075715Y0078327D01*
X0075744Y0078356D01*
X0075785Y0078357D01*
X0076432Y0079043D01*
X0077099Y0079711D01*
X0077099Y0079751D01*
X0092475Y0096071D01*
X0097566Y0101161D01*
X0097795Y0101161D01*
X0098582Y0101949D01*
X0111289Y0101949D01*
X0114400Y0098839D01*
X0119894Y0098839D01*
X0119980Y0098629D01*
X0120696Y0097913D01*
X0119980Y0097197D01*
X0119501Y0096040D01*
X0119501Y0094787D01*
X0119980Y0093629D01*
X0120554Y0093056D01*
X0120507Y0093025D01*
X0120039Y0092557D01*
X0119671Y0092006D01*
X0119417Y0091394D01*
X0119288Y0090745D01*
X0119288Y0090520D01*
X0122544Y0090520D01*
X0122544Y0090307D01*
X0119288Y0090307D01*
X0119288Y0090082D01*
X0119417Y0089433D01*
X0119671Y0088821D01*
X0120039Y0088270D01*
X0120507Y0087802D01*
X0120554Y0087771D01*
X0119980Y0087197D01*
X0119501Y0086040D01*
X0119501Y0084787D01*
X0119980Y0083629D01*
X0120696Y0082913D01*
X0119980Y0082197D01*
X0119894Y0081988D01*
X0084045Y0081988D01*
X0078415Y0076358D01*
X0059383Y0076358D01*
X0058289Y0077452D01*
X0055752Y0077452D01*
X0053958Y0075658D01*
X0053958Y0073121D01*
X0055752Y0071328D01*
X0058289Y0071328D01*
X0060083Y0073121D01*
X0060083Y0073209D01*
X0079720Y0073209D01*
X0080643Y0074131D01*
X0085350Y0078839D01*
X0119894Y0078839D01*
X0119980Y0078629D01*
X0120866Y0077743D01*
X0122024Y0077264D01*
X0123277Y0077264D01*
X0124434Y0077743D01*
X0124958Y0078267D01*
X0134609Y0076046D01*
X0133754Y0075191D01*
X0133754Y0071147D01*
X0136613Y0068288D01*
X0135939Y0067376D02*
X0131933Y0067376D01*
X0131933Y0068162D02*
X0142517Y0068162D01*
X0143303Y0067376D02*
X0141330Y0067376D01*
X0142116Y0066591D02*
X0144089Y0066591D01*
X0144367Y0065805D02*
X0142902Y0065805D01*
X0143516Y0065019D02*
X0143754Y0065019D01*
X0143754Y0064233D02*
X0143516Y0064233D01*
X0143516Y0063447D02*
X0143754Y0063447D01*
X0143754Y0062661D02*
X0143516Y0062661D01*
X0143516Y0061875D02*
X0143754Y0061875D01*
X0143812Y0061089D02*
X0143457Y0061089D01*
X0142671Y0060303D02*
X0144598Y0060303D01*
X0145384Y0059517D02*
X0141886Y0059517D01*
X0141100Y0058731D02*
X0146170Y0058731D01*
X0146508Y0057945D02*
X0140761Y0057945D01*
X0140656Y0058050D02*
X0136613Y0058050D01*
X0133754Y0055191D01*
X0133754Y0051147D01*
X0136613Y0048288D01*
X0140656Y0048288D01*
X0143516Y0051147D01*
X0143516Y0055191D01*
X0140656Y0058050D01*
X0141547Y0057160D02*
X0145722Y0057160D01*
X0144936Y0056374D02*
X0142333Y0056374D01*
X0143119Y0055588D02*
X0144150Y0055588D01*
X0143754Y0054802D02*
X0143516Y0054802D01*
X0143516Y0054016D02*
X0143754Y0054016D01*
X0143754Y0053230D02*
X0143516Y0053230D01*
X0143516Y0052444D02*
X0143754Y0052444D01*
X0143754Y0051658D02*
X0143516Y0051658D01*
X0143241Y0050872D02*
X0144029Y0050872D01*
X0144815Y0050086D02*
X0142455Y0050086D01*
X0141669Y0049300D02*
X0145601Y0049300D01*
X0146386Y0048515D02*
X0140883Y0048515D01*
X0140978Y0047729D02*
X0145990Y0047729D01*
X0145204Y0046943D02*
X0141764Y0046943D01*
X0142550Y0046157D02*
X0144419Y0046157D01*
X0143633Y0045371D02*
X0143336Y0045371D01*
X0143516Y0044585D02*
X0143541Y0044585D01*
X0143516Y0043799D02*
X0143541Y0043799D01*
X0143516Y0043013D02*
X0148241Y0043013D01*
X0148241Y0043799D02*
X0149028Y0043799D01*
X0149028Y0044585D02*
X0148241Y0044585D01*
X0148241Y0045371D02*
X0149028Y0045371D01*
X0149028Y0046157D02*
X0148241Y0046157D01*
X0148241Y0046943D02*
X0149028Y0046943D01*
X0149028Y0047729D02*
X0148241Y0047729D01*
X0150883Y0048515D02*
X0152099Y0048515D01*
X0152099Y0049300D02*
X0151669Y0049300D01*
X0151279Y0047729D02*
X0152099Y0047729D01*
X0152065Y0046943D02*
X0152099Y0046943D01*
X0143541Y0042227D02*
X0143516Y0042227D01*
X0143516Y0041441D02*
X0143541Y0041441D01*
X0143945Y0040655D02*
X0143024Y0040655D01*
X0142238Y0039869D02*
X0144731Y0039869D01*
X0145517Y0039084D02*
X0141452Y0039084D01*
X0135817Y0039084D02*
X0095122Y0039084D01*
X0095122Y0039869D02*
X0135032Y0039869D01*
X0134246Y0040655D02*
X0094889Y0040655D01*
X0094103Y0041441D02*
X0116347Y0041441D01*
X0115561Y0042227D02*
X0064894Y0042227D01*
X0064894Y0043013D02*
X0115179Y0043013D01*
X0115179Y0043799D02*
X0064894Y0043799D01*
X0064894Y0044585D02*
X0115179Y0044585D01*
X0115403Y0045371D02*
X0064894Y0045371D01*
X0064894Y0046157D02*
X0116189Y0046157D01*
X0116608Y0046943D02*
X0064894Y0046943D01*
X0064894Y0047729D02*
X0115291Y0047729D01*
X0113975Y0048515D02*
X0064894Y0048515D01*
X0064894Y0049300D02*
X0112658Y0049300D01*
X0111341Y0050086D02*
X0064894Y0050086D01*
X0064894Y0050872D02*
X0110025Y0050872D01*
X0108708Y0051658D02*
X0064894Y0051658D01*
X0064894Y0052444D02*
X0107391Y0052444D01*
X0106075Y0053230D02*
X0064902Y0053230D01*
X0064894Y0054016D02*
X0104758Y0054016D01*
X0103441Y0054802D02*
X0077714Y0054802D01*
X0077411Y0059517D02*
X0058304Y0059517D01*
X0057651Y0060303D02*
X0094701Y0060303D01*
X0095004Y0055588D02*
X0102125Y0055588D01*
X0101509Y0058248D02*
X0118438Y0048406D01*
X0118241Y0043878D01*
X0121303Y0043799D02*
X0121875Y0043799D01*
X0121303Y0043013D02*
X0123191Y0043013D01*
X0124508Y0042227D02*
X0120921Y0042227D01*
X0120135Y0041441D02*
X0125772Y0041441D01*
X0126923Y0045371D02*
X0133933Y0045371D01*
X0134719Y0046157D02*
X0125606Y0046157D01*
X0124289Y0046943D02*
X0135505Y0046943D01*
X0136291Y0047729D02*
X0122973Y0047729D01*
X0121656Y0048515D02*
X0136386Y0048515D01*
X0135601Y0049300D02*
X0120339Y0049300D01*
X0121285Y0050086D02*
X0119023Y0050086D01*
X0117706Y0050872D02*
X0120499Y0050872D01*
X0120100Y0051658D02*
X0116389Y0051658D01*
X0115073Y0052444D02*
X0120100Y0052444D01*
X0120100Y0053230D02*
X0113756Y0053230D01*
X0112439Y0054016D02*
X0120308Y0054016D01*
X0121094Y0054802D02*
X0111123Y0054802D01*
X0109806Y0055588D02*
X0121587Y0055588D01*
X0121587Y0056374D02*
X0108490Y0056374D01*
X0107173Y0057160D02*
X0121587Y0057160D01*
X0121587Y0057945D02*
X0105856Y0057945D01*
X0104540Y0058731D02*
X0121587Y0058731D01*
X0121587Y0059517D02*
X0103622Y0059517D01*
X0102761Y0060303D02*
X0121587Y0060303D01*
X0121587Y0061089D02*
X0057185Y0061089D01*
X0055947Y0061875D02*
X0121587Y0061875D01*
X0121587Y0062661D02*
X0053018Y0062661D01*
X0053001Y0063447D02*
X0121587Y0063447D01*
X0121587Y0064233D02*
X0052984Y0064233D01*
X0052967Y0065019D02*
X0121587Y0065019D01*
X0121587Y0065805D02*
X0052950Y0065805D01*
X0052933Y0066591D02*
X0121587Y0066591D01*
X0122189Y0067376D02*
X0052916Y0067376D01*
X0052898Y0068162D02*
X0122975Y0068162D01*
X0123761Y0068948D02*
X0052881Y0068948D01*
X0052864Y0069734D02*
X0126184Y0069734D01*
X0126970Y0070520D02*
X0052847Y0070520D01*
X0052830Y0071306D02*
X0133754Y0071306D01*
X0133754Y0072092D02*
X0059053Y0072092D01*
X0059839Y0072878D02*
X0133754Y0072878D01*
X0133754Y0073664D02*
X0080175Y0073664D01*
X0080961Y0074450D02*
X0133754Y0074450D01*
X0133798Y0075236D02*
X0081747Y0075236D01*
X0082533Y0076021D02*
X0134584Y0076021D01*
X0135485Y0077461D02*
X0136154Y0078130D01*
X0143595Y0078130D01*
X0148635Y0083169D01*
X0152319Y0079951D02*
X0153871Y0079951D01*
X0153871Y0079165D02*
X0151533Y0079165D01*
X0150747Y0078379D02*
X0153871Y0078379D01*
X0153871Y0077593D02*
X0151114Y0077593D01*
X0151899Y0076807D02*
X0153871Y0076807D01*
X0153871Y0076021D02*
X0152685Y0076021D01*
X0153471Y0075236D02*
X0153871Y0075236D01*
X0153871Y0074450D02*
X0153516Y0074450D01*
X0153516Y0073664D02*
X0153871Y0073664D01*
X0153871Y0072878D02*
X0153516Y0072878D01*
X0153516Y0072092D02*
X0153871Y0072092D01*
X0153871Y0071306D02*
X0153516Y0071306D01*
X0153871Y0070520D02*
X0152888Y0070520D01*
X0152102Y0069734D02*
X0153871Y0069734D01*
X0153871Y0068948D02*
X0152681Y0068948D01*
X0153467Y0068162D02*
X0153871Y0068162D01*
X0145370Y0076807D02*
X0144500Y0076807D01*
X0144584Y0076021D02*
X0142685Y0076021D01*
X0143471Y0075236D02*
X0143798Y0075236D01*
X0143754Y0074450D02*
X0143516Y0074450D01*
X0143516Y0073664D02*
X0143754Y0073664D01*
X0143754Y0072878D02*
X0143516Y0072878D01*
X0143516Y0072092D02*
X0143754Y0072092D01*
X0141731Y0068948D02*
X0141317Y0068948D01*
X0138635Y0063169D02*
X0127099Y0062972D01*
X0129384Y0065019D02*
X0133754Y0065019D01*
X0134367Y0065805D02*
X0130916Y0065805D01*
X0131701Y0066591D02*
X0135153Y0066591D01*
X0134381Y0070520D02*
X0130772Y0070520D01*
X0128871Y0068091D02*
X0125131Y0068091D01*
X0123162Y0066122D01*
X0123162Y0052539D01*
X0125230Y0054802D02*
X0133754Y0054802D01*
X0133754Y0054016D02*
X0126016Y0054016D01*
X0126224Y0053230D02*
X0133754Y0053230D01*
X0133754Y0052444D02*
X0126224Y0052444D01*
X0126224Y0051658D02*
X0133754Y0051658D01*
X0134029Y0050872D02*
X0125826Y0050872D01*
X0125040Y0050086D02*
X0134815Y0050086D01*
X0134150Y0055588D02*
X0124737Y0055588D01*
X0124737Y0056374D02*
X0134936Y0056374D01*
X0135722Y0057160D02*
X0124737Y0057160D01*
X0124737Y0057945D02*
X0136508Y0057945D01*
X0136170Y0058731D02*
X0124737Y0058731D01*
X0124737Y0059517D02*
X0135384Y0059517D01*
X0134598Y0060303D02*
X0128761Y0060303D01*
X0129546Y0061089D02*
X0133812Y0061089D01*
X0125438Y0060303D02*
X0124737Y0060303D01*
X0131301Y0076807D02*
X0083319Y0076807D01*
X0084105Y0077593D02*
X0121228Y0077593D01*
X0120230Y0078379D02*
X0084891Y0078379D01*
X0084698Y0080413D02*
X0079068Y0074783D01*
X0057217Y0074783D01*
X0057020Y0074390D01*
X0055108Y0076807D02*
X0053371Y0076807D01*
X0052728Y0076021D02*
X0054322Y0076021D01*
X0053958Y0075236D02*
X0052745Y0075236D01*
X0052762Y0074450D02*
X0053958Y0074450D01*
X0053958Y0073664D02*
X0052779Y0073664D01*
X0052796Y0072878D02*
X0054202Y0072878D01*
X0054988Y0072092D02*
X0052813Y0072092D01*
X0048173Y0068162D02*
X0017315Y0068162D01*
X0017641Y0067376D02*
X0048190Y0067376D01*
X0048207Y0066591D02*
X0017807Y0066591D01*
X0017807Y0065805D02*
X0048224Y0065805D01*
X0048241Y0065019D02*
X0017801Y0065019D01*
X0018038Y0064233D02*
X0048258Y0064233D01*
X0048275Y0063447D02*
X0018824Y0063447D01*
X0019610Y0062661D02*
X0048293Y0062661D01*
X0053067Y0057160D02*
X0017731Y0057160D01*
X0017807Y0056374D02*
X0054767Y0056374D01*
X0055553Y0055588D02*
X0017807Y0055588D01*
X0017711Y0054802D02*
X0056317Y0054802D01*
X0057125Y0054016D02*
X0017386Y0054016D01*
X0017055Y0053230D02*
X0061286Y0053230D01*
X0061745Y0052444D02*
X0016269Y0052444D01*
X0015189Y0051658D02*
X0061745Y0051658D01*
X0063320Y0053720D02*
X0055249Y0059429D01*
X0059090Y0058731D02*
X0060121Y0058731D01*
X0063320Y0053720D02*
X0063320Y0041319D01*
X0068635Y0036004D01*
X0068831Y0036004D01*
X0066137Y0034368D02*
X0053980Y0034368D01*
X0053980Y0033582D02*
X0066923Y0033582D01*
X0065769Y0035154D02*
X0053343Y0035154D01*
X0052557Y0035940D02*
X0065769Y0035940D01*
X0064114Y0038298D02*
X0023604Y0038298D01*
X0022733Y0039084D02*
X0063328Y0039084D01*
X0062542Y0039869D02*
X0022676Y0039869D01*
X0022702Y0040655D02*
X0061756Y0040655D01*
X0061745Y0041441D02*
X0022727Y0041441D01*
X0022752Y0042227D02*
X0061745Y0042227D01*
X0061745Y0043013D02*
X0023360Y0043013D01*
X0024146Y0043799D02*
X0061745Y0043799D01*
X0061745Y0044585D02*
X0024335Y0044585D01*
X0024335Y0045371D02*
X0061745Y0045371D01*
X0061745Y0046157D02*
X0024335Y0046157D01*
X0023916Y0046943D02*
X0061745Y0046943D01*
X0061745Y0047729D02*
X0023130Y0047729D01*
X0017644Y0057945D02*
X0017405Y0057945D01*
X0014500Y0061089D02*
X0004190Y0061089D01*
X0004190Y0060303D02*
X0010550Y0060303D01*
X0009536Y0059517D02*
X0004190Y0059517D01*
X0004190Y0058731D02*
X0008772Y0058731D01*
X0008447Y0057945D02*
X0004190Y0057945D01*
X0004190Y0057160D02*
X0008121Y0057160D01*
X0008045Y0056374D02*
X0004190Y0056374D01*
X0004190Y0055588D02*
X0008045Y0055588D01*
X0008141Y0054802D02*
X0004190Y0054802D01*
X0004190Y0054016D02*
X0008466Y0054016D01*
X0008797Y0053230D02*
X0004190Y0053230D01*
X0004190Y0052444D02*
X0009583Y0052444D01*
X0010152Y0061875D02*
X0004190Y0061875D01*
X0004190Y0062661D02*
X0009366Y0062661D01*
X0008702Y0063447D02*
X0004190Y0063447D01*
X0004190Y0064233D02*
X0008376Y0064233D01*
X0008051Y0065019D02*
X0004190Y0065019D01*
X0004190Y0065805D02*
X0008045Y0065805D01*
X0008045Y0066591D02*
X0004190Y0066591D01*
X0004190Y0067376D02*
X0008211Y0067376D01*
X0008537Y0068162D02*
X0004190Y0068162D01*
X0004190Y0068948D02*
X0008967Y0068948D01*
X0009753Y0069734D02*
X0004190Y0069734D01*
X0004190Y0070520D02*
X0011074Y0070520D01*
X0010971Y0071283D02*
X0011733Y0071036D01*
X0012525Y0070910D01*
X0012532Y0070910D01*
X0012532Y0075610D01*
X0007832Y0075610D01*
X0007832Y0075603D01*
X0007958Y0074811D01*
X0008205Y0074049D01*
X0008569Y0073334D01*
X0009041Y0072686D01*
X0009608Y0072119D01*
X0010256Y0071647D01*
X0010971Y0071283D01*
X0010926Y0071306D02*
X0004190Y0071306D01*
X0004190Y0072092D02*
X0009644Y0072092D01*
X0008901Y0072878D02*
X0004190Y0072878D01*
X0004190Y0073664D02*
X0008402Y0073664D01*
X0008075Y0074450D02*
X0004190Y0074450D01*
X0004190Y0075236D02*
X0007890Y0075236D01*
X0007832Y0076398D02*
X0012532Y0076398D01*
X0012532Y0080910D01*
X0012532Y0085610D01*
X0007832Y0085610D01*
X0007832Y0085603D01*
X0007958Y0084811D01*
X0008205Y0084049D01*
X0008569Y0083334D01*
X0009041Y0082686D01*
X0009608Y0082119D01*
X0010256Y0081647D01*
X0010971Y0081283D01*
X0011733Y0081036D01*
X0011934Y0081004D01*
X0011733Y0080972D01*
X0010971Y0080724D01*
X0010256Y0080360D01*
X0009608Y0079889D01*
X0009041Y0079322D01*
X0008569Y0078674D01*
X0008205Y0077959D01*
X0007958Y0077197D01*
X0007832Y0076405D01*
X0007832Y0076398D01*
X0007896Y0076807D02*
X0004190Y0076807D01*
X0004190Y0076021D02*
X0012532Y0076021D01*
X0012532Y0076398D02*
X0012532Y0075610D01*
X0013320Y0075610D01*
X0013320Y0076398D01*
X0012532Y0076398D01*
X0012532Y0076807D02*
X0013320Y0076807D01*
X0013320Y0076398D02*
X0013320Y0085610D01*
X0013320Y0086398D01*
X0012532Y0086398D01*
X0012532Y0091098D01*
X0012525Y0091098D01*
X0011733Y0090972D01*
X0010971Y0090724D01*
X0010256Y0090360D01*
X0009608Y0089889D01*
X0009041Y0089322D01*
X0008569Y0088674D01*
X0008205Y0087959D01*
X0007958Y0087197D01*
X0007832Y0086405D01*
X0007832Y0086398D01*
X0012532Y0086398D01*
X0012532Y0085610D01*
X0013320Y0085610D01*
X0018020Y0085610D01*
X0018020Y0085603D01*
X0017894Y0084811D01*
X0017646Y0084049D01*
X0017282Y0083334D01*
X0016811Y0082686D01*
X0016244Y0082119D01*
X0015596Y0081647D01*
X0014881Y0081283D01*
X0014119Y0081036D01*
X0013918Y0081004D01*
X0014119Y0080972D01*
X0014881Y0080724D01*
X0015596Y0080360D01*
X0016244Y0079889D01*
X0016811Y0079322D01*
X0017282Y0078674D01*
X0017646Y0077959D01*
X0017894Y0077197D01*
X0018020Y0076405D01*
X0018020Y0076398D01*
X0013320Y0076398D01*
X0013320Y0076021D02*
X0048002Y0076021D01*
X0048019Y0075236D02*
X0017961Y0075236D01*
X0018020Y0075603D02*
X0018020Y0075610D01*
X0013320Y0075610D01*
X0013320Y0070910D01*
X0013327Y0070910D01*
X0014119Y0071036D01*
X0014881Y0071283D01*
X0015596Y0071647D01*
X0016244Y0072119D01*
X0016811Y0072686D01*
X0017282Y0073334D01*
X0017646Y0074049D01*
X0017894Y0074811D01*
X0018020Y0075603D01*
X0017777Y0074450D02*
X0048036Y0074450D01*
X0048053Y0073664D02*
X0017450Y0073664D01*
X0016951Y0072878D02*
X0048070Y0072878D01*
X0048087Y0072092D02*
X0016207Y0072092D01*
X0014926Y0071306D02*
X0048105Y0071306D01*
X0048122Y0070520D02*
X0014778Y0070520D01*
X0016099Y0069734D02*
X0048139Y0069734D01*
X0048156Y0068948D02*
X0016885Y0068948D01*
X0013320Y0071306D02*
X0012532Y0071306D01*
X0012532Y0072092D02*
X0013320Y0072092D01*
X0013320Y0072878D02*
X0012532Y0072878D01*
X0012532Y0073664D02*
X0013320Y0073664D01*
X0013320Y0074450D02*
X0012532Y0074450D01*
X0012532Y0075236D02*
X0013320Y0075236D01*
X0013320Y0077593D02*
X0012532Y0077593D01*
X0012532Y0078379D02*
X0013320Y0078379D01*
X0013320Y0079165D02*
X0012532Y0079165D01*
X0012532Y0079951D02*
X0013320Y0079951D01*
X0013320Y0080737D02*
X0012532Y0080737D01*
X0012532Y0081523D02*
X0013320Y0081523D01*
X0013320Y0082309D02*
X0012532Y0082309D01*
X0012532Y0083095D02*
X0013320Y0083095D01*
X0013320Y0083881D02*
X0012532Y0083881D01*
X0012532Y0084667D02*
X0013320Y0084667D01*
X0013320Y0085452D02*
X0012532Y0085452D01*
X0012532Y0086238D02*
X0004190Y0086238D01*
X0004190Y0085452D02*
X0007856Y0085452D01*
X0008005Y0084667D02*
X0004190Y0084667D01*
X0004190Y0083881D02*
X0008291Y0083881D01*
X0008744Y0083095D02*
X0004190Y0083095D01*
X0004190Y0082309D02*
X0009418Y0082309D01*
X0010501Y0081523D02*
X0004190Y0081523D01*
X0004190Y0080737D02*
X0011009Y0080737D01*
X0009693Y0079951D02*
X0004190Y0079951D01*
X0004190Y0079165D02*
X0008927Y0079165D01*
X0008419Y0078379D02*
X0004190Y0078379D01*
X0004190Y0077593D02*
X0008087Y0077593D01*
X0014843Y0080737D02*
X0050738Y0080737D01*
X0052047Y0081523D02*
X0015351Y0081523D01*
X0016434Y0082309D02*
X0053357Y0082309D01*
X0054667Y0083095D02*
X0017108Y0083095D01*
X0017561Y0083881D02*
X0074499Y0083881D01*
X0075239Y0084667D02*
X0017847Y0084667D01*
X0017996Y0085452D02*
X0075980Y0085452D01*
X0076720Y0086238D02*
X0013320Y0086238D01*
X0013320Y0086398D02*
X0018020Y0086398D01*
X0018020Y0086405D01*
X0017894Y0087197D01*
X0017646Y0087959D01*
X0017282Y0088674D01*
X0016811Y0089322D01*
X0016244Y0089889D01*
X0015596Y0090360D01*
X0014881Y0090724D01*
X0014119Y0090972D01*
X0013327Y0091098D01*
X0013320Y0091098D01*
X0013320Y0086398D01*
X0013320Y0087024D02*
X0012532Y0087024D01*
X0012532Y0087810D02*
X0013320Y0087810D01*
X0013320Y0088596D02*
X0012532Y0088596D01*
X0012532Y0089382D02*
X0013320Y0089382D01*
X0013320Y0090168D02*
X0012532Y0090168D01*
X0012532Y0090954D02*
X0013320Y0090954D01*
X0014175Y0090954D02*
X0081163Y0090954D01*
X0081903Y0091740D02*
X0004190Y0091740D01*
X0004190Y0092526D02*
X0082644Y0092526D01*
X0083384Y0093312D02*
X0004190Y0093312D01*
X0004190Y0094097D02*
X0084125Y0094097D01*
X0084865Y0094883D02*
X0004190Y0094883D01*
X0004190Y0095669D02*
X0085606Y0095669D01*
X0086346Y0096455D02*
X0004190Y0096455D01*
X0004190Y0097241D02*
X0006633Y0097241D01*
X0006548Y0097326D02*
X0007240Y0096634D01*
X0021604Y0096634D01*
X0022296Y0097326D01*
X0022296Y0104603D01*
X0021604Y0105295D01*
X0007240Y0105295D01*
X0006548Y0104603D01*
X0006548Y0097326D01*
X0006548Y0098027D02*
X0004190Y0098027D01*
X0004190Y0098813D02*
X0006548Y0098813D01*
X0006548Y0099599D02*
X0004190Y0099599D01*
X0004190Y0100385D02*
X0006548Y0100385D01*
X0006548Y0101171D02*
X0004190Y0101171D01*
X0004190Y0101957D02*
X0006548Y0101957D01*
X0006548Y0102743D02*
X0004190Y0102743D01*
X0004190Y0103528D02*
X0006548Y0103528D01*
X0006548Y0104314D02*
X0004190Y0104314D01*
X0004190Y0105100D02*
X0007045Y0105100D01*
X0004190Y0105886D02*
X0079270Y0105886D01*
X0080056Y0105100D02*
X0021799Y0105100D01*
X0022296Y0104314D02*
X0080842Y0104314D01*
X0081628Y0103528D02*
X0022296Y0103528D01*
X0022296Y0102743D02*
X0082414Y0102743D01*
X0083200Y0101957D02*
X0022296Y0101957D01*
X0022296Y0101171D02*
X0083985Y0101171D01*
X0084771Y0100385D02*
X0022296Y0100385D01*
X0022296Y0099599D02*
X0085557Y0099599D01*
X0086343Y0098813D02*
X0022296Y0098813D01*
X0022296Y0098027D02*
X0087129Y0098027D01*
X0087087Y0097241D02*
X0022211Y0097241D01*
X0015861Y0090168D02*
X0080422Y0090168D01*
X0079682Y0089382D02*
X0016751Y0089382D01*
X0017322Y0088596D02*
X0078942Y0088596D01*
X0078201Y0087810D02*
X0017695Y0087810D01*
X0017922Y0087024D02*
X0077461Y0087024D01*
X0080990Y0083881D02*
X0119876Y0083881D01*
X0119551Y0084667D02*
X0081730Y0084667D01*
X0082471Y0085452D02*
X0119501Y0085452D01*
X0119583Y0086238D02*
X0083211Y0086238D01*
X0083952Y0087024D02*
X0119909Y0087024D01*
X0120499Y0087810D02*
X0084692Y0087810D01*
X0085433Y0088596D02*
X0119821Y0088596D01*
X0119438Y0089382D02*
X0086173Y0089382D01*
X0086914Y0090168D02*
X0119288Y0090168D01*
X0119330Y0090954D02*
X0087654Y0090954D01*
X0088395Y0091740D02*
X0119561Y0091740D01*
X0120018Y0092526D02*
X0089135Y0092526D01*
X0089876Y0093312D02*
X0120298Y0093312D01*
X0119786Y0094097D02*
X0090616Y0094097D01*
X0091356Y0094883D02*
X0119501Y0094883D01*
X0119501Y0095669D02*
X0092097Y0095669D01*
X0092860Y0096455D02*
X0119673Y0096455D01*
X0120024Y0097241D02*
X0093646Y0097241D01*
X0094431Y0098027D02*
X0120583Y0098027D01*
X0119904Y0098813D02*
X0095217Y0098813D01*
X0096003Y0099599D02*
X0113639Y0099599D01*
X0112853Y0100385D02*
X0096789Y0100385D01*
X0097804Y0101171D02*
X0112068Y0101171D01*
X0111942Y0103524D02*
X0097126Y0103524D01*
X0096871Y0103269D01*
X0098753Y0105100D02*
X0118635Y0105100D01*
X0118635Y0104314D02*
X0113378Y0104314D01*
X0114164Y0103528D02*
X0119355Y0103528D01*
X0120141Y0102743D02*
X0114950Y0102743D01*
X0115052Y0100413D02*
X0111942Y0103524D01*
X0115052Y0100413D02*
X0122650Y0100413D01*
X0122650Y0102461D01*
X0120209Y0104902D01*
X0120209Y0126752D01*
X0124934Y0131476D01*
X0134580Y0131476D01*
X0137139Y0128917D01*
X0139658Y0127106D02*
X0143831Y0127106D01*
X0143831Y0127067D02*
X0140666Y0127067D01*
X0140666Y0124324D01*
X0140761Y0123970D01*
X0140945Y0123652D01*
X0141204Y0123393D01*
X0141522Y0123209D01*
X0141876Y0123114D01*
X0143832Y0123114D01*
X0143832Y0127067D01*
X0144619Y0127067D01*
X0144619Y0127854D01*
X0147784Y0127854D01*
X0147784Y0130597D01*
X0147689Y0130951D01*
X0147506Y0131269D01*
X0147246Y0131529D01*
X0146928Y0131712D01*
X0146574Y0131807D01*
X0144619Y0131807D01*
X0144619Y0127854D01*
X0143832Y0127854D01*
X0143832Y0131807D01*
X0141876Y0131807D01*
X0141522Y0131712D01*
X0141204Y0131529D01*
X0140945Y0131269D01*
X0140761Y0130951D01*
X0140666Y0130597D01*
X0140666Y0127854D01*
X0143831Y0127854D01*
X0143831Y0127067D01*
X0143832Y0126320D02*
X0144619Y0126320D01*
X0144619Y0127067D02*
X0144619Y0123114D01*
X0146574Y0123114D01*
X0146928Y0123209D01*
X0147246Y0123393D01*
X0147506Y0123652D01*
X0147689Y0123970D01*
X0147784Y0124324D01*
X0147784Y0127067D01*
X0144619Y0127067D01*
X0144619Y0127106D02*
X0153871Y0127106D01*
X0153871Y0127892D02*
X0147784Y0127892D01*
X0147784Y0128678D02*
X0153871Y0128678D01*
X0153871Y0129464D02*
X0147784Y0129464D01*
X0147784Y0130249D02*
X0153871Y0130249D01*
X0153871Y0131035D02*
X0147641Y0131035D01*
X0144619Y0131035D02*
X0143832Y0131035D01*
X0143832Y0130249D02*
X0144619Y0130249D01*
X0144619Y0129464D02*
X0143832Y0129464D01*
X0143832Y0128678D02*
X0144619Y0128678D01*
X0144619Y0127892D02*
X0143832Y0127892D01*
X0143832Y0125534D02*
X0144619Y0125534D01*
X0144619Y0124748D02*
X0143832Y0124748D01*
X0143832Y0123962D02*
X0144619Y0123962D01*
X0144619Y0123176D02*
X0143832Y0123176D01*
X0141645Y0123176D02*
X0129666Y0123176D01*
X0129666Y0123962D02*
X0140766Y0123962D01*
X0140666Y0124748D02*
X0129666Y0124748D01*
X0129666Y0125534D02*
X0140666Y0125534D01*
X0140666Y0126320D02*
X0138872Y0126320D01*
X0140201Y0127892D02*
X0140666Y0127892D01*
X0140666Y0128678D02*
X0140201Y0128678D01*
X0140201Y0129464D02*
X0140666Y0129464D01*
X0140666Y0130249D02*
X0140137Y0130249D01*
X0140810Y0131035D02*
X0139351Y0131035D01*
X0138565Y0131821D02*
X0153871Y0131821D01*
X0153871Y0132607D02*
X0135676Y0132607D01*
X0134076Y0129464D02*
X0125148Y0129464D01*
X0124362Y0128678D02*
X0134076Y0128678D01*
X0134076Y0127892D02*
X0129327Y0127892D01*
X0129666Y0127106D02*
X0134619Y0127106D01*
X0135405Y0126320D02*
X0129666Y0126320D01*
X0129942Y0122390D02*
X0153871Y0122390D01*
X0153871Y0121604D02*
X0130727Y0121604D01*
X0131513Y0120819D02*
X0153871Y0120819D01*
X0153871Y0120033D02*
X0132299Y0120033D01*
X0133085Y0119247D02*
X0153871Y0119247D01*
X0153871Y0118461D02*
X0135309Y0118461D01*
X0135662Y0117675D02*
X0153871Y0117675D01*
X0153871Y0116889D02*
X0135662Y0116889D01*
X0135662Y0116103D02*
X0153871Y0116103D01*
X0153871Y0115317D02*
X0135662Y0115317D01*
X0135662Y0114531D02*
X0153871Y0114531D01*
X0153871Y0113745D02*
X0135662Y0113745D01*
X0135662Y0112959D02*
X0153871Y0112959D01*
X0153871Y0112173D02*
X0135662Y0112173D01*
X0135662Y0111388D02*
X0153871Y0111388D01*
X0153871Y0110602D02*
X0135662Y0110602D01*
X0135662Y0109816D02*
X0153871Y0109816D01*
X0153871Y0109030D02*
X0135662Y0109030D01*
X0135662Y0108244D02*
X0153871Y0108244D01*
X0153871Y0107458D02*
X0135875Y0107458D01*
X0135875Y0106672D02*
X0153871Y0106672D01*
X0153871Y0105886D02*
X0135875Y0105886D01*
X0135682Y0105100D02*
X0153871Y0105100D01*
X0153871Y0104314D02*
X0123024Y0104314D01*
X0123554Y0105100D02*
X0122238Y0105100D01*
X0121784Y0105886D02*
X0122768Y0105886D01*
X0122462Y0106672D02*
X0121784Y0106672D01*
X0121784Y0107458D02*
X0122462Y0107458D01*
X0122462Y0108244D02*
X0121784Y0108244D01*
X0121784Y0109030D02*
X0122763Y0109030D01*
X0123549Y0109816D02*
X0121784Y0109816D01*
X0121784Y0110602D02*
X0122187Y0110602D01*
X0124146Y0112972D02*
X0126587Y0114272D01*
X0132414Y0114272D01*
X0132414Y0111713D02*
X0132296Y0111594D01*
X0128280Y0111791D01*
X0128280Y0111988D01*
X0125524Y0107461D01*
X0127495Y0105100D02*
X0129146Y0105100D01*
X0128954Y0105886D02*
X0128281Y0105886D01*
X0128587Y0106672D02*
X0128954Y0106672D01*
X0128954Y0107458D02*
X0128587Y0107458D01*
X0128587Y0108244D02*
X0129166Y0108244D01*
X0129166Y0109030D02*
X0128323Y0109030D01*
X0128802Y0109816D02*
X0129166Y0109816D01*
X0132414Y0105886D02*
X0132414Y0105886D01*
X0132414Y0105100D02*
X0132414Y0105100D01*
X0125420Y0101957D02*
X0153871Y0101957D01*
X0153871Y0102743D02*
X0124775Y0102743D01*
X0123810Y0103528D02*
X0153871Y0103528D01*
X0153871Y0101171D02*
X0125746Y0101171D01*
X0125800Y0100385D02*
X0153871Y0100385D01*
X0153871Y0099599D02*
X0147606Y0099599D01*
X0147689Y0099455D02*
X0147506Y0099773D01*
X0147246Y0100033D01*
X0146928Y0100216D01*
X0146574Y0100311D01*
X0144619Y0100311D01*
X0144619Y0096358D01*
X0147784Y0096358D01*
X0147784Y0099101D01*
X0147689Y0099455D01*
X0147784Y0098813D02*
X0153871Y0098813D01*
X0153871Y0098027D02*
X0147784Y0098027D01*
X0147784Y0097241D02*
X0153871Y0097241D01*
X0153871Y0096455D02*
X0147784Y0096455D01*
X0147784Y0095571D02*
X0147784Y0092828D01*
X0147689Y0092474D01*
X0147506Y0092156D01*
X0147246Y0091897D01*
X0146928Y0091713D01*
X0146574Y0091618D01*
X0144619Y0091618D01*
X0144619Y0095571D01*
X0144619Y0096358D01*
X0143832Y0096358D01*
X0143832Y0100311D01*
X0141876Y0100311D01*
X0141522Y0100216D01*
X0141204Y0100033D01*
X0140945Y0099773D01*
X0140761Y0099455D01*
X0140666Y0099101D01*
X0140666Y0096358D01*
X0143831Y0096358D01*
X0143831Y0095571D01*
X0140666Y0095571D01*
X0140666Y0092828D01*
X0140761Y0092474D01*
X0140945Y0092156D01*
X0141204Y0091897D01*
X0141522Y0091713D01*
X0141876Y0091618D01*
X0143832Y0091618D01*
X0143832Y0095571D01*
X0144619Y0095571D01*
X0147784Y0095571D01*
X0147784Y0094883D02*
X0153871Y0094883D01*
X0153871Y0094097D02*
X0147784Y0094097D01*
X0147784Y0093312D02*
X0153871Y0093312D01*
X0153871Y0092526D02*
X0147703Y0092526D01*
X0146975Y0091740D02*
X0153871Y0091740D01*
X0153871Y0090954D02*
X0125971Y0090954D01*
X0126013Y0090168D02*
X0153871Y0090168D01*
X0153871Y0089382D02*
X0125862Y0089382D01*
X0125480Y0088596D02*
X0153871Y0088596D01*
X0153871Y0087810D02*
X0150897Y0087810D01*
X0151683Y0087024D02*
X0153871Y0087024D01*
X0153871Y0086238D02*
X0152468Y0086238D01*
X0153254Y0085452D02*
X0153871Y0085452D01*
X0153871Y0084667D02*
X0153516Y0084667D01*
X0153516Y0083881D02*
X0153871Y0083881D01*
X0153871Y0083095D02*
X0153516Y0083095D01*
X0153516Y0082309D02*
X0153871Y0082309D01*
X0153871Y0081523D02*
X0153516Y0081523D01*
X0153871Y0080737D02*
X0153105Y0080737D01*
X0146522Y0078379D02*
X0146072Y0078379D01*
X0146156Y0077593D02*
X0145286Y0077593D01*
X0143189Y0079951D02*
X0142319Y0079951D01*
X0143105Y0080737D02*
X0143975Y0080737D01*
X0143754Y0081523D02*
X0143516Y0081523D01*
X0143516Y0082309D02*
X0143754Y0082309D01*
X0143754Y0083095D02*
X0143516Y0083095D01*
X0143516Y0083881D02*
X0143754Y0083881D01*
X0143754Y0084667D02*
X0143516Y0084667D01*
X0143254Y0085452D02*
X0144015Y0085452D01*
X0144801Y0086238D02*
X0142468Y0086238D01*
X0141683Y0087024D02*
X0145587Y0087024D01*
X0146373Y0087810D02*
X0140897Y0087810D01*
X0141476Y0091740D02*
X0125740Y0091740D01*
X0125283Y0092526D02*
X0140747Y0092526D01*
X0140666Y0093312D02*
X0125003Y0093312D01*
X0125514Y0094097D02*
X0140666Y0094097D01*
X0140666Y0094883D02*
X0125800Y0094883D01*
X0125800Y0095669D02*
X0143831Y0095669D01*
X0143832Y0094883D02*
X0144619Y0094883D01*
X0144619Y0094097D02*
X0143832Y0094097D01*
X0143832Y0093312D02*
X0144619Y0093312D01*
X0144619Y0092526D02*
X0143832Y0092526D01*
X0143832Y0091740D02*
X0144619Y0091740D01*
X0144619Y0095669D02*
X0153871Y0095669D01*
X0144619Y0096455D02*
X0143832Y0096455D01*
X0143832Y0097241D02*
X0144619Y0097241D01*
X0144619Y0098027D02*
X0143832Y0098027D01*
X0143832Y0098813D02*
X0144619Y0098813D01*
X0144619Y0099599D02*
X0143832Y0099599D01*
X0140844Y0099599D02*
X0125722Y0099599D01*
X0125397Y0098813D02*
X0140666Y0098813D01*
X0140666Y0098027D02*
X0124718Y0098027D01*
X0125277Y0097241D02*
X0140666Y0097241D01*
X0140666Y0096455D02*
X0125628Y0096455D01*
X0124802Y0087810D02*
X0136373Y0087810D01*
X0135587Y0087024D02*
X0125392Y0087024D01*
X0125718Y0086238D02*
X0134801Y0086238D01*
X0134015Y0085452D02*
X0125800Y0085452D01*
X0125750Y0084667D02*
X0133754Y0084667D01*
X0133754Y0083881D02*
X0125425Y0083881D01*
X0124786Y0083095D02*
X0133754Y0083095D01*
X0133754Y0082309D02*
X0125209Y0082309D01*
X0125600Y0081523D02*
X0133754Y0081523D01*
X0134164Y0080737D02*
X0128268Y0080737D01*
X0127884Y0077593D02*
X0124072Y0077593D01*
X0122650Y0080413D02*
X0084698Y0080413D01*
X0083580Y0081523D02*
X0078768Y0081523D01*
X0078028Y0080737D02*
X0082794Y0080737D01*
X0082008Y0079951D02*
X0077287Y0079951D01*
X0076554Y0079165D02*
X0081222Y0079165D01*
X0080436Y0078379D02*
X0075806Y0078379D01*
X0078865Y0076807D02*
X0058933Y0076807D01*
X0054681Y0077593D02*
X0079650Y0077593D01*
X0079509Y0082309D02*
X0120092Y0082309D01*
X0120515Y0083095D02*
X0080249Y0083095D01*
X0073758Y0083095D02*
X0055366Y0083095D01*
X0049178Y0079951D02*
X0016159Y0079951D01*
X0016925Y0079165D02*
X0048250Y0079165D01*
X0047951Y0078379D02*
X0017433Y0078379D01*
X0017765Y0077593D02*
X0047857Y0077593D01*
X0047985Y0076807D02*
X0017956Y0076807D01*
X0007930Y0087024D02*
X0004190Y0087024D01*
X0004190Y0087810D02*
X0008157Y0087810D01*
X0008530Y0088596D02*
X0004190Y0088596D01*
X0004190Y0089382D02*
X0009100Y0089382D01*
X0009991Y0090168D02*
X0004190Y0090168D01*
X0004190Y0090954D02*
X0011677Y0090954D01*
X0004190Y0106672D02*
X0053484Y0106672D01*
X0052698Y0107458D02*
X0044633Y0107458D01*
X0045131Y0108244D02*
X0051912Y0108244D01*
X0051126Y0109030D02*
X0045131Y0109030D01*
X0045131Y0109816D02*
X0050340Y0109816D01*
X0049555Y0110602D02*
X0045131Y0110602D01*
X0045131Y0111388D02*
X0048769Y0111388D01*
X0047983Y0112173D02*
X0045131Y0112173D01*
X0045042Y0112959D02*
X0047197Y0112959D01*
X0046411Y0113745D02*
X0008400Y0113745D01*
X0007702Y0114531D02*
X0045625Y0114531D01*
X0047020Y0116476D02*
X0047020Y0122382D01*
X0045406Y0123996D01*
X0042344Y0123962D02*
X0022161Y0123962D01*
X0022296Y0124748D02*
X0042344Y0124748D01*
X0042614Y0125534D02*
X0022296Y0125534D01*
X0022296Y0126320D02*
X0043400Y0126320D01*
X0044658Y0127106D02*
X0022296Y0127106D01*
X0022296Y0127892D02*
X0044658Y0127892D01*
X0044658Y0128678D02*
X0022296Y0128678D01*
X0022296Y0129464D02*
X0044658Y0129464D01*
X0044658Y0130249D02*
X0022296Y0130249D01*
X0022296Y0131035D02*
X0044658Y0131035D01*
X0044658Y0131821D02*
X0021850Y0131821D01*
X0020468Y0135751D02*
X0032944Y0135751D01*
X0032158Y0136537D02*
X0022365Y0136537D01*
X0023238Y0137323D02*
X0031927Y0137323D01*
X0031927Y0136768D02*
X0031927Y0138484D01*
X0036627Y0138484D01*
X0037414Y0138484D01*
X0037414Y0133784D01*
X0039130Y0133784D01*
X0042114Y0136768D01*
X0042114Y0138484D01*
X0037414Y0138484D01*
X0037414Y0139272D01*
X0036627Y0139272D01*
X0036627Y0143972D01*
X0034911Y0143972D01*
X0031927Y0140988D01*
X0031927Y0139272D01*
X0036627Y0139272D01*
X0036627Y0138484D01*
X0036627Y0133784D01*
X0034911Y0133784D01*
X0031927Y0136768D01*
X0031927Y0138109D02*
X0024024Y0138109D01*
X0024810Y0138895D02*
X0036627Y0138895D01*
X0036627Y0139680D02*
X0037414Y0139680D01*
X0037414Y0139272D02*
X0037414Y0143972D01*
X0039130Y0143972D01*
X0042114Y0140988D01*
X0042114Y0139272D01*
X0037414Y0139272D01*
X0037414Y0138895D02*
X0042139Y0138895D01*
X0042114Y0139680D02*
X0042139Y0139680D01*
X0042114Y0140466D02*
X0042139Y0140466D01*
X0041850Y0141252D02*
X0042492Y0141252D01*
X0043278Y0142038D02*
X0041064Y0142038D01*
X0040278Y0142824D02*
X0044064Y0142824D01*
X0044850Y0143610D02*
X0039492Y0143610D01*
X0039042Y0143997D02*
X0041902Y0146856D01*
X0041902Y0150900D01*
X0039042Y0153759D01*
X0034999Y0153759D01*
X0032139Y0150900D01*
X0032139Y0146856D01*
X0034999Y0143997D01*
X0039042Y0143997D01*
X0039441Y0144396D02*
X0044600Y0144396D01*
X0044999Y0143997D02*
X0049042Y0143997D01*
X0051902Y0146856D01*
X0051902Y0150900D01*
X0049042Y0153759D01*
X0044999Y0153759D01*
X0042139Y0150900D01*
X0042139Y0146856D01*
X0044999Y0143997D01*
X0043814Y0145182D02*
X0040227Y0145182D01*
X0041013Y0145968D02*
X0043028Y0145968D01*
X0042242Y0146754D02*
X0041799Y0146754D01*
X0041902Y0147540D02*
X0042139Y0147540D01*
X0042139Y0148325D02*
X0041902Y0148325D01*
X0041902Y0149111D02*
X0042139Y0149111D01*
X0042139Y0149897D02*
X0041902Y0149897D01*
X0041902Y0150683D02*
X0042139Y0150683D01*
X0042709Y0151469D02*
X0041332Y0151469D01*
X0040546Y0152255D02*
X0043495Y0152255D01*
X0044281Y0153041D02*
X0039760Y0153041D01*
X0034281Y0153041D02*
X0015912Y0153041D01*
X0015437Y0152255D02*
X0014703Y0152255D01*
X0013539Y0151469D02*
X0013494Y0151469D01*
X0012312Y0150683D02*
X0012285Y0150683D01*
X0011526Y0149897D02*
X0011076Y0149897D01*
X0010741Y0149111D02*
X0010443Y0149111D01*
X0010199Y0148325D02*
X0010006Y0148325D01*
X0009873Y0147540D02*
X0009570Y0147540D01*
X0009547Y0146754D02*
X0009133Y0146754D01*
X0009222Y0145968D02*
X0008696Y0145968D01*
X0009064Y0145182D02*
X0008260Y0145182D01*
X0007823Y0144396D02*
X0009064Y0144396D01*
X0009064Y0143610D02*
X0007414Y0143610D01*
X0007414Y0142824D02*
X0009064Y0142824D01*
X0009118Y0142038D02*
X0007414Y0142038D01*
X0007414Y0141252D02*
X0009444Y0141252D01*
X0009769Y0140466D02*
X0007414Y0140466D01*
X0007414Y0139680D02*
X0010095Y0139680D01*
X0010491Y0138895D02*
X0007414Y0138895D01*
X0007414Y0138109D02*
X0011276Y0138109D01*
X0012062Y0137323D02*
X0007414Y0137323D01*
X0007414Y0136537D02*
X0012936Y0136537D01*
X0014833Y0135751D02*
X0007414Y0135751D01*
X0007414Y0134965D02*
X0033730Y0134965D01*
X0034516Y0134179D02*
X0007414Y0134179D01*
X0007414Y0133393D02*
X0044658Y0133393D01*
X0044658Y0132607D02*
X0007414Y0132607D01*
X0007414Y0123176D02*
X0042344Y0123176D01*
X0042681Y0122390D02*
X0007414Y0122390D01*
X0007414Y0121604D02*
X0025487Y0121604D01*
X0024555Y0120819D02*
X0007414Y0120819D01*
X0007414Y0120033D02*
X0024446Y0120033D01*
X0024446Y0119247D02*
X0007414Y0119247D01*
X0007414Y0118461D02*
X0034501Y0118461D01*
X0034501Y0119247D02*
X0035288Y0119247D01*
X0035288Y0120033D02*
X0034501Y0120033D01*
X0034501Y0120819D02*
X0035288Y0120819D01*
X0035288Y0121604D02*
X0034501Y0121604D01*
X0034501Y0117675D02*
X0035288Y0117675D01*
X0035288Y0116889D02*
X0034501Y0116889D01*
X0034501Y0116103D02*
X0035288Y0116103D01*
X0035288Y0115317D02*
X0034501Y0115317D01*
X0024870Y0115317D02*
X0007414Y0115317D01*
X0007414Y0116103D02*
X0024454Y0116103D01*
X0024446Y0116889D02*
X0007414Y0116889D01*
X0007414Y0117675D02*
X0024446Y0117675D01*
X0024747Y0112959D02*
X0009099Y0112959D01*
X0005572Y0109816D02*
X0004190Y0109816D01*
X0004190Y0110602D02*
X0004874Y0110602D01*
X0004190Y0109030D02*
X0006244Y0109030D01*
X0006969Y0108244D02*
X0004190Y0108244D01*
X0004190Y0107458D02*
X0025156Y0107458D01*
X0049383Y0117675D02*
X0052438Y0117675D01*
X0052470Y0116889D02*
X0049949Y0116889D01*
X0050734Y0116103D02*
X0052690Y0116103D01*
X0053136Y0115317D02*
X0051520Y0115317D01*
X0052306Y0114531D02*
X0054015Y0114531D01*
X0053092Y0113745D02*
X0063947Y0113745D01*
X0064063Y0112959D02*
X0053878Y0112959D01*
X0054664Y0112173D02*
X0064178Y0112173D01*
X0064294Y0111388D02*
X0055450Y0111388D01*
X0055694Y0114531D02*
X0055906Y0114531D01*
X0055906Y0115317D02*
X0055694Y0115317D01*
X0055694Y0116103D02*
X0055906Y0116103D01*
X0055906Y0116889D02*
X0055694Y0116889D01*
X0055694Y0117675D02*
X0055906Y0117675D01*
X0055906Y0118461D02*
X0055694Y0118461D01*
X0055694Y0119247D02*
X0055906Y0119247D01*
X0055906Y0120033D02*
X0055694Y0120033D01*
X0055588Y0120819D02*
X0049383Y0120819D01*
X0049383Y0121604D02*
X0054045Y0121604D01*
X0053259Y0122390D02*
X0049383Y0122390D01*
X0049383Y0123176D02*
X0052736Y0123176D01*
X0052410Y0123962D02*
X0049383Y0123962D01*
X0049383Y0124748D02*
X0052179Y0124748D01*
X0052179Y0125534D02*
X0049383Y0125534D01*
X0049383Y0126320D02*
X0052179Y0126320D01*
X0052445Y0127106D02*
X0049383Y0127106D01*
X0049383Y0127892D02*
X0052771Y0127892D01*
X0053342Y0128678D02*
X0049383Y0128678D01*
X0049383Y0129464D02*
X0054128Y0129464D01*
X0055790Y0130249D02*
X0049383Y0130249D01*
X0049383Y0131035D02*
X0065687Y0131035D01*
X0067371Y0130249D02*
X0058330Y0130249D01*
X0059991Y0129464D02*
X0069055Y0129464D01*
X0070739Y0128678D02*
X0060777Y0128678D01*
X0061349Y0127892D02*
X0072423Y0127892D01*
X0074107Y0127106D02*
X0061675Y0127106D01*
X0061941Y0126320D02*
X0075792Y0126320D01*
X0076793Y0125853D02*
X0076793Y0124893D01*
X0078587Y0123099D01*
X0081124Y0123099D01*
X0082917Y0124893D01*
X0082917Y0127430D01*
X0081124Y0129224D01*
X0078587Y0129224D01*
X0078087Y0128724D01*
X0066789Y0133997D01*
X0069042Y0133997D01*
X0071902Y0136856D01*
X0071902Y0140900D01*
X0071585Y0141216D01*
X0072678Y0142309D01*
X0073556Y0142316D01*
X0072139Y0140900D01*
X0072139Y0136856D01*
X0074999Y0133997D01*
X0079042Y0133997D01*
X0081902Y0136856D01*
X0081902Y0140900D01*
X0080426Y0142375D01*
X0092280Y0142477D01*
X0093744Y0141013D01*
X0096281Y0141013D01*
X0098075Y0142806D01*
X0098075Y0145343D01*
X0096281Y0147137D01*
X0093744Y0147137D01*
X0092233Y0145626D01*
X0080571Y0145526D01*
X0081902Y0146856D01*
X0081902Y0150900D01*
X0079042Y0153759D01*
X0074999Y0153759D01*
X0072139Y0150900D01*
X0072139Y0149019D01*
X0071902Y0148781D01*
X0071902Y0150900D01*
X0069042Y0153759D01*
X0064999Y0153759D01*
X0062139Y0150900D01*
X0062139Y0146856D01*
X0063892Y0145103D01*
X0063123Y0144333D01*
X0060795Y0142006D01*
X0059042Y0143759D01*
X0054999Y0143759D01*
X0052139Y0140900D01*
X0052139Y0136856D01*
X0054999Y0133997D01*
X0059042Y0133997D01*
X0060564Y0135518D01*
X0060564Y0134778D01*
X0060436Y0134504D01*
X0060564Y0134152D01*
X0060564Y0133777D01*
X0060778Y0133563D01*
X0060882Y0133278D01*
X0061221Y0133119D01*
X0061486Y0132854D01*
X0061789Y0132854D01*
X0076793Y0125853D01*
X0076793Y0125534D02*
X0061941Y0125534D01*
X0061941Y0124748D02*
X0076938Y0124748D01*
X0077724Y0123962D02*
X0061709Y0123962D01*
X0061384Y0123176D02*
X0078510Y0123176D01*
X0081201Y0123176D02*
X0098331Y0123176D01*
X0098357Y0123962D02*
X0081986Y0123962D01*
X0082772Y0124748D02*
X0098354Y0124748D01*
X0098348Y0125534D02*
X0082917Y0125534D01*
X0082917Y0126320D02*
X0098343Y0126320D01*
X0098338Y0127106D02*
X0082917Y0127106D01*
X0082455Y0127892D02*
X0098332Y0127892D01*
X0098327Y0128678D02*
X0081669Y0128678D01*
X0079855Y0126161D02*
X0062139Y0134429D01*
X0062139Y0141122D01*
X0064698Y0143681D01*
X0069028Y0143681D01*
X0073753Y0148406D01*
X0076548Y0148406D01*
X0077020Y0148878D01*
X0073495Y0152255D02*
X0070546Y0152255D01*
X0069760Y0153041D02*
X0074281Y0153041D01*
X0072709Y0151469D02*
X0071332Y0151469D01*
X0071902Y0150683D02*
X0072139Y0150683D01*
X0072139Y0149897D02*
X0071902Y0149897D01*
X0071902Y0149111D02*
X0072139Y0149111D01*
X0072020Y0143878D02*
X0067020Y0138878D01*
X0071902Y0138895D02*
X0072139Y0138895D01*
X0072139Y0139680D02*
X0071902Y0139680D01*
X0071902Y0140466D02*
X0072139Y0140466D01*
X0072492Y0141252D02*
X0071622Y0141252D01*
X0072408Y0142038D02*
X0073278Y0142038D01*
X0072020Y0143878D02*
X0095013Y0144075D01*
X0097307Y0142038D02*
X0098235Y0142038D01*
X0098241Y0141252D02*
X0096521Y0141252D01*
X0098246Y0140466D02*
X0081902Y0140466D01*
X0081902Y0139680D02*
X0098252Y0139680D01*
X0098257Y0138895D02*
X0081902Y0138895D01*
X0081902Y0138109D02*
X0098262Y0138109D01*
X0098268Y0137323D02*
X0081902Y0137323D01*
X0081582Y0136537D02*
X0098273Y0136537D01*
X0098278Y0135751D02*
X0080796Y0135751D01*
X0080010Y0134965D02*
X0098284Y0134965D01*
X0098289Y0134179D02*
X0079224Y0134179D01*
X0074816Y0134179D02*
X0069224Y0134179D01*
X0070010Y0134965D02*
X0074031Y0134965D01*
X0073245Y0135751D02*
X0070796Y0135751D01*
X0071582Y0136537D02*
X0072459Y0136537D01*
X0072139Y0137323D02*
X0071902Y0137323D01*
X0071902Y0138109D02*
X0072139Y0138109D01*
X0069767Y0132607D02*
X0098300Y0132607D01*
X0098305Y0131821D02*
X0071451Y0131821D01*
X0073135Y0131035D02*
X0098311Y0131035D01*
X0098316Y0130249D02*
X0074819Y0130249D01*
X0076503Y0129464D02*
X0098322Y0129464D01*
X0098295Y0133393D02*
X0068083Y0133393D01*
X0064003Y0131821D02*
X0049383Y0131821D01*
X0049383Y0132607D02*
X0062319Y0132607D01*
X0060840Y0133393D02*
X0049383Y0133393D01*
X0049383Y0134179D02*
X0054816Y0134179D01*
X0054031Y0134965D02*
X0050010Y0134965D01*
X0050796Y0135751D02*
X0053245Y0135751D01*
X0052459Y0136537D02*
X0051582Y0136537D01*
X0051902Y0137323D02*
X0052139Y0137323D01*
X0052139Y0138109D02*
X0051902Y0138109D01*
X0051902Y0138895D02*
X0052139Y0138895D01*
X0052139Y0139680D02*
X0051902Y0139680D01*
X0051902Y0140466D02*
X0052139Y0140466D01*
X0052492Y0141252D02*
X0051549Y0141252D01*
X0050763Y0142038D02*
X0053278Y0142038D01*
X0054064Y0142824D02*
X0049977Y0142824D01*
X0049191Y0143610D02*
X0054850Y0143610D01*
X0054999Y0143997D02*
X0059042Y0143997D01*
X0061902Y0146856D01*
X0061902Y0150900D01*
X0059042Y0153759D01*
X0054999Y0153759D01*
X0052139Y0150900D01*
X0052139Y0146856D01*
X0054999Y0143997D01*
X0054600Y0144396D02*
X0049441Y0144396D01*
X0050227Y0145182D02*
X0053814Y0145182D01*
X0053028Y0145968D02*
X0051013Y0145968D01*
X0051799Y0146754D02*
X0052242Y0146754D01*
X0052139Y0147540D02*
X0051902Y0147540D01*
X0051902Y0148325D02*
X0052139Y0148325D01*
X0052139Y0149111D02*
X0051902Y0149111D01*
X0051902Y0149897D02*
X0052139Y0149897D01*
X0052139Y0150683D02*
X0051902Y0150683D01*
X0051332Y0151469D02*
X0052709Y0151469D01*
X0053495Y0152255D02*
X0050546Y0152255D01*
X0049760Y0153041D02*
X0054281Y0153041D01*
X0059760Y0153041D02*
X0064281Y0153041D01*
X0063495Y0152255D02*
X0060546Y0152255D01*
X0061332Y0151469D02*
X0062709Y0151469D01*
X0062139Y0150683D02*
X0061902Y0150683D01*
X0061902Y0149897D02*
X0062139Y0149897D01*
X0062139Y0149111D02*
X0061902Y0149111D01*
X0061902Y0148325D02*
X0062139Y0148325D01*
X0062139Y0147540D02*
X0061902Y0147540D01*
X0061799Y0146754D02*
X0062242Y0146754D01*
X0063028Y0145968D02*
X0061013Y0145968D01*
X0060227Y0145182D02*
X0063814Y0145182D01*
X0063185Y0144396D02*
X0059441Y0144396D01*
X0059191Y0143610D02*
X0062399Y0143610D01*
X0061614Y0142824D02*
X0059977Y0142824D01*
X0060763Y0142038D02*
X0060828Y0142038D01*
X0060564Y0134965D02*
X0060010Y0134965D01*
X0060554Y0134179D02*
X0059224Y0134179D01*
X0060861Y0122390D02*
X0098985Y0122390D01*
X0099725Y0121604D02*
X0060075Y0121604D01*
X0060694Y0120033D02*
X0060906Y0120033D01*
X0060906Y0119247D02*
X0060694Y0119247D01*
X0060694Y0118461D02*
X0060906Y0118461D01*
X0060906Y0117675D02*
X0060694Y0117675D01*
X0060694Y0116889D02*
X0060906Y0116889D01*
X0060906Y0116103D02*
X0060694Y0116103D01*
X0060694Y0115317D02*
X0060906Y0115317D01*
X0060906Y0114531D02*
X0060694Y0114531D01*
X0059015Y0114531D02*
X0057585Y0114531D01*
X0062585Y0114531D02*
X0063832Y0114531D01*
X0068607Y0114531D02*
X0069452Y0114531D01*
X0068722Y0113745D02*
X0098643Y0113745D01*
X0098643Y0112959D02*
X0068838Y0112959D01*
X0068954Y0112173D02*
X0098713Y0112173D01*
X0097927Y0111388D02*
X0069069Y0111388D01*
X0072148Y0114531D02*
X0074452Y0114531D01*
X0073411Y0115317D02*
X0073189Y0115317D01*
X0077148Y0114531D02*
X0098643Y0114531D01*
X0099129Y0115317D02*
X0078189Y0115317D01*
X0078679Y0116103D02*
X0099915Y0116103D01*
X0103496Y0116103D02*
X0104883Y0116103D01*
X0104282Y0115317D02*
X0105620Y0115317D01*
X0106357Y0114531D02*
X0104768Y0114531D01*
X0104768Y0113745D02*
X0106517Y0113745D01*
X0106837Y0112959D02*
X0104768Y0112959D01*
X0104647Y0112173D02*
X0107623Y0112173D01*
X0111536Y0112173D02*
X0118635Y0112173D01*
X0118635Y0111388D02*
X0103861Y0111388D01*
X0103075Y0110602D02*
X0118635Y0110602D01*
X0118635Y0109816D02*
X0101923Y0109816D01*
X0101137Y0109030D02*
X0118635Y0109030D01*
X0118635Y0108244D02*
X0100351Y0108244D01*
X0099566Y0107458D02*
X0118635Y0107458D01*
X0118635Y0106672D02*
X0098780Y0106672D01*
X0098753Y0105886D02*
X0118635Y0105886D01*
X0118635Y0112959D02*
X0112322Y0112959D01*
X0112642Y0113745D02*
X0118635Y0113745D01*
X0118635Y0114531D02*
X0112642Y0114531D01*
X0112642Y0115317D02*
X0118635Y0115317D01*
X0118635Y0116103D02*
X0112354Y0116103D01*
X0111568Y0116889D02*
X0118635Y0116889D01*
X0118635Y0117675D02*
X0109885Y0117675D01*
X0109149Y0118461D02*
X0118635Y0118461D01*
X0118635Y0119247D02*
X0118339Y0119247D01*
X0111631Y0119247D02*
X0108412Y0119247D01*
X0107675Y0120033D02*
X0111304Y0120033D01*
X0111304Y0120819D02*
X0106938Y0120819D01*
X0106201Y0121604D02*
X0111304Y0121604D01*
X0111304Y0122390D02*
X0105465Y0122390D01*
X0104728Y0123176D02*
X0111304Y0123176D01*
X0111304Y0123962D02*
X0103991Y0123962D01*
X0103254Y0124748D02*
X0111304Y0124748D01*
X0111304Y0125534D02*
X0103073Y0125534D01*
X0103068Y0126320D02*
X0111304Y0126320D01*
X0111304Y0127106D02*
X0103062Y0127106D01*
X0103057Y0127892D02*
X0111643Y0127892D01*
X0112951Y0128678D02*
X0103051Y0128678D01*
X0103046Y0129464D02*
X0113002Y0129464D01*
X0113001Y0130249D02*
X0103041Y0130249D01*
X0103035Y0131035D02*
X0112982Y0131035D01*
X0112581Y0131821D02*
X0103030Y0131821D01*
X0103025Y0132607D02*
X0112226Y0132607D01*
X0112226Y0133393D02*
X0103019Y0133393D01*
X0103014Y0134179D02*
X0112226Y0134179D01*
X0112478Y0134965D02*
X0103008Y0134965D01*
X0103003Y0135751D02*
X0113264Y0135751D01*
X0117313Y0135751D02*
X0140817Y0135751D01*
X0141927Y0135291D02*
X0145343Y0135291D01*
X0148499Y0136599D01*
X0150914Y0139014D01*
X0152221Y0142170D01*
X0152221Y0145586D01*
X0150914Y0148742D01*
X0148499Y0151157D01*
X0145343Y0152465D01*
X0141927Y0152465D01*
X0138771Y0151157D01*
X0136355Y0148742D01*
X0135048Y0145586D01*
X0135048Y0142170D01*
X0136355Y0139014D01*
X0138771Y0136599D01*
X0141927Y0135291D01*
X0138920Y0136537D02*
X0102998Y0136537D01*
X0102992Y0137323D02*
X0138047Y0137323D01*
X0137261Y0138109D02*
X0102987Y0138109D01*
X0102981Y0138895D02*
X0136475Y0138895D01*
X0136079Y0139680D02*
X0102976Y0139680D01*
X0102971Y0140466D02*
X0135754Y0140466D01*
X0135428Y0141252D02*
X0102965Y0141252D01*
X0102960Y0142038D02*
X0135103Y0142038D01*
X0135048Y0142824D02*
X0102955Y0142824D01*
X0102949Y0143610D02*
X0135048Y0143610D01*
X0135048Y0144396D02*
X0119444Y0144396D01*
X0120528Y0145182D02*
X0135048Y0145182D01*
X0135206Y0145968D02*
X0121202Y0145968D01*
X0121655Y0146754D02*
X0135532Y0146754D01*
X0135857Y0147540D02*
X0121941Y0147540D01*
X0122090Y0148325D02*
X0136183Y0148325D01*
X0136725Y0149111D02*
X0117414Y0149111D01*
X0117414Y0148325D02*
X0116627Y0148325D01*
X0116627Y0148484D02*
X0116627Y0143784D01*
X0116620Y0143784D01*
X0115828Y0143910D01*
X0115065Y0144157D01*
X0114351Y0144521D01*
X0113702Y0144993D01*
X0113135Y0145560D01*
X0112664Y0146208D01*
X0112300Y0146923D01*
X0112052Y0147685D01*
X0111927Y0148477D01*
X0111927Y0148484D01*
X0116627Y0148484D01*
X0116627Y0149111D02*
X0111902Y0149111D01*
X0111902Y0148325D02*
X0111951Y0148325D01*
X0112099Y0147540D02*
X0111749Y0147540D01*
X0111424Y0146754D02*
X0112386Y0146754D01*
X0112839Y0145968D02*
X0111013Y0145968D01*
X0110227Y0145182D02*
X0113513Y0145182D01*
X0114597Y0144396D02*
X0108955Y0144396D01*
X0105086Y0144396D02*
X0102944Y0144396D01*
X0102938Y0145182D02*
X0103814Y0145182D01*
X0103028Y0145968D02*
X0102933Y0145968D01*
X0098209Y0145968D02*
X0097450Y0145968D01*
X0098075Y0145182D02*
X0098214Y0145182D01*
X0098219Y0144396D02*
X0098075Y0144396D01*
X0098075Y0143610D02*
X0098225Y0143610D01*
X0098230Y0142824D02*
X0098075Y0142824D01*
X0098203Y0146754D02*
X0096664Y0146754D01*
X0098198Y0147540D02*
X0081902Y0147540D01*
X0081902Y0148325D02*
X0098192Y0148325D01*
X0098187Y0149111D02*
X0081902Y0149111D01*
X0081902Y0149897D02*
X0098182Y0149897D01*
X0098176Y0150683D02*
X0081902Y0150683D01*
X0081332Y0151469D02*
X0098171Y0151469D01*
X0097601Y0152255D02*
X0080546Y0152255D01*
X0079760Y0153041D02*
X0096774Y0153041D01*
X0095947Y0153827D02*
X0017121Y0153827D01*
X0019864Y0152255D02*
X0033495Y0152255D01*
X0032709Y0151469D02*
X0021762Y0151469D01*
X0022988Y0150683D02*
X0032139Y0150683D01*
X0032139Y0149897D02*
X0023774Y0149897D01*
X0024560Y0149111D02*
X0032139Y0149111D01*
X0032139Y0148325D02*
X0025102Y0148325D01*
X0025428Y0147540D02*
X0032139Y0147540D01*
X0032242Y0146754D02*
X0025753Y0146754D01*
X0026079Y0145968D02*
X0033028Y0145968D01*
X0033814Y0145182D02*
X0026237Y0145182D01*
X0026237Y0144396D02*
X0034600Y0144396D01*
X0034549Y0143610D02*
X0026237Y0143610D01*
X0026237Y0142824D02*
X0033763Y0142824D01*
X0032977Y0142038D02*
X0026182Y0142038D01*
X0025857Y0141252D02*
X0032191Y0141252D01*
X0031927Y0140466D02*
X0025531Y0140466D01*
X0025206Y0139680D02*
X0031927Y0139680D01*
X0036627Y0140466D02*
X0037414Y0140466D01*
X0037414Y0141252D02*
X0036627Y0141252D01*
X0036627Y0142038D02*
X0037414Y0142038D01*
X0037414Y0142824D02*
X0036627Y0142824D01*
X0036627Y0143610D02*
X0037414Y0143610D01*
X0037414Y0138109D02*
X0036627Y0138109D01*
X0036627Y0137323D02*
X0037414Y0137323D01*
X0037414Y0136537D02*
X0036627Y0136537D01*
X0036627Y0135751D02*
X0037414Y0135751D01*
X0037414Y0134965D02*
X0036627Y0134965D01*
X0036627Y0134179D02*
X0037414Y0134179D01*
X0039525Y0134179D02*
X0044658Y0134179D01*
X0044031Y0134965D02*
X0040311Y0134965D01*
X0041097Y0135751D02*
X0043245Y0135751D01*
X0042459Y0136537D02*
X0041883Y0136537D01*
X0042114Y0137323D02*
X0042139Y0137323D01*
X0042114Y0138109D02*
X0042139Y0138109D01*
X0049383Y0120033D02*
X0053715Y0120033D01*
X0053002Y0119247D02*
X0049383Y0119247D01*
X0049383Y0118461D02*
X0052608Y0118461D01*
X0057885Y0120033D02*
X0058715Y0120033D01*
X0058532Y0120819D02*
X0100462Y0120819D01*
X0101199Y0120033D02*
X0077603Y0120033D01*
X0078389Y0119247D02*
X0101936Y0119247D01*
X0102673Y0118461D02*
X0078762Y0118461D01*
X0078950Y0117675D02*
X0103409Y0117675D01*
X0104146Y0116889D02*
X0078950Y0116889D01*
X0073997Y0120033D02*
X0072603Y0120033D01*
X0068997Y0120033D02*
X0067603Y0120033D01*
X0063997Y0120033D02*
X0062885Y0120033D01*
X0081236Y0110602D02*
X0097141Y0110602D01*
X0096355Y0109816D02*
X0082022Y0109816D01*
X0082808Y0109030D02*
X0095570Y0109030D01*
X0094816Y0108244D02*
X0083594Y0108244D01*
X0084380Y0107458D02*
X0094816Y0107458D01*
X0094816Y0106672D02*
X0085165Y0106672D01*
X0085951Y0105886D02*
X0094816Y0105886D01*
X0094816Y0105100D02*
X0086737Y0105100D01*
X0087523Y0104314D02*
X0094037Y0104314D01*
X0093252Y0103528D02*
X0088309Y0103528D01*
X0089095Y0102743D02*
X0092466Y0102743D01*
X0091680Y0101957D02*
X0089881Y0101957D01*
X0090667Y0101171D02*
X0090894Y0101171D01*
X0118327Y0127892D02*
X0119122Y0127892D01*
X0119908Y0128678D02*
X0117750Y0128678D01*
X0117745Y0129464D02*
X0120694Y0129464D01*
X0121480Y0130249D02*
X0117787Y0130249D01*
X0117708Y0131035D02*
X0122266Y0131035D01*
X0123052Y0131821D02*
X0117995Y0131821D01*
X0118350Y0132607D02*
X0123838Y0132607D01*
X0118350Y0133393D02*
X0153871Y0133393D01*
X0153871Y0134179D02*
X0118350Y0134179D01*
X0118099Y0134965D02*
X0153871Y0134965D01*
X0153871Y0135751D02*
X0146452Y0135751D01*
X0148349Y0136537D02*
X0153871Y0136537D01*
X0153871Y0137323D02*
X0149223Y0137323D01*
X0150009Y0138109D02*
X0153871Y0138109D01*
X0153871Y0138895D02*
X0150795Y0138895D01*
X0151190Y0139680D02*
X0153871Y0139680D01*
X0153871Y0140466D02*
X0151516Y0140466D01*
X0151841Y0141252D02*
X0153871Y0141252D01*
X0153871Y0142038D02*
X0152167Y0142038D01*
X0152221Y0142824D02*
X0153871Y0142824D01*
X0153871Y0143610D02*
X0152221Y0143610D01*
X0152221Y0144396D02*
X0153616Y0144396D01*
X0153214Y0145182D02*
X0152221Y0145182D01*
X0152063Y0145968D02*
X0152811Y0145968D01*
X0152409Y0146754D02*
X0151738Y0146754D01*
X0152006Y0147540D02*
X0151412Y0147540D01*
X0151604Y0148325D02*
X0151087Y0148325D01*
X0151201Y0149111D02*
X0150545Y0149111D01*
X0150798Y0149897D02*
X0149759Y0149897D01*
X0150396Y0150683D02*
X0148973Y0150683D01*
X0148484Y0151469D02*
X0147746Y0151469D01*
X0146569Y0152255D02*
X0145848Y0152255D01*
X0144653Y0153041D02*
X0119957Y0153041D01*
X0120847Y0152255D02*
X0141421Y0152255D01*
X0139523Y0151469D02*
X0121417Y0151469D01*
X0121790Y0150683D02*
X0138297Y0150683D01*
X0137511Y0149897D02*
X0122016Y0149897D01*
X0117414Y0147540D02*
X0116627Y0147540D01*
X0116627Y0146754D02*
X0117414Y0146754D01*
X0117414Y0145968D02*
X0116627Y0145968D01*
X0116627Y0145182D02*
X0117414Y0145182D01*
X0117414Y0144396D02*
X0116627Y0144396D01*
X0112025Y0149897D02*
X0111882Y0149897D01*
X0112166Y0150683D02*
X0112251Y0150683D01*
X0093361Y0146754D02*
X0081799Y0146754D01*
X0081013Y0145968D02*
X0092575Y0145968D01*
X0092719Y0142038D02*
X0080763Y0142038D01*
X0081549Y0141252D02*
X0093505Y0141252D01*
X0146806Y0123176D02*
X0153871Y0123176D01*
X0153871Y0123962D02*
X0147685Y0123962D01*
X0147784Y0124748D02*
X0153871Y0124748D01*
X0153871Y0125534D02*
X0147784Y0125534D01*
X0147784Y0126320D02*
X0153871Y0126320D01*
X0134950Y0079951D02*
X0131684Y0079951D01*
X0135485Y0077461D02*
X0122650Y0080413D01*
X0150761Y0057945D02*
X0152099Y0057945D01*
X0152099Y0057160D02*
X0151547Y0057160D01*
X0151100Y0058731D02*
X0152099Y0058731D01*
X0152099Y0059517D02*
X0151886Y0059517D01*
X0135040Y0038298D02*
X0095122Y0038298D01*
X0094749Y0037512D02*
X0134254Y0037512D01*
X0133468Y0036726D02*
X0093963Y0036726D01*
X0092060Y0039154D02*
X0074540Y0036004D01*
X0072503Y0038298D02*
X0070868Y0038298D01*
X0071654Y0037512D02*
X0071717Y0037512D01*
X0071845Y0034368D02*
X0071526Y0034368D01*
X0070740Y0033582D02*
X0072631Y0033582D01*
X0076449Y0033582D02*
X0127580Y0033582D01*
X0127580Y0032796D02*
X0053980Y0032796D01*
X0054383Y0032010D02*
X0127580Y0032010D01*
X0127580Y0031224D02*
X0055169Y0031224D01*
X0055458Y0030439D02*
X0059364Y0030439D01*
X0059396Y0030452D02*
X0057602Y0029709D01*
X0056229Y0028336D01*
X0055486Y0026542D01*
X0055486Y0024600D01*
X0056229Y0022806D01*
X0057602Y0021433D01*
X0059396Y0020690D01*
X0061338Y0020690D01*
X0063132Y0021433D01*
X0064505Y0022806D01*
X0065248Y0024600D01*
X0065248Y0026542D01*
X0064505Y0028336D01*
X0063132Y0029709D01*
X0061338Y0030452D01*
X0059396Y0030452D01*
X0057546Y0029653D02*
X0055446Y0029653D01*
X0055358Y0028867D02*
X0056760Y0028867D01*
X0056123Y0028081D02*
X0055308Y0028081D01*
X0055257Y0027295D02*
X0055798Y0027295D01*
X0055486Y0026509D02*
X0055207Y0026509D01*
X0055157Y0025723D02*
X0055486Y0025723D01*
X0055486Y0024937D02*
X0055107Y0024937D01*
X0055057Y0024151D02*
X0055672Y0024151D01*
X0055997Y0023365D02*
X0055289Y0023365D01*
X0056075Y0022579D02*
X0056455Y0022579D01*
X0056343Y0021793D02*
X0057241Y0021793D01*
X0056343Y0021008D02*
X0058629Y0021008D01*
X0056343Y0020222D02*
X0080034Y0020222D01*
X0079383Y0020872D02*
X0082243Y0018013D01*
X0086286Y0018013D01*
X0089146Y0020872D01*
X0089146Y0024916D01*
X0086286Y0027775D01*
X0082243Y0027775D01*
X0079383Y0024916D01*
X0079383Y0020872D01*
X0079383Y0021008D02*
X0062105Y0021008D01*
X0063492Y0021793D02*
X0079383Y0021793D01*
X0079383Y0022579D02*
X0064278Y0022579D01*
X0064737Y0023365D02*
X0079383Y0023365D01*
X0079383Y0024151D02*
X0065062Y0024151D01*
X0065248Y0024937D02*
X0079405Y0024937D01*
X0080191Y0025723D02*
X0065248Y0025723D01*
X0065248Y0026509D02*
X0080977Y0026509D01*
X0081763Y0027295D02*
X0064936Y0027295D01*
X0064611Y0028081D02*
X0097225Y0028081D01*
X0098010Y0028867D02*
X0063974Y0028867D01*
X0063188Y0029653D02*
X0098796Y0029653D01*
X0099894Y0028524D02*
X0127493Y0028524D01*
X0130643Y0032461D01*
X0129005Y0035154D02*
X0078713Y0035154D01*
X0077235Y0034368D02*
X0128219Y0034368D01*
X0127008Y0030439D02*
X0061370Y0030439D01*
X0053871Y0030295D02*
X0053280Y0021043D01*
X0056003Y0019436D02*
X0080820Y0019436D01*
X0081605Y0018650D02*
X0058098Y0018650D01*
X0058884Y0017864D02*
X0122091Y0017864D01*
X0122155Y0017800D02*
X0123871Y0017800D01*
X0123871Y0022500D01*
X0119171Y0022500D01*
X0119171Y0020784D01*
X0122155Y0017800D01*
X0121546Y0017078D02*
X0116983Y0017078D01*
X0117769Y0016292D02*
X0120760Y0016292D01*
X0119974Y0015506D02*
X0118555Y0015506D01*
X0119146Y0014720D02*
X0119383Y0014720D01*
X0119383Y0013934D02*
X0119146Y0013934D01*
X0119146Y0013148D02*
X0119383Y0013148D01*
X0119383Y0012363D02*
X0119146Y0012363D01*
X0119146Y0011577D02*
X0119383Y0011577D01*
X0119465Y0010791D02*
X0119064Y0010791D01*
X0119149Y0010005D02*
X0118279Y0010005D01*
X0121401Y0007804D02*
X0121927Y0008329D01*
X0122243Y0008013D01*
X0126286Y0008013D01*
X0129146Y0010872D01*
X0129146Y0014916D01*
X0127452Y0016610D01*
X0134444Y0023602D01*
X0135367Y0024525D01*
X0135367Y0034171D01*
X0136413Y0035217D01*
X0152161Y0035217D01*
X0153871Y0036926D01*
X0153871Y0018779D01*
X0150511Y0011051D01*
X0142770Y0007853D01*
X0121401Y0007804D01*
X0126707Y0008433D02*
X0144173Y0008433D01*
X0145343Y0009307D02*
X0141927Y0009307D01*
X0138771Y0010614D01*
X0136355Y0013030D01*
X0135048Y0016186D01*
X0135048Y0019602D01*
X0136355Y0022758D01*
X0138771Y0025173D01*
X0141927Y0026480D01*
X0145343Y0026480D01*
X0148499Y0025173D01*
X0150914Y0022758D01*
X0152221Y0019602D01*
X0152221Y0016186D01*
X0150914Y0013030D01*
X0148499Y0010614D01*
X0145343Y0009307D01*
X0146076Y0009219D02*
X0127493Y0009219D01*
X0128279Y0010005D02*
X0140242Y0010005D01*
X0138594Y0010791D02*
X0129064Y0010791D01*
X0129146Y0011577D02*
X0137808Y0011577D01*
X0137023Y0012363D02*
X0129146Y0012363D01*
X0129146Y0013148D02*
X0136306Y0013148D01*
X0135981Y0013934D02*
X0129146Y0013934D01*
X0129146Y0014720D02*
X0135655Y0014720D01*
X0135329Y0015506D02*
X0128555Y0015506D01*
X0127769Y0016292D02*
X0135048Y0016292D01*
X0135048Y0017078D02*
X0127920Y0017078D01*
X0128706Y0017864D02*
X0135048Y0017864D01*
X0135048Y0018650D02*
X0129492Y0018650D01*
X0130278Y0019436D02*
X0135048Y0019436D01*
X0135305Y0020222D02*
X0131064Y0020222D01*
X0131850Y0021008D02*
X0135630Y0021008D01*
X0135956Y0021793D02*
X0132636Y0021793D01*
X0133421Y0022579D02*
X0136281Y0022579D01*
X0136963Y0023365D02*
X0134207Y0023365D01*
X0134993Y0024151D02*
X0137749Y0024151D01*
X0138535Y0024937D02*
X0135367Y0024937D01*
X0135367Y0025723D02*
X0140099Y0025723D01*
X0135367Y0026509D02*
X0153871Y0026509D01*
X0153871Y0027295D02*
X0135367Y0027295D01*
X0135367Y0028081D02*
X0153871Y0028081D01*
X0153871Y0028867D02*
X0135367Y0028867D01*
X0135367Y0029653D02*
X0153871Y0029653D01*
X0153871Y0030439D02*
X0135367Y0030439D01*
X0135367Y0031224D02*
X0153871Y0031224D01*
X0153871Y0032010D02*
X0135367Y0032010D01*
X0135367Y0032796D02*
X0153871Y0032796D01*
X0153871Y0033582D02*
X0135367Y0033582D01*
X0135564Y0034368D02*
X0153871Y0034368D01*
X0153871Y0035154D02*
X0136350Y0035154D01*
X0132682Y0035940D02*
X0083084Y0035940D01*
X0082770Y0039084D02*
X0067782Y0039084D01*
X0066996Y0039869D02*
X0087142Y0039869D01*
X0089231Y0040655D02*
X0066210Y0040655D01*
X0065424Y0041441D02*
X0090017Y0041441D01*
X0090157Y0036726D02*
X0087456Y0036726D01*
X0078399Y0038298D02*
X0076577Y0038298D01*
X0086766Y0027295D02*
X0091763Y0027295D01*
X0090977Y0026509D02*
X0087552Y0026509D01*
X0088338Y0025723D02*
X0090191Y0025723D01*
X0089405Y0024937D02*
X0089124Y0024937D01*
X0089146Y0024151D02*
X0089383Y0024151D01*
X0089383Y0023365D02*
X0089146Y0023365D01*
X0089146Y0022579D02*
X0089383Y0022579D01*
X0089383Y0021793D02*
X0089146Y0021793D01*
X0089146Y0021008D02*
X0089383Y0021008D01*
X0090034Y0020222D02*
X0088495Y0020222D01*
X0087710Y0019436D02*
X0090820Y0019436D01*
X0091605Y0018650D02*
X0086924Y0018650D01*
X0086983Y0017078D02*
X0091546Y0017078D01*
X0090760Y0016292D02*
X0087769Y0016292D01*
X0088555Y0015506D02*
X0089974Y0015506D01*
X0089383Y0014720D02*
X0089146Y0014720D01*
X0089146Y0013934D02*
X0089383Y0013934D01*
X0089383Y0013148D02*
X0089146Y0013148D01*
X0089146Y0012363D02*
X0089383Y0012363D01*
X0089383Y0011577D02*
X0089146Y0011577D01*
X0089064Y0010791D02*
X0089465Y0010791D01*
X0090251Y0010005D02*
X0088279Y0010005D01*
X0081546Y0017078D02*
X0059670Y0017078D01*
X0060455Y0016292D02*
X0080760Y0016292D01*
X0079974Y0015506D02*
X0060957Y0015506D01*
X0060957Y0014720D02*
X0079383Y0014720D01*
X0079383Y0013934D02*
X0060957Y0013934D01*
X0060957Y0013148D02*
X0079383Y0013148D01*
X0079383Y0012363D02*
X0060957Y0012363D01*
X0060957Y0011577D02*
X0079383Y0011577D01*
X0079465Y0010791D02*
X0061429Y0010791D01*
X0062215Y0010005D02*
X0080251Y0010005D01*
X0094265Y0022894D02*
X0099894Y0028524D01*
X0100107Y0026509D02*
X0100977Y0026509D01*
X0100191Y0025723D02*
X0099321Y0025723D01*
X0099405Y0024937D02*
X0099124Y0024937D01*
X0099146Y0024151D02*
X0099383Y0024151D01*
X0099383Y0023365D02*
X0099146Y0023365D01*
X0099146Y0022579D02*
X0099383Y0022579D01*
X0099383Y0021793D02*
X0099146Y0021793D01*
X0099146Y0021008D02*
X0099383Y0021008D01*
X0100034Y0020222D02*
X0098495Y0020222D01*
X0097710Y0019436D02*
X0100820Y0019436D01*
X0101605Y0018650D02*
X0096924Y0018650D01*
X0096983Y0017078D02*
X0101546Y0017078D01*
X0100760Y0016292D02*
X0097769Y0016292D01*
X0098555Y0015506D02*
X0099974Y0015506D01*
X0099383Y0014720D02*
X0099146Y0014720D01*
X0099146Y0013934D02*
X0099383Y0013934D01*
X0099383Y0013148D02*
X0099146Y0013148D01*
X0099146Y0012363D02*
X0099383Y0012363D01*
X0099383Y0011577D02*
X0099146Y0011577D01*
X0099064Y0010791D02*
X0099465Y0010791D01*
X0100251Y0010005D02*
X0098279Y0010005D01*
X0106983Y0017078D02*
X0111546Y0017078D01*
X0110760Y0016292D02*
X0107769Y0016292D01*
X0108555Y0015506D02*
X0109974Y0015506D01*
X0109383Y0014720D02*
X0109146Y0014720D01*
X0109146Y0013934D02*
X0109383Y0013934D01*
X0109383Y0013148D02*
X0109146Y0013148D01*
X0109146Y0012363D02*
X0109383Y0012363D01*
X0109383Y0011577D02*
X0109146Y0011577D01*
X0109064Y0010791D02*
X0109465Y0010791D01*
X0110251Y0010005D02*
X0108279Y0010005D01*
X0106924Y0018650D02*
X0111605Y0018650D01*
X0110820Y0019436D02*
X0107710Y0019436D01*
X0108495Y0020222D02*
X0110034Y0020222D01*
X0109383Y0021008D02*
X0109146Y0021008D01*
X0109146Y0021793D02*
X0109383Y0021793D01*
X0109383Y0022579D02*
X0109146Y0022579D01*
X0109146Y0023365D02*
X0109383Y0023365D01*
X0109383Y0024151D02*
X0109146Y0024151D01*
X0109124Y0024937D02*
X0109405Y0024937D01*
X0110191Y0025723D02*
X0108338Y0025723D01*
X0107552Y0026509D02*
X0110977Y0026509D01*
X0117552Y0026509D02*
X0120676Y0026509D01*
X0119890Y0025723D02*
X0118338Y0025723D01*
X0119124Y0024937D02*
X0119171Y0024937D01*
X0119146Y0024151D02*
X0119171Y0024151D01*
X0119146Y0023365D02*
X0119171Y0023365D01*
X0119146Y0022579D02*
X0123871Y0022579D01*
X0123871Y0021793D02*
X0124658Y0021793D01*
X0124658Y0022500D02*
X0124658Y0023287D01*
X0129358Y0023287D01*
X0129358Y0025004D01*
X0127430Y0026932D01*
X0127580Y0026949D01*
X0128145Y0026949D01*
X0128216Y0027019D01*
X0128315Y0027030D01*
X0128668Y0027472D01*
X0129068Y0027871D01*
X0129068Y0027971D01*
X0130209Y0029398D01*
X0131911Y0029398D01*
X0132217Y0029705D01*
X0132217Y0025829D01*
X0128888Y0022500D01*
X0124658Y0022500D01*
X0124658Y0022579D02*
X0128967Y0022579D01*
X0129358Y0023365D02*
X0129753Y0023365D01*
X0129358Y0024151D02*
X0130539Y0024151D01*
X0131325Y0024937D02*
X0129358Y0024937D01*
X0128639Y0025723D02*
X0132111Y0025723D01*
X0132217Y0026509D02*
X0127853Y0026509D01*
X0128527Y0027295D02*
X0132217Y0027295D01*
X0132217Y0028081D02*
X0129155Y0028081D01*
X0129784Y0028867D02*
X0132217Y0028867D01*
X0132217Y0029653D02*
X0132165Y0029653D01*
X0124658Y0021008D02*
X0123871Y0021008D01*
X0123871Y0020222D02*
X0124658Y0020222D01*
X0124658Y0019436D02*
X0123871Y0019436D01*
X0123871Y0018650D02*
X0124658Y0018650D01*
X0124252Y0017864D02*
X0123871Y0017864D01*
X0121305Y0018650D02*
X0116924Y0018650D01*
X0117710Y0019436D02*
X0120519Y0019436D01*
X0119733Y0020222D02*
X0118495Y0020222D01*
X0119146Y0021008D02*
X0119171Y0021008D01*
X0119146Y0021793D02*
X0119171Y0021793D01*
X0147171Y0025723D02*
X0153871Y0025723D01*
X0153871Y0024937D02*
X0148734Y0024937D01*
X0149520Y0024151D02*
X0153871Y0024151D01*
X0153871Y0023365D02*
X0150306Y0023365D01*
X0150988Y0022579D02*
X0153871Y0022579D01*
X0153871Y0021793D02*
X0151313Y0021793D01*
X0151639Y0021008D02*
X0153871Y0021008D01*
X0153871Y0020222D02*
X0151964Y0020222D01*
X0152221Y0019436D02*
X0153871Y0019436D01*
X0153815Y0018650D02*
X0152221Y0018650D01*
X0152221Y0017864D02*
X0153473Y0017864D01*
X0153131Y0017078D02*
X0152221Y0017078D01*
X0152221Y0016292D02*
X0152790Y0016292D01*
X0152448Y0015506D02*
X0151940Y0015506D01*
X0152106Y0014720D02*
X0151614Y0014720D01*
X0151765Y0013934D02*
X0151289Y0013934D01*
X0151423Y0013148D02*
X0150963Y0013148D01*
X0151081Y0012363D02*
X0150247Y0012363D01*
X0150740Y0011577D02*
X0149461Y0011577D01*
X0149881Y0010791D02*
X0148675Y0010791D01*
X0147979Y0010005D02*
X0147027Y0010005D01*
X0152884Y0035940D02*
X0153871Y0035940D01*
X0153871Y0036726D02*
X0153670Y0036726D01*
X0053871Y0030295D02*
X0050918Y0033248D01*
X0031319Y0028867D02*
X0020044Y0028867D01*
D19*
X0007611Y0029311D03*
X0021272Y0045256D03*
X0037926Y0052343D03*
X0050918Y0033248D03*
X0053280Y0021043D03*
X0063123Y0016319D03*
X0068831Y0036004D03*
X0074540Y0036004D03*
X0092060Y0039154D03*
X0101706Y0044075D03*
X0118241Y0043878D03*
X0123162Y0052539D03*
X0127099Y0062972D03*
X0128871Y0068091D03*
X0133989Y0101161D03*
X0125524Y0107461D03*
X0124146Y0112972D03*
X0109580Y0114547D03*
X0103871Y0107461D03*
X0101706Y0113563D03*
X0115288Y0133445D03*
X0095013Y0144075D03*
X0094422Y0152539D03*
X0079855Y0126161D03*
X0069225Y0102736D03*
X0050721Y0084823D03*
X0057020Y0074390D03*
X0010170Y0117205D03*
X0045406Y0123996D03*
X0130643Y0032461D03*
X0129855Y0009232D03*
X0137139Y0128917D03*
D20*
X0125985Y0123563D02*
X0132414Y0117134D01*
X0132414Y0116831D01*
X0101706Y0113563D02*
X0101706Y0112382D01*
X0096784Y0107461D01*
X0096784Y0104114D01*
X0096842Y0103550D01*
X0096871Y0103269D01*
X0101509Y0058248D02*
X0126902Y0043091D01*
X0135446Y0043169D01*
X0138635Y0043169D01*
D21*
X0156233Y0018287D02*
X0152296Y0009232D01*
X0143241Y0005492D01*
X0058595Y0005295D01*
X0054265Y0009626D01*
X0054265Y0012657D01*
X0058202Y0056280D02*
X0054855Y0059626D01*
X0050721Y0059626D01*
X0019304Y0059626D01*
X0012926Y0066004D01*
X0050721Y0059626D02*
X0055249Y0059429D01*
X0054855Y0059626D01*
X0058202Y0056280D02*
X0101509Y0058248D01*
X0074737Y0080689D02*
X0055249Y0080689D01*
X0050328Y0077736D01*
X0050721Y0059626D01*
X0074737Y0080689D02*
X0090780Y0097717D01*
X0079855Y0108642D01*
X0066272Y0108642D01*
X0066981Y0109350D01*
X0065800Y0117382D01*
X0066272Y0108642D02*
X0054855Y0108642D01*
X0047020Y0116476D01*
X0047020Y0138878D01*
X0034894Y0110413D02*
X0008202Y0110413D01*
X0005052Y0113957D01*
X0005052Y0144272D01*
X0008989Y0151358D01*
X0016863Y0156476D01*
X0096587Y0156476D01*
X0100524Y0152736D01*
X0100721Y0123996D01*
X0109580Y0114547D01*
X0114985Y0123563D02*
X0115379Y0129614D01*
X0115288Y0133445D01*
X0107020Y0148878D02*
X0113831Y0155689D01*
X0144422Y0155689D01*
X0152099Y0152539D01*
X0156233Y0144469D01*
X0156233Y0018287D01*
X0090780Y0097717D02*
X0096587Y0103524D01*
X0096816Y0103524D01*
X0096842Y0103550D01*
M02*
