G75*
%MOIN*%
%OFA0B0*%
%FSLAX25Y25*%
%IPPOS*%
%LPD*%
%AMOC8*
5,1,8,0,0,1.08239X$1,22.5*
%
%ADD10C,0.13786*%
%ADD11R,0.18510X0.04337*%
%ADD12R,0.13786X0.06699*%
%ADD13R,0.04534X0.01975*%
%ADD14R,0.04731X0.06306*%
%ADD15C,0.04800*%
%ADD16C,0.07800*%
%ADD17OC8,0.07800*%
%ADD18C,0.07400*%
%ADD19R,0.05400X0.07400*%
D10*
X0017650Y0017894D03*
X0017650Y0143878D03*
X0143635Y0143878D03*
X0143635Y0017894D03*
D11*
X0034894Y0110413D03*
X0034894Y0118287D03*
D12*
X0014422Y0127736D03*
X0014422Y0100965D03*
D13*
X0132414Y0106594D03*
X0132414Y0109154D03*
X0132414Y0111713D03*
X0132414Y0114272D03*
X0132414Y0116831D03*
D14*
X0144225Y0127461D03*
X0144225Y0095965D03*
D15*
X0122650Y0095413D03*
X0122650Y0090413D03*
X0122650Y0085413D03*
X0122650Y0080413D03*
X0122650Y0100413D03*
X0075800Y0117382D03*
X0070800Y0117382D03*
X0065800Y0117382D03*
X0060800Y0117382D03*
X0055800Y0117382D03*
D16*
X0012926Y0086004D03*
X0012926Y0076004D03*
X0012926Y0066004D03*
X0012926Y0056004D03*
X0012926Y0046004D03*
X0012926Y0036004D03*
X0044265Y0012657D03*
X0054265Y0012657D03*
X0107020Y0148878D03*
X0117020Y0148878D03*
D17*
X0077020Y0148878D03*
X0067020Y0148878D03*
X0057020Y0148878D03*
X0047020Y0148878D03*
X0037020Y0148878D03*
X0037020Y0138878D03*
X0047020Y0138878D03*
X0057020Y0138878D03*
X0067020Y0138878D03*
X0077020Y0138878D03*
X0138635Y0083169D03*
X0148635Y0083169D03*
X0148635Y0073169D03*
X0148635Y0063169D03*
X0138635Y0063169D03*
X0138635Y0073169D03*
X0138635Y0053169D03*
X0148635Y0053169D03*
X0148635Y0043169D03*
X0138635Y0043169D03*
X0124265Y0022894D03*
X0114265Y0022894D03*
X0114265Y0012894D03*
X0124265Y0012894D03*
X0104265Y0012894D03*
X0094265Y0012894D03*
X0084265Y0012894D03*
X0084265Y0022894D03*
X0094265Y0022894D03*
X0104265Y0022894D03*
D18*
X0060367Y0025571D03*
X0057060Y0125492D03*
D19*
X0114985Y0123563D03*
X0125985Y0123563D03*
M02*
