G04 DipTrace 2.4.0.2*
%INBottom.gbr*%
%MOIN*%
%ADD13C,0.008*%
%ADD14C,0.013*%
%ADD15C,0.074*%
%ADD16R,0.05X0.025*%
%ADD17C,0.04*%
%FSLAX44Y44*%
G04*
G70*
G90*
G75*
G01*
%LNBottom*%
%LPD*%
X4893Y4628D2*
D13*
Y5135D1*
X4710Y5318D1*
X6580Y4565D2*
Y4502D1*
X6143Y4065D1*
X4831D1*
X4143Y4753D1*
Y5503D1*
X4268Y5628D1*
X4666D1*
X4710Y5672D1*
X5580Y7065D2*
D14*
Y6566D1*
X5706Y6440D1*
X8393D1*
X8644Y6190D1*
Y5628D1*
X8580Y5565D1*
X4580Y7065D2*
Y6940D1*
X5393Y6128D1*
X5831D1*
X6081Y5878D1*
Y5065D1*
X5580Y4565D1*
D17*
X4893Y4628D3*
G36*
X5922Y4423D2*
X5722Y4223D1*
X5439D1*
X5239Y4423D1*
Y4707D1*
X5439Y4907D1*
X5722D1*
X5922Y4707D1*
Y4423D1*
G37*
G36*
Y5423D2*
X5722Y5223D1*
X5439D1*
X5239Y5423D1*
Y5707D1*
X5439Y5907D1*
X5722D1*
X5922Y5707D1*
Y5423D1*
G37*
G36*
X6922Y4423D2*
X6722Y4223D1*
X6439D1*
X6239Y4423D1*
Y4707D1*
X6439Y4907D1*
X6722D1*
X6922Y4707D1*
Y4423D1*
G37*
G36*
Y5423D2*
X6722Y5223D1*
X6439D1*
X6239Y5423D1*
Y5707D1*
X6439Y5907D1*
X6722D1*
X6922Y5707D1*
Y5423D1*
G37*
G36*
X7922Y4423D2*
X7722Y4223D1*
X7439D1*
X7239Y4423D1*
Y4707D1*
X7439Y4907D1*
X7722D1*
X7922Y4707D1*
Y4423D1*
G37*
G36*
Y5423D2*
X7722Y5223D1*
X7439D1*
X7239Y5423D1*
Y5707D1*
X7439Y5907D1*
X7722D1*
X7922Y5707D1*
Y5423D1*
G37*
G36*
X8922Y4423D2*
X8722Y4223D1*
X8439D1*
X8239Y4423D1*
Y4707D1*
X8439Y4907D1*
X8722D1*
X8922Y4707D1*
Y4423D1*
G37*
G36*
Y5423D2*
X8722Y5223D1*
X8439D1*
X8239Y5423D1*
Y5707D1*
X8439Y5907D1*
X8722D1*
X8922Y5707D1*
Y5423D1*
G37*
D15*
X8580Y7065D3*
X7580D3*
X6580D3*
X5580D3*
X4580D3*
D16*
X4710Y5318D3*
Y5672D3*
M02*
