G04 DipTrace 2.4.0.2*
%INBottomSilk.gbr*%
%MOIN*%
%ADD26C,0.0046*%
%FSLAX44Y44*%
G04*
G70*
G90*
G75*
G01*
%LNBotSilk*%
%LPD*%
X9012Y6440D2*
D26*
X8955Y6239D1*
X8897Y6440D1*
X8840Y6239D1*
X8783Y6440D1*
X8690D2*
X8633Y6239D1*
X8575Y6440D1*
X8518Y6239D1*
X8461Y6440D1*
X8368D2*
X8310Y6239D1*
X8253Y6440D1*
X8196Y6239D1*
X8138Y6440D1*
X8031Y6268D2*
X8046Y6253D1*
X8031Y6239D1*
X8017Y6253D1*
X8031Y6268D1*
X7752Y6440D2*
Y6239D1*
Y6397D2*
X7781Y6426D1*
X7810Y6440D1*
X7852D1*
X7881Y6426D1*
X7910Y6397D1*
X7924Y6354D1*
Y6325D1*
X7910Y6282D1*
X7881Y6254D1*
X7852Y6239D1*
X7810D1*
X7781Y6254D1*
X7752Y6282D1*
X7487Y6540D2*
Y6239D1*
Y6397D2*
X7516Y6426D1*
X7545Y6440D1*
X7588D1*
X7616Y6426D1*
X7645Y6397D1*
X7660Y6354D1*
Y6325D1*
X7645Y6282D1*
X7616Y6254D1*
X7588Y6239D1*
X7545D1*
X7516Y6254D1*
X7487Y6282D1*
X7223Y6540D2*
Y6239D1*
Y6397D2*
X7251Y6426D1*
X7280Y6440D1*
X7323D1*
X7352Y6426D1*
X7381Y6397D1*
X7395Y6354D1*
Y6325D1*
X7381Y6282D1*
X7352Y6254D1*
X7323Y6239D1*
X7280D1*
X7251Y6254D1*
X7223Y6282D1*
X7130Y6540D2*
X7116Y6526D1*
X7101Y6540D1*
X7116Y6555D1*
X7130Y6540D1*
X7116Y6440D2*
Y6239D1*
X6836Y6397D2*
X6865Y6426D1*
X6894Y6440D1*
X6937D1*
X6965Y6426D1*
X6994Y6397D1*
X7009Y6354D1*
Y6325D1*
X6994Y6282D1*
X6965Y6254D1*
X6937Y6239D1*
X6894D1*
X6865Y6254D1*
X6836Y6282D1*
X6700Y6540D2*
Y6296D1*
X6686Y6254D1*
X6657Y6239D1*
X6629D1*
X6743Y6440D2*
X6643D1*
X6536Y6354D2*
X6364D1*
Y6383D1*
X6378Y6411D1*
X6393Y6426D1*
X6421Y6440D1*
X6464D1*
X6493Y6426D1*
X6522Y6397D1*
X6536Y6354D1*
Y6325D1*
X6522Y6282D1*
X6493Y6254D1*
X6464Y6239D1*
X6421D1*
X6393Y6254D1*
X6364Y6282D1*
X6099Y6540D2*
Y6239D1*
Y6397D2*
X6128Y6426D1*
X6157Y6440D1*
X6200D1*
X6228Y6426D1*
X6257Y6397D1*
X6271Y6354D1*
Y6325D1*
X6257Y6282D1*
X6228Y6254D1*
X6200Y6239D1*
X6157D1*
X6128Y6254D1*
X6099Y6282D1*
X5963Y6540D2*
Y6296D1*
X5949Y6254D1*
X5920Y6239D1*
X5892D1*
X6007Y6440D2*
X5906D1*
X5728D2*
X5756Y6426D1*
X5785Y6397D1*
X5799Y6354D1*
Y6325D1*
X5785Y6282D1*
X5756Y6254D1*
X5728Y6239D1*
X5684D1*
X5656Y6254D1*
X5627Y6282D1*
X5613Y6325D1*
Y6354D1*
X5627Y6397D1*
X5656Y6426D1*
X5684Y6440D1*
X5728D1*
X5520D2*
Y6139D1*
Y6397D2*
X5491Y6425D1*
X5463Y6440D1*
X5419D1*
X5391Y6425D1*
X5362Y6397D1*
X5347Y6354D1*
Y6325D1*
X5362Y6282D1*
X5391Y6253D1*
X5419Y6239D1*
X5463D1*
X5491Y6253D1*
X5520Y6282D1*
X5255Y6540D2*
X5241Y6526D1*
X5226Y6540D1*
X5241Y6555D1*
X5255Y6540D1*
X5241Y6440D2*
Y6239D1*
X5119Y6268D2*
X5133Y6253D1*
X5119Y6239D1*
X5104Y6253D1*
X5119Y6268D1*
X4839Y6397D2*
X4868Y6426D1*
X4897Y6440D1*
X4940D1*
X4969Y6426D1*
X4997Y6397D1*
X5012Y6354D1*
Y6325D1*
X4997Y6282D1*
X4969Y6254D1*
X4940Y6239D1*
X4897D1*
X4868Y6254D1*
X4839Y6282D1*
X4675Y6440D2*
X4704Y6426D1*
X4733Y6397D1*
X4747Y6354D1*
Y6325D1*
X4733Y6282D1*
X4704Y6254D1*
X4675Y6239D1*
X4632D1*
X4603Y6254D1*
X4575Y6282D1*
X4560Y6325D1*
Y6354D1*
X4575Y6397D1*
X4603Y6426D1*
X4632Y6440D1*
X4675D1*
X4467D2*
Y6239D1*
Y6383D2*
X4424Y6426D1*
X4395Y6440D1*
X4353D1*
X4324Y6426D1*
X4310Y6383D1*
Y6239D1*
Y6383D2*
X4266Y6426D1*
X4238Y6440D1*
X4195D1*
X4166Y6426D1*
X4151Y6383D1*
Y6239D1*
X4111Y5962D2*
X4412D1*
X4154D2*
X4125Y5933D1*
X4111Y5904D1*
Y5861D1*
X4125Y5833D1*
X4154Y5804D1*
X4197Y5789D1*
X4226D1*
X4269Y5804D1*
X4297Y5833D1*
X4312Y5861D1*
Y5904D1*
X4297Y5933D1*
X4269Y5962D1*
X4111Y5697D2*
X4312D1*
X4197D2*
X4154Y5682D1*
X4125Y5654D1*
X4111Y5625D1*
Y5582D1*
Y5417D2*
X4125Y5446D1*
X4154Y5475D1*
X4197Y5489D1*
X4226D1*
X4269Y5475D1*
X4297Y5446D1*
X4312Y5417D1*
Y5374D1*
X4297Y5345D1*
X4269Y5317D1*
X4226Y5302D1*
X4197D1*
X4154Y5317D1*
X4125Y5345D1*
X4111Y5374D1*
Y5417D1*
X4125Y5038D2*
X4355D1*
X4398Y5052D1*
X4412Y5066D1*
X4426Y5095D1*
Y5138D1*
X4412Y5167D1*
X4168Y5038D2*
X4140Y5066D1*
X4125Y5095D1*
Y5138D1*
X4140Y5167D1*
X4168Y5195D1*
X4211Y5210D1*
X4240D1*
X4283Y5195D1*
X4312Y5167D1*
X4326Y5138D1*
Y5095D1*
X4312Y5066D1*
X4283Y5038D1*
X4111Y4945D2*
X4312D1*
X4197D2*
X4154Y4930D1*
X4125Y4902D1*
X4111Y4873D1*
Y4830D1*
Y4565D2*
X4312D1*
X4154D2*
X4125Y4594D1*
X4111Y4623D1*
Y4665D1*
X4125Y4694D1*
X4154Y4723D1*
X4197Y4737D1*
X4226D1*
X4269Y4723D1*
X4297Y4694D1*
X4312Y4665D1*
Y4623D1*
X4297Y4594D1*
X4269Y4565D1*
X4111Y4473D2*
X4312D1*
X4168D2*
X4125Y4429D1*
X4111Y4401D1*
Y4358D1*
X4125Y4329D1*
X4168Y4315D1*
X4312D1*
X4168D2*
X4125Y4272D1*
X4111Y4243D1*
Y4200D1*
X4125Y4171D1*
X4168Y4156D1*
X4312D1*
M02*
