G04 DipTrace 3.0.0.0*
G04 Bottom.gbl*
%MOIN*%
G04 #@! TF.FileFunction,Copper,L2,Bot*
G04 #@! TF.Part,Single*
G04 #@! TA.AperFunction,Conductor*
%ADD13C,0.007874*%
G04 #@! TA.AperFunction,ComponentPad*
%ADD14R,0.066929X0.066929*%
%ADD15C,0.066929*%
%FSLAX26Y26*%
G04*
G70*
G90*
G75*
G01*
G04 Bottom*
%LPD*%
X552283Y450709D2*
D13*
X599921Y498346D1*
X800315D1*
X804365Y502396D1*
X849134Y547165D1*
X853071D1*
X804365Y502396D2*
X853071Y453692D1*
Y447165D1*
X552283Y550709D2*
X697953Y696378D1*
X784567D1*
X801890Y713701D1*
Y784173D1*
X853071Y835354D1*
Y847165D1*
X753071D2*
X608583Y702677D1*
X517244D1*
X465276Y650709D1*
X452283D1*
D14*
X552283Y450709D3*
D15*
X452283D3*
X552283Y550709D3*
X452283D3*
X552283Y650709D3*
X452283D3*
X552283Y750709D3*
X452283D3*
X552283Y850709D3*
X452283D3*
D14*
X753071Y847165D3*
D15*
X853071D3*
X753071Y747165D3*
X853071D3*
X753071Y647165D3*
X853071D3*
X753071Y547165D3*
X853071D3*
X753071Y447165D3*
X853071D3*
M02*
