M48
INCH
T01C0.0433
%
T01
X+005523Y+004507
X+004523Y+004507
X+004523Y+005507
X+004523Y+006507
X+004523Y+007507
X+005523Y+007507
X+005523Y+006507
X+005523Y+005507
X+007531Y+005472
X+007531Y+006472
X+007531Y+007472
X+007531Y+008472
X+008531Y+008472
X+008531Y+007472
X+008531Y+006472
X+008531Y+005472
X+008531Y+004472
X+007531Y+004472
X+005523Y+008507
X+004523Y+008507
T00
M30
