%
M48
M72
T01C0.02362
T02C0.02756
T03C0.03200
T04C0.03543
T05C0.04000
T06C0.04500
T07C0.04600
T08C0.12598
T09C0.13386
%
T01
X358111Y165361
X357757Y161346
X352245Y161503
X352599Y165598
X203780Y166385
X198938Y166385
X194686Y166267
X189961Y166228
X190355Y161503
X194765Y161543
X199253Y161424
X203662Y161503
X259410Y202094
X254686Y201700
X254646Y206424
X254528Y210676
X254528Y215519
X259410Y215401
X259489Y210991
X259371Y206503
X293387Y174692
X306261Y204850
X310985Y205243
X310946Y209653
X306221Y209574
X306103Y213826
X311064Y214141
X310985Y218550
X306103Y218669
X306143Y287527
X300394Y288826
X306103Y292251
X305985Y296503
X310946Y296818
X310828Y292330
X310867Y287920
X305985Y301346
X310867Y301228
X255119Y300086
X255119Y295243
X255237Y290991
X255276Y286267
X260001Y286661
X259961Y291070
X260080Y295558
X260001Y299968
X160513Y304062
X165394Y303944
X165473Y299535
X160513Y299220
X160631Y294968
X160670Y290243
X165394Y290637
X165355Y295046
X160355Y220558
X160355Y215716
X160473Y211464
X160513Y206739
X165237Y207133
X165198Y211543
X165316Y216031
X165237Y220440
X21576Y161739
X26418Y161739
X26103Y166700
X21694Y166621
X30591Y166582
X30670Y161857
X35394Y161897
X110828Y161228
X35001Y166621
X46100Y42069
X66300Y44669
X86100Y32069
X89100Y41169
X96400Y50469
X88535Y84504
X74900Y104369
X127009Y161228
X123072Y161228
X118977Y161228
X114765Y161228
X115001Y166267
X110946Y166267
X119489Y166149
X123662Y166031
X127206Y166149
X165394Y130046
X160513Y130165
X160513Y125322
X160631Y121070
X165355Y121149
X165473Y125637
X160749Y54535
X160867Y50991
X160749Y46818
X165670Y46306
X165670Y50401
X165670Y54338
X170473Y101385
X184213Y97881
X188308Y81109
X217835Y81109
X249331Y81109
X276891Y81109
X302481Y81109
X316024Y105558
X330276Y48235
X325394Y48354
X325394Y43511
X325513Y39259
X330237Y39338
X330355Y43826
X330276Y34928
X325552Y34535
X308387Y33865
X325788Y113511
X325749Y118235
X325631Y122487
X330473Y118314
X330591Y122802
X330513Y127212
X325631Y127330
X330513Y113905
X285355Y138865
X219607Y110755
X201457Y139456
X183347Y119338
X216891Y192566
X216930Y197645
X220473Y201109
X224056Y204456
X177481Y202448
X172599Y202527
X172363Y214495
X177245Y214495
X111221Y226582
X125119Y248629
X115158Y284889
X115316Y291543
X200158Y299692
X200355Y295007
X206064Y305598
X210670Y305794
X212245Y248157
X217127Y248157
X268780Y231621
X82520Y203550
X79922Y213865
X50828Y214062
X31733Y213787
X27520Y231897
X29686Y252566
X29135Y260519
X26969Y268472
X30040Y275046
X160631Y42330
X160631Y38275
X165670Y38157
X165670Y42094
X179686Y36424
X210316Y15676
X242875Y25322
X275158Y16779
X367245Y24613
T02
X51794Y32308
X59669Y32308
X36426Y31950
X26426Y31950
X54129Y76035
X54129Y86035
X69481Y82947
X79481Y82947
X92559Y72916
X97398Y58163
X87398Y58163
X107302Y57776
X117302Y57776
X119135Y45007
X119135Y35007
X112559Y72916
X109509Y137498
X119509Y137498
T03
X19174Y94916
X29174Y94916
X39174Y94916
X49174Y94916
X59174Y94916
X69174Y94916
X79174Y94916
X89174Y94916
X99174Y94916
X109174Y94916
X119174Y94916
X129174Y94916
X139174Y94916
X149174Y94916
X149174Y124916
X139174Y124916
X129174Y124916
X119174Y124916
X109174Y124916
X99174Y124916
X89174Y124916
X79174Y124916
X69174Y124916
X59174Y124916
X49174Y124916
X39174Y124916
X29174Y124916
X19174Y124916
X127560Y64338
X127560Y34338
T04
X71893Y32477
X101893Y32477
T05
X367442Y146070
X320001Y226109
X320001Y216109
X320001Y206109
X332206Y205991
X332206Y215991
X332206Y225991
X333072Y250086
X323072Y250086
X323072Y260086
X333072Y260086
X333072Y270086
X323072Y270086
X323072Y280086
X333072Y280086
X333072Y290086
X323072Y290086
X342757Y114731
X352757Y114731
X352757Y104731
X342757Y104731
X342757Y94731
X352757Y94731
X352757Y84731
X342757Y84731
X367835Y90007
X367835Y100007
X352757Y124731
X342757Y124731
X367442Y136070
X347363Y184653
X347363Y194653
X281891Y250086
X281891Y260086
X281891Y270086
X281891Y280086
X281891Y290086
X271891Y290086
X271891Y280086
X271891Y270086
X271891Y260086
X271891Y250086
X296300Y259731
X296300Y269731
X177402Y290086
X177402Y280086
X177402Y270086
X177402Y260086
X177402Y250086
X187402Y250086
X187402Y260086
X187402Y270086
X187402Y280086
X187402Y290086
X198780Y271346
X198780Y261346
X198780Y251346
X195670Y239180
X185670Y239180
X175670Y239180
X148032Y238747
X138032Y238747
X138032Y228747
X148032Y228747
X148032Y218747
X138032Y218747
X138032Y208747
X148032Y208747
X123662Y188472
X113662Y188472
X103662Y188472
X93662Y188472
X83662Y188472
X83662Y178472
X93662Y178472
X103662Y178472
X113662Y178472
X123662Y178472
X148032Y83393
X138032Y83393
X138032Y73393
X148032Y73393
X148032Y63393
X138032Y63393
X138032Y53393
X148032Y53393
X148032Y43393
X138032Y43393
X176497Y53550
X227835Y20086
X237835Y20086
X247835Y20086
X257835Y20086
X314292Y53550
X354312Y43043
X354312Y60043
X267835Y142133
X257835Y142133
X247835Y142133
X237835Y142133
X227835Y142133
X217835Y142133
X225434Y182291
X225434Y192291
X225670Y222212
X225670Y232212
X224961Y263354
X224961Y273354
X346969Y308629
X346969Y298629
X148032Y248747
X138032Y248747
X12324Y36228
X12324Y46228
X12324Y56228
X12324Y66228
X12324Y76228
X12324Y86228
X27796Y83393
X37796Y83393
X37796Y73393
X27796Y73393
X27796Y63393
X37796Y63393
X37796Y53393
X27796Y53393
X27796Y43393
X37796Y43393
X50646Y50728
X50646Y68528
X76246Y68528
X76246Y50728
X83662Y23117
X93662Y23117
X93662Y13117
X83662Y13117
X103662Y13117
X113662Y13117
X123662Y13117
X123662Y23117
X113662Y23117
X103662Y23117
X76418Y139102
X76418Y149102
X66418Y149102
X56418Y149102
X46418Y149102
X36418Y149102
X36418Y139102
X46418Y139102
X56418Y139102
X66418Y139102
X12324Y201582
X12324Y211582
X12324Y221582
X12324Y231582
X12324Y241582
X12324Y251582
T06
X38729Y185917
X38729Y202917
X152359Y291869
X295997Y220909
X295997Y203909
X152359Y262869
X135359Y262869
X135359Y291869
X67729Y202917
X67729Y185917
X266997Y203909
X266997Y220909
T07
X236339Y179141
X236339Y198826
X236339Y219141
X236339Y238826
X236339Y259141
X236339Y278826
X357402Y179928
X357402Y199613
X357206Y293314
X357206Y312999
T08
X17048Y18117
X17048Y144102
X143032Y18117
X143032Y144102
T09
X182402Y18117
X308387Y18117
X347757Y18117
X328072Y183472
X276891Y183472
X308387Y144102
X347757Y144102
X328072Y309456
X276891Y309456
X182402Y309456
X17048Y309456
X17048Y183472
X143032Y183472
X182402Y183472
X182402Y144102
X143032Y309456
M30
