G04 DipTrace 2.4.0.2*
%INBoard.gbr*%
%MOIN*%
%ADD11C,0.006*%
%FSLAX44Y44*%
G04*
G70*
G90*
G75*
G01*
%LNBoardPoly*%
%LPD*%
G36*
X8815Y7690D2*
D11*
X4315D1*
X4287Y7685D1*
X4259Y7678D1*
X4232Y7670D1*
X4206Y7660D1*
X4180Y7648D1*
X4155Y7634D1*
X4131Y7619D1*
X4108Y7603D1*
X4086Y7584D1*
X4065Y7565D1*
X4045Y7544D1*
X4027Y7522D1*
X4011Y7499D1*
X3996Y7475D1*
X3982Y7450D1*
X3970Y7424D1*
X3960Y7398D1*
X3952Y7371D1*
X3945Y7343D1*
X3940Y7315D1*
Y4315D1*
X3945Y4287D1*
X3952Y4259D1*
X3960Y4232D1*
X3970Y4206D1*
X3982Y4180D1*
X3996Y4155D1*
X4011Y4131D1*
X4027Y4108D1*
X4045Y4086D1*
X4065Y4065D1*
X4086Y4046D1*
X4108Y4027D1*
X4131Y4011D1*
X4155Y3996D1*
X4180Y3982D1*
X4206Y3970D1*
X4232Y3960D1*
X4259Y3952D1*
X4287Y3945D1*
X4315Y3940D1*
X8815D1*
X8843Y3945D1*
X8871Y3952D1*
X8898Y3960D1*
X8924Y3970D1*
X8950Y3982D1*
X8975Y3996D1*
X8999Y4011D1*
X9022Y4027D1*
X9044Y4046D1*
X9065Y4065D1*
X9084Y4086D1*
X9102Y4108D1*
X9119Y4131D1*
X9134Y4155D1*
X9148Y4180D1*
X9160Y4206D1*
X9170Y4232D1*
X9178Y4259D1*
X9185Y4287D1*
X9190Y4315D1*
Y7315D1*
X9185Y7343D1*
X9178Y7371D1*
X9170Y7398D1*
X9160Y7424D1*
X9148Y7450D1*
X9134Y7475D1*
X9119Y7499D1*
X9102Y7522D1*
X9084Y7544D1*
X9065Y7565D1*
X9044Y7584D1*
X9022Y7603D1*
X8999Y7619D1*
X8975Y7634D1*
X8950Y7648D1*
X8924Y7660D1*
X8898Y7670D1*
X8871Y7678D1*
X8843Y7685D1*
X8815Y7690D1*
G37*
M02*
