G04 DipTrace 2.4.0.2*
%INTop.gbr*%
%MOIN*%
%ADD13C,0.008*%
%ADD14C,0.013*%
%ADD15C,0.074*%
%ADD17C,0.04*%
%FSLAX44Y44*%
G04*
G70*
G90*
G75*
G01*
%LNTop*%
%LPD*%
X8580Y4565D2*
D13*
X8519D1*
X8081Y5003D1*
Y6566D1*
X8580Y7065D1*
Y4565D2*
Y4502D1*
X8143Y4065D1*
X4747D1*
X4455Y4356D1*
X4622D1*
X4893Y4628D1*
X6580Y7065D2*
D14*
Y6565D1*
X7580Y5565D1*
X6580Y6565D2*
X5580Y5565D1*
X4455Y5065D2*
Y5252D1*
X4831Y5628D1*
X5643D1*
X5580Y5565D1*
D17*
X4893Y4628D3*
G36*
X4692Y4908D2*
Y5222D1*
X4219D1*
Y4908D1*
X4692D1*
G37*
G36*
Y4199D2*
Y4514D1*
X4219D1*
Y4199D1*
X4692D1*
G37*
G36*
X5922Y4423D2*
X5722Y4223D1*
X5439D1*
X5239Y4423D1*
Y4707D1*
X5439Y4907D1*
X5722D1*
X5922Y4707D1*
Y4423D1*
G37*
G36*
Y5423D2*
X5722Y5223D1*
X5439D1*
X5239Y5423D1*
Y5707D1*
X5439Y5907D1*
X5722D1*
X5922Y5707D1*
Y5423D1*
G37*
G36*
X6922Y4423D2*
X6722Y4223D1*
X6439D1*
X6239Y4423D1*
Y4707D1*
X6439Y4907D1*
X6722D1*
X6922Y4707D1*
Y4423D1*
G37*
G36*
Y5423D2*
X6722Y5223D1*
X6439D1*
X6239Y5423D1*
Y5707D1*
X6439Y5907D1*
X6722D1*
X6922Y5707D1*
Y5423D1*
G37*
G36*
X7922Y4423D2*
X7722Y4223D1*
X7439D1*
X7239Y4423D1*
Y4707D1*
X7439Y4907D1*
X7722D1*
X7922Y4707D1*
Y4423D1*
G37*
G36*
Y5423D2*
X7722Y5223D1*
X7439D1*
X7239Y5423D1*
Y5707D1*
X7439Y5907D1*
X7722D1*
X7922Y5707D1*
Y5423D1*
G37*
G36*
X8922Y4423D2*
X8722Y4223D1*
X8439D1*
X8239Y4423D1*
Y4707D1*
X8439Y4907D1*
X8722D1*
X8922Y4707D1*
Y4423D1*
G37*
G36*
Y5423D2*
X8722Y5223D1*
X8439D1*
X8239Y5423D1*
Y5707D1*
X8439Y5907D1*
X8722D1*
X8922Y5707D1*
Y5423D1*
G37*
D15*
X8580Y7065D3*
X7580D3*
X6580D3*
X5580D3*
X4580D3*
M02*
