G04 DipTrace 2.4.0.2*
%INTopMask.gbr*%
%MOIN*%
%ADD15C,0.074*%
%FSLAX44Y44*%
G04*
G70*
G90*
G75*
G01*
%LNTopMask*%
%LPD*%
G36*
X4732Y4868D2*
Y5262D1*
X4179D1*
Y4868D1*
X4732D1*
G37*
G36*
Y4159D2*
Y4554D1*
X4179D1*
Y4159D1*
X4732D1*
G37*
G36*
X5962Y4407D2*
X5739Y4183D1*
X5422D1*
X5199Y4407D1*
Y4723D1*
X5422Y4947D1*
X5739D1*
X5962Y4723D1*
Y4407D1*
G37*
G36*
Y5407D2*
X5739Y5183D1*
X5422D1*
X5199Y5407D1*
Y5723D1*
X5422Y5947D1*
X5739D1*
X5962Y5723D1*
Y5407D1*
G37*
G36*
X6962Y4407D2*
X6739Y4183D1*
X6422D1*
X6199Y4407D1*
Y4723D1*
X6422Y4947D1*
X6739D1*
X6962Y4723D1*
Y4407D1*
G37*
G36*
Y5407D2*
X6739Y5183D1*
X6422D1*
X6199Y5407D1*
Y5723D1*
X6422Y5947D1*
X6739D1*
X6962Y5723D1*
Y5407D1*
G37*
G36*
X7962Y4407D2*
X7739Y4183D1*
X7422D1*
X7199Y4407D1*
Y4723D1*
X7422Y4947D1*
X7739D1*
X7962Y4723D1*
Y4407D1*
G37*
G36*
Y5407D2*
X7739Y5183D1*
X7422D1*
X7199Y5407D1*
Y5723D1*
X7422Y5947D1*
X7739D1*
X7962Y5723D1*
Y5407D1*
G37*
G36*
X8962Y4407D2*
X8739Y4183D1*
X8422D1*
X8199Y4407D1*
Y4723D1*
X8422Y4947D1*
X8739D1*
X8962Y4723D1*
Y4407D1*
G37*
G36*
Y5407D2*
X8739Y5183D1*
X8422D1*
X8199Y5407D1*
Y5723D1*
X8422Y5947D1*
X8739D1*
X8962Y5723D1*
Y5407D1*
G37*
D15*
X8580Y7065D3*
X7580D3*
X6580D3*
X5580D3*
X4580D3*
M02*
